<svg version="1.1" viewBox="0.0 0.0 577.0 357.0" fill="none" stroke="none" stroke-linecap="square" stroke-miterlimit="10" width="577" height="357" xmlns:xlink="http://www.w3.org/1999/xlink" xmlns="http://www.w3.org/2000/svg"><path fill="#ffffff" d="M0 0L577.0 0L577.0 357.0L0 357.0L0 0Z" fill-rule="nonzero"/><path stroke="#333333" stroke-width="1.0" stroke-linecap="butt" d="M44.5 287.5L559.5 287.5" fill-rule="nonzero"/><path stroke="#cccccc" stroke-width="1.0" stroke-linecap="butt" d="M44.5 228.5L559.5 228.5" fill-rule="nonzero"/><path stroke="#cccccc" stroke-width="1.0" stroke-linecap="butt" d="M44.5 168.5L559.5 168.5" fill-rule="nonzero"/><path stroke="#cccccc" stroke-width="1.0" stroke-linecap="butt" d="M44.5 109.5L559.5 109.5" fill-rule="nonzero"/><path stroke="#cccccc" stroke-width="1.0" stroke-linecap="butt" d="M44.5 50.5L559.5 50.5" fill-rule="nonzero"/><clipPath id="id_0"><path d="M44.85 50.75L559.15 50.75L559.15 287.15L44.85 287.15L44.85 50.75Z" clip-rule="nonzero"/></clipPath><path stroke="#000000" stroke-width="0.0" stroke-linecap="butt" stroke-opacity="0.0" clip-path="url(#id_0)" d="M111.0 287.0L86.0 287.0L86.0 276.0C86.0 274.89542 86.89543 274.0 88.0 274.0L109.0 274.0C110.10457 274.0 111.0 274.89542 111.0 276.0Z" fill-rule="nonzero"/><path fill="#4285f4" clip-path="url(#id_0)" d="M111.0 287.0L86.0 287.0L86.0 276.0C86.0 274.89542 86.89543 274.0 88.0 274.0L109.0 274.0C110.10457 274.0 111.0 274.89542 111.0 276.0Z" fill-rule="nonzero"/><path stroke="#000000" stroke-width="0.0" stroke-linecap="butt" stroke-opacity="0.0" clip-path="url(#id_0)" d="M229.0 287.0L204.0 287.0L204.0 277.0C204.0 275.89542 204.89543 275.0 206.0 275.0L227.0 275.0C228.10457 275.0 229.0 275.89542 229.0 277.0Z" fill-rule="nonzero"/><path fill="#4285f4" clip-path="url(#id_0)" d="M229.0 287.0L204.0 287.0L204.0 277.0C204.0 275.89542 204.89543 275.0 206.0 275.0L227.0 275.0C228.10457 275.0 229.0 275.89542 229.0 277.0Z" fill-rule="nonzero"/><path stroke="#000000" stroke-width="0.0" stroke-linecap="butt" stroke-opacity="0.0" clip-path="url(#id_0)" d="M347.0 287.0L322.0 287.0L322.0 282.0C322.0 280.89542 322.89542 280.0 324.0 280.0L345.0 280.0C346.10458 280.0 347.0 280.89542 347.0 282.0Z" fill-rule="nonzero"/><path fill="#4285f4" clip-path="url(#id_0)" d="M347.0 287.0L322.0 287.0L322.0 282.0C322.0 280.89542 322.89542 280.0 324.0 280.0L345.0 280.0C346.10458 280.0 347.0 280.89542 347.0 282.0Z" fill-rule="nonzero"/><path stroke="#000000" stroke-width="0.0" stroke-linecap="butt" stroke-opacity="0.0" clip-path="url(#id_0)" d="M137.0 287.0L112.0 287.0L112.0 281.0C112.0 279.89542 112.89543 279.0 114.0 279.0L135.0 279.0C136.10457 279.0 137.0 279.89542 137.0 281.0Z" fill-rule="nonzero"/><path fill="#ea4335" clip-path="url(#id_0)" d="M137.0 287.0L112.0 287.0L112.0 281.0C112.0 279.89542 112.89543 279.0 114.0 279.0L135.0 279.0C136.10457 279.0 137.0 279.89542 137.0 281.0Z" fill-rule="nonzero"/><path stroke="#000000" stroke-width="0.0" stroke-linecap="butt" stroke-opacity="0.0" clip-path="url(#id_0)" d="M255.0 287.0L230.0 287.0L230.0 283.0C230.0 281.89542 230.89543 281.0 232.0 281.0L253.0 281.0C254.10457 281.0 255.0 281.89542 255.0 283.0Z" fill-rule="nonzero"/><path fill="#ea4335" clip-path="url(#id_0)" d="M255.0 287.0L230.0 287.0L230.0 283.0C230.0 281.89542 230.89543 281.0 232.0 281.0L253.0 281.0C254.10457 281.0 255.0 281.89542 255.0 283.0Z" fill-rule="nonzero"/><path stroke="#000000" stroke-width="0.0" stroke-linecap="butt" stroke-opacity="0.0" clip-path="url(#id_0)" d="M373.0 287.0L348.0 287.0L348.0 282.0C348.0 280.89542 348.89542 280.0 350.0 280.0L371.0 280.0C372.10458 280.0 373.0 280.89542 373.0 282.0Z" fill-rule="nonzero"/><path fill="#ea4335" clip-path="url(#id_0)" d="M373.0 287.0L348.0 287.0L348.0 282.0C348.0 280.89542 348.89542 280.0 350.0 280.0L371.0 280.0C372.10458 280.0 373.0 280.89542 373.0 282.0Z" fill-rule="nonzero"/><path stroke="#000000" stroke-width="0.0" stroke-linecap="butt" stroke-opacity="0.0" clip-path="url(#id_0)" d="M163.0 287.0L138.0 287.0L138.0 101.0C138.0 99.89543 138.89543 99.0 140.0 99.0L161.0 99.0C162.10457 99.0 163.0 99.89543 163.0 101.0Z" fill-rule="nonzero"/><path fill="#fbbc04" clip-path="url(#id_0)" d="M163.0 287.0L138.0 287.0L138.0 101.0C138.0 99.89543 138.89543 99.0 140.0 99.0L161.0 99.0C162.10457 99.0 163.0 99.89543 163.0 101.0Z" fill-rule="nonzero"/><path stroke="#000000" stroke-width="0.0" stroke-linecap="butt" stroke-opacity="0.0" clip-path="url(#id_0)" d="M281.0 287.0L256.0 287.0L256.0 185.0C256.0 183.89543 256.89542 183.0 258.0 183.0L279.0 183.0C280.10458 183.0 281.0 183.89543 281.0 185.0Z" fill-rule="nonzero"/><path fill="#fbbc04" clip-path="url(#id_0)" d="M281.0 287.0L256.0 287.0L256.0 185.0C256.0 183.89543 256.89542 183.0 258.0 183.0L279.0 183.0C280.10458 183.0 281.0 183.89543 281.0 185.0Z" fill-rule="nonzero"/><path stroke="#000000" stroke-width="0.0" stroke-linecap="butt" stroke-opacity="0.0" clip-path="url(#id_0)" d="M399.0 287.0L374.0 287.0L374.0 142.0C374.0 140.89543 374.89542 140.0 376.0 140.0L397.0 140.0C398.10458 140.0 399.0 140.89543 399.0 142.0Z" fill-rule="nonzero"/><path fill="#fbbc04" clip-path="url(#id_0)" d="M399.0 287.0L374.0 287.0L374.0 142.0C374.0 140.89543 374.89542 140.0 376.0 140.0L397.0 140.0C398.10458 140.0 399.0 140.89543 399.0 142.0Z" fill-rule="nonzero"/><path stroke="#ffffff" stroke-width="3.0" stroke-linejoin="round" stroke-linecap="round" d="M98.546875 256.46326L98.546875 257.557L92.390625 257.557Q92.375 257.15076 92.53125 256.76013Q92.765625 256.13513 93.28125 255.52576Q93.796875 254.91638 94.78125 254.1195Q96.296875 252.8695 96.828125 252.15076Q97.359375 251.41638 97.359375 250.77576Q97.359375 250.08826 96.875 249.63513Q96.390625 249.16638 95.609375 249.16638Q94.78125 249.16638 94.28125 249.66638Q93.796875 250.15076 93.78125 251.02576L92.609375 250.90076Q92.734375 249.58826 93.515625 248.90076Q94.296875 248.21326 95.625 248.21326Q96.96875 248.21326 97.75 248.96326Q98.53125 249.69763 98.53125 250.79138Q98.53125 251.35388 98.296875 251.90076Q98.078125 252.432 97.546875 253.04138Q97.015625 253.63513 95.78125 254.66638Q94.75 255.52576 94.453125 255.83826Q94.171875 256.15076 93.984375 256.46326L98.546875 256.46326ZM99.546875 255.10388L100.6875 254.94763Q100.890625 255.91638 101.359375 256.35388Q101.828125 256.77576 102.515625 256.77576Q103.3125 256.77576 103.859375 256.22888Q104.421875 255.66638 104.421875 254.83826Q104.421875 254.04138 103.90625 253.54138Q103.40625 253.02576 102.609375 253.02576Q102.28125 253.02576 101.796875 253.15076L101.921875 252.15076Q102.046875 252.16638 102.109375 252.16638Q102.84375 252.16638 103.421875 251.79138Q104.015625 251.40076 104.015625 250.60388Q104.015625 249.97888 103.578125 249.57263Q103.15625 249.15076 102.484375 249.15076Q101.8125 249.15076 101.375 249.57263Q100.9375 249.9945 100.796875 250.82263L99.65625 250.6195Q99.875 249.47888 100.609375 248.85388Q101.359375 248.21326 102.453125 248.21326Q103.21875 248.21326 103.859375 248.54138Q104.5 248.8695 104.84375 249.432Q105.1875 249.9945 105.1875 250.63513Q105.1875 251.22888 104.859375 251.72888Q104.53125 252.22888 103.90625 252.51013Q104.71875 252.71326 105.171875 253.307Q105.640625 253.90076 105.640625 254.807Q105.640625 256.02576 104.75 256.88513Q103.859375 257.72888 102.5 257.72888Q101.28125 257.72888 100.46875 256.9945Q99.65625 256.26013 99.546875 255.10388Z" fill-rule="nonzero"/><path fill="#000000" d="M98.546875 256.46326L98.546875 257.557L92.390625 257.557Q92.375 257.15076 92.53125 256.76013Q92.765625 256.13513 93.28125 255.52576Q93.796875 254.91638 94.78125 254.1195Q96.296875 252.8695 96.828125 252.15076Q97.359375 251.41638 97.359375 250.77576Q97.359375 250.08826 96.875 249.63513Q96.390625 249.16638 95.609375 249.16638Q94.78125 249.16638 94.28125 249.66638Q93.796875 250.15076 93.78125 251.02576L92.609375 250.90076Q92.734375 249.58826 93.515625 248.90076Q94.296875 248.21326 95.625 248.21326Q96.96875 248.21326 97.75 248.96326Q98.53125 249.69763 98.53125 250.79138Q98.53125 251.35388 98.296875 251.90076Q98.078125 252.432 97.546875 253.04138Q97.015625 253.63513 95.78125 254.66638Q94.75 255.52576 94.453125 255.83826Q94.171875 256.15076 93.984375 256.46326L98.546875 256.46326ZM99.546875 255.10388L100.6875 254.94763Q100.890625 255.91638 101.359375 256.35388Q101.828125 256.77576 102.515625 256.77576Q103.3125 256.77576 103.859375 256.22888Q104.421875 255.66638 104.421875 254.83826Q104.421875 254.04138 103.90625 253.54138Q103.40625 253.02576 102.609375 253.02576Q102.28125 253.02576 101.796875 253.15076L101.921875 252.15076Q102.046875 252.16638 102.109375 252.16638Q102.84375 252.16638 103.421875 251.79138Q104.015625 251.40076 104.015625 250.60388Q104.015625 249.97888 103.578125 249.57263Q103.15625 249.15076 102.484375 249.15076Q101.8125 249.15076 101.375 249.57263Q100.9375 249.9945 100.796875 250.82263L99.65625 250.6195Q99.875 249.47888 100.609375 248.85388Q101.359375 248.21326 102.453125 248.21326Q103.21875 248.21326 103.859375 248.54138Q104.5 248.8695 104.84375 249.432Q105.1875 249.9945 105.1875 250.63513Q105.1875 251.22888 104.859375 251.72888Q104.53125 252.22888 103.90625 252.51013Q104.71875 252.71326 105.171875 253.307Q105.640625 253.90076 105.640625 254.807Q105.640625 256.02576 104.75 256.88513Q103.859375 257.72888 102.5 257.72888Q101.28125 257.72888 100.46875 256.9945Q99.65625 256.26013 99.546875 255.10388Z" fill-rule="nonzero"/><path stroke="#ffffff" stroke-width="3.0" stroke-linejoin="round" stroke-linecap="round" d="M211.04688 257.40884L211.04688 258.5026L204.89062 258.5026Q204.875 258.09634 205.03125 257.70572Q205.26562 257.08072 205.78125 256.47134Q206.29688 255.86197 207.28125 255.0651Q208.79688 253.8151 209.32812 253.09634Q209.85938 252.36197 209.85938 251.72134Q209.85938 251.03384 209.375 250.58072Q208.89062 250.11197 208.10938 250.11197Q207.28125 250.11197 206.78125 250.61197Q206.29688 251.09634 206.28125 251.97134L205.10938 251.84634Q205.23438 250.53384 206.01562 249.84634Q206.79688 249.15884 208.125 249.15884Q209.46875 249.15884 210.25 249.90884Q211.03125 250.64322 211.03125 251.73697Q211.03125 252.29947 210.79688 252.84634Q210.57812 253.3776 210.04688 253.98697Q209.51562 254.58072 208.28125 255.61197Q207.25 256.47134 206.95312 256.78384Q206.67188 257.09634 206.48438 257.40884L211.04688 257.40884ZM216.34375 258.5026L215.20312 258.5026L215.20312 251.22134Q214.78125 251.61197 214.10938 252.01822Q213.45312 252.40884 212.92188 252.59634L212.92188 251.48697Q213.875 251.04947 214.59375 250.40884Q215.3125 249.76822 215.60938 249.15884L216.34375 249.15884L216.34375 258.5026ZM219.6875 258.5026L219.6875 257.20572L220.98438 257.20572L220.98438 258.5026L219.6875 258.5026ZM226.70312 258.5026L226.70312 256.26822L222.67188 256.26822L222.67188 255.22134L226.90625 249.1901L227.84375 249.1901L227.84375 255.22134L229.10938 255.22134L229.10938 256.26822L227.84375 256.26822L227.84375 258.5026L226.70312 258.5026ZM226.70312 255.22134L226.70312 251.03384L223.78125 255.22134L226.70312 255.22134Z" fill-rule="nonzero"/><path fill="#000000" d="M211.04688 257.40884L211.04688 258.5026L204.89062 258.5026Q204.875 258.09634 205.03125 257.70572Q205.26562 257.08072 205.78125 256.47134Q206.29688 255.86197 207.28125 255.0651Q208.79688 253.8151 209.32812 253.09634Q209.85938 252.36197 209.85938 251.72134Q209.85938 251.03384 209.375 250.58072Q208.89062 250.11197 208.10938 250.11197Q207.28125 250.11197 206.78125 250.61197Q206.29688 251.09634 206.28125 251.97134L205.10938 251.84634Q205.23438 250.53384 206.01562 249.84634Q206.79688 249.15884 208.125 249.15884Q209.46875 249.15884 210.25 249.90884Q211.03125 250.64322 211.03125 251.73697Q211.03125 252.29947 210.79688 252.84634Q210.57812 253.3776 210.04688 253.98697Q209.51562 254.58072 208.28125 255.61197Q207.25 256.47134 206.95312 256.78384Q206.67188 257.09634 206.48438 257.40884L211.04688 257.40884ZM216.34375 258.5026L215.20312 258.5026L215.20312 251.22134Q214.78125 251.61197 214.10938 252.01822Q213.45312 252.40884 212.92188 252.59634L212.92188 251.48697Q213.875 251.04947 214.59375 250.40884Q215.3125 249.76822 215.60938 249.15884L216.34375 249.15884L216.34375 258.5026ZM219.6875 258.5026L219.6875 257.20572L220.98438 257.20572L220.98438 258.5026L219.6875 258.5026ZM226.70312 258.5026L226.70312 256.26822L222.67188 256.26822L222.67188 255.22134L226.90625 249.1901L227.84375 249.1901L227.84375 255.22134L229.10938 255.22134L229.10938 256.26822L227.84375 256.26822L227.84375 258.5026L226.70312 258.5026ZM226.70312 255.22134L226.70312 251.03384L223.78125 255.22134L226.70312 255.22134Z" fill-rule="nonzero"/><path stroke="#ffffff" stroke-width="3.0" stroke-linejoin="round" stroke-linecap="round" d="M327.34375 263.7034L326.20312 263.7034L326.20312 256.42215Q325.78125 256.81277 325.10938 257.21902Q324.45312 257.60965 323.92188 257.79715L323.92188 256.68777Q324.875 256.25027 325.59375 255.60965Q326.3125 254.96902 326.60938 254.35965L327.34375 254.35965L327.34375 263.7034ZM336.04688 262.60965L336.04688 263.7034L329.89062 263.7034Q329.875 263.29715 330.03125 262.90652Q330.26562 262.28152 330.78125 261.67215Q331.29688 261.06277 332.28125 260.2659Q333.79688 259.0159 334.32812 258.29715Q334.85938 257.56277 334.85938 256.92215Q334.85938 256.23465 334.375 255.78152Q333.89062 255.31277 333.10938 255.31277Q332.28125 255.31277 331.78125 255.81277Q331.29688 256.29715 331.28125 257.17215L330.10938 257.04715Q330.23438 255.73465 331.01562 255.04715Q331.79688 254.35965 333.125 254.35965Q334.46875 254.35965 335.25 255.10965Q336.03125 255.84402 336.03125 256.93777Q336.03125 257.50027 335.79688 258.04715Q335.57812 258.5784 335.04688 259.18777Q334.51562 259.78152 333.28125 260.81277Q332.25 261.67215 331.95312 261.98465Q331.67188 262.29715 331.48438 262.60965L336.04688 262.60965ZM337.6875 263.7034L337.6875 262.40652L338.98438 262.40652L338.98438 263.7034L337.6875 263.7034ZM346.96875 256.67215L345.82812 256.7659Q345.6875 256.09402 345.40625 255.78152Q344.9375 255.29715 344.26562 255.29715Q343.71875 255.29715 343.29688 255.60965Q342.76562 256.00027 342.45312 256.75027Q342.14062 257.50027 342.125 258.90652Q342.53125 258.28152 343.125 257.98465Q343.73438 257.67215 344.39062 257.67215Q345.53125 257.67215 346.32812 258.5159Q347.14062 259.34402 347.14062 260.68777Q347.14062 261.56277 346.75 262.31277Q346.375 263.06277 345.71875 263.46902Q345.0625 263.85965 344.21875 263.85965Q342.79688 263.85965 341.89062 262.81277Q340.98438 261.7659 340.98438 259.34402Q340.98438 256.65652 341.98438 255.42215Q342.85938 254.35965 344.32812 254.35965Q345.42188 254.35965 346.125 254.98465Q346.82812 255.59402 346.96875 256.67215ZM342.29688 260.68777Q342.29688 261.28152 342.54688 261.8284Q342.79688 262.35965 343.25 262.6409Q343.70312 262.92215 344.20312 262.92215Q344.92188 262.92215 345.4375 262.34402Q345.96875 261.75027 345.96875 260.75027Q345.96875 259.78152 345.45312 259.23465Q344.9375 258.67215 344.15625 258.67215Q343.375 258.67215 342.82812 259.23465Q342.29688 259.78152 342.29688 260.68777Z" fill-rule="nonzero"/><path fill="#000000" d="M327.34375 263.7034L326.20312 263.7034L326.20312 256.42215Q325.78125 256.81277 325.10938 257.21902Q324.45312 257.60965 323.92188 257.79715L323.92188 256.68777Q324.875 256.25027 325.59375 255.60965Q326.3125 254.96902 326.60938 254.35965L327.34375 254.35965L327.34375 263.7034ZM336.04688 262.60965L336.04688 263.7034L329.89062 263.7034Q329.875 263.29715 330.03125 262.90652Q330.26562 262.28152 330.78125 261.67215Q331.29688 261.06277 332.28125 260.2659Q333.79688 259.0159 334.32812 258.29715Q334.85938 257.56277 334.85938 256.92215Q334.85938 256.23465 334.375 255.78152Q333.89062 255.31277 333.10938 255.31277Q332.28125 255.31277 331.78125 255.81277Q331.29688 256.29715 331.28125 257.17215L330.10938 257.04715Q330.23438 255.73465 331.01562 255.04715Q331.79688 254.35965 333.125 254.35965Q334.46875 254.35965 335.25 255.10965Q336.03125 255.84402 336.03125 256.93777Q336.03125 257.50027 335.79688 258.04715Q335.57812 258.5784 335.04688 259.18777Q334.51562 259.78152 333.28125 260.81277Q332.25 261.67215 331.95312 261.98465Q331.67188 262.29715 331.48438 262.60965L336.04688 262.60965ZM337.6875 263.7034L337.6875 262.40652L338.98438 262.40652L338.98438 263.7034L337.6875 263.7034ZM346.96875 256.67215L345.82812 256.7659Q345.6875 256.09402 345.40625 255.78152Q344.9375 255.29715 344.26562 255.29715Q343.71875 255.29715 343.29688 255.60965Q342.76562 256.00027 342.45312 256.75027Q342.14062 257.50027 342.125 258.90652Q342.53125 258.28152 343.125 257.98465Q343.73438 257.67215 344.39062 257.67215Q345.53125 257.67215 346.32812 258.5159Q347.14062 259.34402 347.14062 260.68777Q347.14062 261.56277 346.75 262.31277Q346.375 263.06277 345.71875 263.46902Q345.0625 263.85965 344.21875 263.85965Q342.79688 263.85965 341.89062 262.81277Q340.98438 261.7659 340.98438 259.34402Q340.98438 256.65652 341.98438 255.42215Q342.85938 254.35965 344.32812 254.35965Q345.42188 254.35965 346.125 254.98465Q346.82812 255.59402 346.96875 256.67215ZM342.29688 260.68777Q342.29688 261.28152 342.54688 261.8284Q342.79688 262.35965 343.25 262.6409Q343.70312 262.92215 344.20312 262.92215Q344.92188 262.92215 345.4375 262.34402Q345.96875 261.75027 345.96875 260.75027Q345.96875 259.78152 345.45312 259.23465Q344.9375 258.67215 344.15625 258.67215Q343.375 258.67215 342.82812 259.23465Q342.29688 259.78152 342.29688 260.68777Z" fill-rule="nonzero"/><path stroke="#ffffff" stroke-width="3.0" stroke-linejoin="round" stroke-linecap="round" d="M117.34375 263.1715L116.203125 263.1715L116.203125 255.89024Q115.78125 256.28088 115.109375 256.68713Q114.453125 257.07776 113.921875 257.26526L113.921875 256.15588Q114.875 255.71837 115.59375 255.07774Q116.3125 254.43712 116.609375 253.82774L117.34375 253.82774L117.34375 263.1715ZM120.046875 260.71838L121.1875 260.56213Q121.390625 261.53088 121.859375 261.96838Q122.328125 262.39026 123.015625 262.39026Q123.8125 262.39026 124.359375 261.84338Q124.921875 261.28088 124.921875 260.45276Q124.921875 259.65588 124.40625 259.15588Q123.90625 258.64026 123.109375 258.64026Q122.78125 258.64026 122.296875 258.76526L122.421875 257.76526Q122.546875 257.78088 122.609375 257.78088Q123.34375 257.78088 123.921875 257.40588Q124.515625 257.01526 124.515625 256.21838Q124.515625 255.59337 124.078125 255.18712Q123.65625 254.76524 122.984375 254.76524Q122.3125 254.76524 121.875 255.18712Q121.4375 255.609 121.296875 256.43713L120.15625 256.234Q120.375 255.09337 121.109375 254.46837Q121.859375 253.82774 122.953125 253.82774Q123.71875 253.82774 124.359375 254.15587Q125.0 254.484 125.34375 255.0465Q125.6875 255.609 125.6875 256.24963Q125.6875 256.84338 125.359375 257.34338Q125.03125 257.84338 124.40625 258.12463Q125.21875 258.32776 125.671875 258.9215Q126.140625 259.51526 126.140625 260.4215Q126.140625 261.64026 125.25 262.49963Q124.359375 263.34338 123.0 263.34338Q121.78125 263.34338 120.96875 262.609Q120.15625 261.87463 120.046875 260.71838ZM127.6875 263.1715L127.6875 261.87463L128.98438 261.87463L128.98438 263.1715L127.6875 263.1715ZM131.04688 260.734L132.23438 260.62463Q132.375 261.51526 132.85938 261.95276Q133.34375 262.39026 134.03125 262.39026Q134.85938 262.39026 135.42188 261.76526Q136.0 261.14026 136.0 260.12463Q136.0 259.14026 135.45312 258.57776Q134.90625 258.01526 134.01562 258.01526Q133.45312 258.01526 133.0 258.26526Q132.5625 258.51526 132.3125 258.90588L131.25 258.76526L132.14062 253.99962L136.76562 253.99962L136.76562 255.07774L133.0625 255.07774L132.5625 257.57776Q133.39062 256.99963 134.3125 256.99963Q135.53125 256.99963 136.35938 257.84338Q137.20312 258.68713 137.20312 260.01526Q137.20312 261.28088 136.46875 262.20276Q135.57812 263.32776 134.03125 263.32776Q132.76562 263.32776 131.95312 262.62463Q131.15625 261.90588 131.04688 260.734Z" fill-rule="nonzero"/><path fill="#000000" d="M117.34375 263.1715L116.203125 263.1715L116.203125 255.89026Q115.78125 256.28088 115.109375 256.68713Q114.453125 257.07776 113.921875 257.26526L113.921875 256.15588Q114.875 255.71838 115.59375 255.07776Q116.3125 254.43713 116.609375 253.82776L117.34375 253.82776L117.34375 263.1715ZM120.046875 260.71838L121.1875 260.56213Q121.390625 261.53088 121.859375 261.96838Q122.328125 262.39026 123.015625 262.39026Q123.8125 262.39026 124.359375 261.84338Q124.921875 261.28088 124.921875 260.45276Q124.921875 259.65588 124.40625 259.15588Q123.90625 258.64026 123.109375 258.64026Q122.78125 258.64026 122.296875 258.76526L122.421875 257.76526Q122.546875 257.78088 122.609375 257.78088Q123.34375 257.78088 123.921875 257.40588Q124.515625 257.01526 124.515625 256.21838Q124.515625 255.59338 124.078125 255.18713Q123.65625 254.76526 122.984375 254.76526Q122.3125 254.76526 121.875 255.18713Q121.4375 255.60901 121.296875 256.43713L120.15625 256.234Q120.375 255.09338 121.109375 254.46838Q121.859375 253.82776 122.953125 253.82776Q123.71875 253.82776 124.359375 254.15588Q125.0 254.48401 125.34375 255.04651Q125.6875 255.60901 125.6875 256.24963Q125.6875 256.84338 125.359375 257.34338Q125.03125 257.84338 124.40625 258.12463Q125.21875 258.32776 125.671875 258.9215Q126.140625 259.51526 126.140625 260.4215Q126.140625 261.64026 125.25 262.49963Q124.359375 263.34338 123.0 263.34338Q121.78125 263.34338 120.96875 262.609Q120.15625 261.87463 120.046875 260.71838ZM127.6875 263.1715L127.6875 261.87463L128.98438 261.87463L128.98438 263.1715L127.6875 263.1715ZM131.04688 260.734L132.23438 260.62463Q132.375 261.51526 132.85938 261.95276Q133.34375 262.39026 134.03125 262.39026Q134.85938 262.39026 135.42188 261.76526Q136.0 261.14026 136.0 260.12463Q136.0 259.14026 135.45312 258.57776Q134.90625 258.01526 134.01562 258.01526Q133.45312 258.01526 133.0 258.26526Q132.5625 258.51526 132.3125 258.90588L131.25 258.76526L132.14062 253.99963L136.76562 253.99963L136.76562 255.07776L133.0625 255.07776L132.5625 257.57776Q133.39062 256.99963 134.3125 256.99963Q135.53125 256.99963 136.35938 257.84338Q137.20312 258.68713 137.20312 260.01526Q137.20312 261.28088 136.46875 262.20276Q135.57812 263.32776 134.03125 263.32776Q132.76562 263.32776 131.95312 262.62463Q131.15625 261.90588 131.04688 260.734Z" fill-rule="nonzero"/><path stroke="#ffffff" stroke-width="3.0" stroke-linejoin="round" stroke-linecap="round" d="M235.34375 264.9445L234.20312 264.9445L234.20312 257.66324Q233.78125 258.05386 233.10938 258.4601Q232.45312 258.85074 231.92188 259.03824L231.92188 257.92886Q232.875 257.49136 233.59375 256.85074Q234.3125 256.2101 234.60938 255.60075L235.34375 255.60075L235.34375 264.9445ZM238.04688 260.35074Q238.04688 258.7101 238.375 257.7101Q238.71875 256.6945 239.39062 256.1476Q240.0625 255.60075 241.07812 255.60075Q241.82812 255.60075 242.39062 255.91325Q242.95312 256.2101 243.3125 256.7726Q243.6875 257.3351 243.89062 258.16324Q244.10938 258.97574 244.10938 260.35074Q244.10938 261.99136 243.76562 263.007Q243.4375 264.007 242.76562 264.55386Q242.09375 265.10074 241.07812 265.10074Q239.73438 265.10074 238.95312 264.132Q238.04688 262.97574 238.04688 260.35074ZM239.21875 260.35074Q239.21875 262.6476 239.75 263.41324Q240.28125 264.16324 241.07812 264.16324Q241.85938 264.16324 242.39062 263.41324Q242.9375 262.6476 242.9375 260.35074Q242.9375 258.05386 242.39062 257.30386Q241.85938 256.55386 241.0625 256.55386Q240.28125 256.55386 239.79688 257.2101Q239.21875 258.0695 239.21875 260.35074ZM245.6875 264.9445L245.6875 263.6476L246.98438 263.6476L246.98438 264.9445L245.6875 264.9445ZM249.04688 262.507L250.23438 262.3976Q250.375 263.28824 250.85938 263.72574Q251.34375 264.16324 252.03125 264.16324Q252.85938 264.16324 253.42188 263.53824Q254.0 262.91324 254.0 261.8976Q254.0 260.91324 253.45312 260.35074Q252.90625 259.78824 252.01562 259.78824Q251.45312 259.78824 251.0 260.03824Q250.5625 260.28824 250.3125 260.67886L249.25 260.53824L250.14062 255.77263L254.76562 255.77263L254.76562 256.85074L251.0625 256.85074L250.5625 259.35074Q251.39062 258.7726 252.3125 258.7726Q253.53125 258.7726 254.35938 259.61636Q255.20312 260.4601 255.20312 261.78824Q255.20312 263.05386 254.46875 263.97574Q253.57812 265.10074 252.03125 265.10074Q250.76562 265.10074 249.95312 264.3976Q249.15625 263.67886 249.04688 262.507Z" fill-rule="nonzero"/><path fill="#000000" d="M235.34375 264.9445L234.20312 264.9445L234.20312 257.66324Q233.78125 258.05386 233.10938 258.4601Q232.45312 258.85074 231.92188 259.03824L231.92188 257.92886Q232.875 257.49136 233.59375 256.85074Q234.3125 256.2101 234.60938 255.60074L235.34375 255.60074L235.34375 264.9445ZM238.04688 260.35074Q238.04688 258.7101 238.375 257.7101Q238.71875 256.6945 239.39062 256.1476Q240.0625 255.60074 241.07812 255.60074Q241.82812 255.60074 242.39062 255.91324Q242.95312 256.2101 243.3125 256.7726Q243.6875 257.3351 243.89062 258.16324Q244.10938 258.97574 244.10938 260.35074Q244.10938 261.99136 243.76562 263.007Q243.4375 264.007 242.76562 264.55386Q242.09375 265.10074 241.07812 265.10074Q239.73438 265.10074 238.95312 264.132Q238.04688 262.97574 238.04688 260.35074ZM239.21875 260.35074Q239.21875 262.6476 239.75 263.41324Q240.28125 264.16324 241.07812 264.16324Q241.85938 264.16324 242.39062 263.41324Q242.9375 262.6476 242.9375 260.35074Q242.9375 258.05386 242.39062 257.30386Q241.85938 256.55386 241.0625 256.55386Q240.28125 256.55386 239.79688 257.2101Q239.21875 258.0695 239.21875 260.35074ZM245.6875 264.9445L245.6875 263.6476L246.98438 263.6476L246.98438 264.9445L245.6875 264.9445ZM249.04688 262.507L250.23438 262.3976Q250.375 263.28824 250.85938 263.72574Q251.34375 264.16324 252.03125 264.16324Q252.85938 264.16324 253.42188 263.53824Q254.0 262.91324 254.0 261.8976Q254.0 260.91324 253.45312 260.35074Q252.90625 259.78824 252.01562 259.78824Q251.45312 259.78824 251.0 260.03824Q250.5625 260.28824 250.3125 260.67886L249.25 260.53824L250.14062 255.77261L254.76562 255.77261L254.76562 256.85074L251.0625 256.85074L250.5625 259.35074Q251.39062 258.7726 252.3125 258.7726Q253.53125 258.7726 254.35938 259.61636Q255.20312 260.4601 255.20312 261.78824Q255.20312 263.05386 254.46875 263.97574Q253.57812 265.10074 252.03125 265.10074Q250.76562 265.10074 249.95312 264.3976Q249.15625 263.67886 249.04688 262.507Z" fill-rule="nonzero"/><path stroke="#ffffff" stroke-width="3.0" stroke-linejoin="round" stroke-linecap="round" d="M353.34375 263.6443L352.20312 263.6443L352.20312 256.36304Q351.78125 256.75366 351.10938 257.1599Q350.45312 257.55054 349.92188 257.73804L349.92188 256.62866Q350.875 256.19116 351.59375 255.55055Q352.3125 254.90993 352.60938 254.30055L353.34375 254.30055L353.34375 263.6443ZM362.04688 262.55054L362.04688 263.6443L355.89062 263.6443Q355.875 263.23804 356.03125 262.8474Q356.26562 262.2224 356.78125 261.61304Q357.29688 261.00366 358.28125 260.2068Q359.79688 258.9568 360.32812 258.23804Q360.85938 257.50366 360.85938 256.86304Q360.85938 256.17554 360.375 255.72243Q359.89062 255.25368 359.10938 255.25368Q358.28125 255.25368 357.78125 255.75368Q357.29688 256.23804 357.28125 257.11304L356.10938 256.98804Q356.23438 255.67555 357.01562 254.98805Q357.79688 254.30055 359.125 254.30055Q360.46875 254.30055 361.25 255.05055Q362.03125 255.78493 362.03125 256.87866Q362.03125 257.44116 361.79688 257.98804Q361.57812 258.5193 361.04688 259.12866Q360.51562 259.7224 359.28125 260.75366Q358.25 261.61304 357.95312 261.92554Q357.67188 262.23804 357.48438 262.55054L362.04688 262.55054ZM363.6875 263.6443L363.6875 262.3474L364.98438 262.3474L364.98438 263.6443L363.6875 263.6443ZM367.10938 255.55055L367.10938 254.4568L373.14062 254.4568L373.14062 255.34743Q372.25 256.30054 371.375 257.86304Q370.5 259.42554 370.03125 261.0818Q369.6875 262.25366 369.59375 263.6443L368.42188 263.6443Q368.4375 262.55054 368.84375 261.00366Q369.26562 259.44116 370.03125 258.00366Q370.79688 256.55054 371.67188 255.55055L367.10938 255.55055Z" fill-rule="nonzero"/><path fill="#000000" d="M353.34375 263.6443L352.20312 263.6443L352.20312 256.36304Q351.78125 256.75366 351.10938 257.1599Q350.45312 257.55054 349.92188 257.73804L349.92188 256.62866Q350.875 256.19116 351.59375 255.55054Q352.3125 254.90991 352.60938 254.30054L353.34375 254.30054L353.34375 263.6443ZM362.04688 262.55054L362.04688 263.6443L355.89062 263.6443Q355.875 263.23804 356.03125 262.8474Q356.26562 262.2224 356.78125 261.61304Q357.29688 261.00366 358.28125 260.2068Q359.79688 258.9568 360.32812 258.23804Q360.85938 257.50366 360.85938 256.86304Q360.85938 256.17554 360.375 255.72241Q359.89062 255.25366 359.10938 255.25366Q358.28125 255.25366 357.78125 255.75366Q357.29688 256.23804 357.28125 257.11304L356.10938 256.98804Q356.23438 255.67554 357.01562 254.98804Q357.79688 254.30054 359.125 254.30054Q360.46875 254.30054 361.25 255.05054Q362.03125 255.78491 362.03125 256.87866Q362.03125 257.44116 361.79688 257.98804Q361.57812 258.5193 361.04688 259.12866Q360.51562 259.7224 359.28125 260.75366Q358.25 261.61304 357.95312 261.92554Q357.67188 262.23804 357.48438 262.55054L362.04688 262.55054ZM363.6875 263.6443L363.6875 262.3474L364.98438 262.3474L364.98438 263.6443L363.6875 263.6443ZM367.10938 255.55054L367.10938 254.45679L373.14062 254.45679L373.14062 255.34741Q372.25 256.30054 371.375 257.86304Q370.5 259.42554 370.03125 261.0818Q369.6875 262.25366 369.59375 263.6443L368.42188 263.6443Q368.4375 262.55054 368.84375 261.00366Q369.26562 259.44116 370.03125 258.00366Q370.79688 256.55054 371.67188 255.55054L367.10938 255.55054Z" fill-rule="nonzero"/><path stroke="#ffffff" stroke-width="3.0" stroke-linejoin="round" stroke-linecap="round" d="M141.04688 80.75887L142.1875 80.60262Q142.39062 81.57137 142.85938 82.00887Q143.32812 82.43075 144.01562 82.43075Q144.8125 82.43075 145.35938 81.88387Q145.92188 81.32137 145.92188 80.49325Q145.92188 79.69637 145.40625 79.19637Q144.90625 78.68075 144.10938 78.68075Q143.78125 78.68075 143.29688 78.80575L143.42188 77.80575Q143.54688 77.82137 143.60938 77.82137Q144.34375 77.82137 144.92188 77.44637Q145.51562 77.05575 145.51562 76.25887Q145.51562 75.63387 145.07812 75.22762Q144.65625 74.80575 143.98438 74.80575Q143.3125 74.80575 142.875 75.22762Q142.4375 75.6495 142.29688 76.47762L141.15625 76.2745Q141.375 75.13387 142.10938 74.50887Q142.85938 73.86825 143.95312 73.86825Q144.71875 73.86825 145.35938 74.19637Q146.0 74.5245 146.34375 75.087Q146.6875 75.6495 146.6875 76.29012Q146.6875 76.88387 146.35938 77.38387Q146.03125 77.88387 145.40625 78.16512Q146.21875 78.36825 146.67188 78.962Q147.14062 79.55575 147.14062 80.462Q147.14062 81.68075 146.25 82.54012Q145.35938 83.38387 144.0 83.38387Q142.78125 83.38387 141.96875 82.6495Q141.15625 81.91512 141.04688 80.75887ZM152.34375 83.212L151.20312 83.212L151.20312 75.93075Q150.78125 76.32137 150.10938 76.72762Q149.45312 77.11825 148.92188 77.30575L148.92188 76.19637Q149.875 75.75887 150.59375 75.11825Q151.3125 74.47762 151.60938 73.86825L152.34375 73.86825L152.34375 83.212ZM156.79688 78.16512Q156.09375 77.8995 155.75 77.43075Q155.40625 76.94637 155.40625 76.2745Q155.40625 75.25887 156.125 74.57137Q156.85938 73.86825 158.07812 73.86825Q159.29688 73.86825 160.03125 74.587Q160.78125 75.29012 160.78125 76.30575Q160.78125 76.94637 160.4375 77.43075Q160.09375 77.8995 159.40625 78.16512Q160.26562 78.44637 160.70312 79.07137Q161.15625 79.69637 161.15625 80.55575Q161.15625 81.74325 160.3125 82.55575Q159.46875 83.36825 158.09375 83.36825Q156.71875 83.36825 155.875 82.55575Q155.03125 81.74325 155.03125 80.5245Q155.03125 79.61825 155.48438 79.00887Q155.95312 78.38387 156.79688 78.16512ZM156.5625 76.22762Q156.5625 76.88387 156.98438 77.30575Q157.42188 77.72762 158.09375 77.72762Q158.76562 77.72762 159.1875 77.32137Q159.60938 76.8995 159.60938 76.29012Q159.60938 75.66512 159.17188 75.24325Q158.73438 74.80575 158.09375 74.80575Q157.4375 74.80575 157.0 75.22762Q156.5625 75.6495 156.5625 76.22762ZM156.20312 80.5245Q156.20312 81.00887 156.4375 81.47762Q156.67188 81.93075 157.125 82.18075Q157.57812 82.43075 158.10938 82.43075Q158.92188 82.43075 159.45312 81.91512Q159.98438 81.38387 159.98438 80.57137Q159.98438 79.74325 159.4375 79.212Q158.89062 78.66512 158.0625 78.66512Q157.26562 78.66512 156.73438 79.19637Q156.20312 79.72762 156.20312 80.5245Z" fill-rule="nonzero"/><path fill="#000000" d="M141.04688 80.75887L142.1875 80.60262Q142.39062 81.57137 142.85938 82.00887Q143.32812 82.43075 144.01562 82.43075Q144.8125 82.43075 145.35938 81.88387Q145.92188 81.32137 145.92188 80.49325Q145.92188 79.69637 145.40625 79.19637Q144.90625 78.68075 144.10938 78.68075Q143.78125 78.68075 143.29688 78.80575L143.42188 77.80575Q143.54688 77.82137 143.60938 77.82137Q144.34375 77.82137 144.92188 77.44637Q145.51562 77.05575 145.51562 76.25887Q145.51562 75.63387 145.07812 75.22762Q144.65625 74.80575 143.98438 74.80575Q143.3125 74.80575 142.875 75.22762Q142.4375 75.6495 142.29688 76.47762L141.15625 76.2745Q141.375 75.13387 142.10938 74.50887Q142.85938 73.86825 143.95312 73.86825Q144.71875 73.86825 145.35938 74.19637Q146.0 74.5245 146.34375 75.087Q146.6875 75.6495 146.6875 76.29012Q146.6875 76.88387 146.35938 77.38387Q146.03125 77.88387 145.40625 78.16512Q146.21875 78.36825 146.67188 78.962Q147.14062 79.55575 147.14062 80.462Q147.14062 81.68075 146.25 82.54012Q145.35938 83.38387 144.0 83.38387Q142.78125 83.38387 141.96875 82.6495Q141.15625 81.91512 141.04688 80.75887ZM152.34375 83.212L151.20312 83.212L151.20312 75.93075Q150.78125 76.32137 150.10938 76.72762Q149.45312 77.11825 148.92188 77.30575L148.92188 76.19637Q149.875 75.75887 150.59375 75.11825Q151.3125 74.47762 151.60938 73.86825L152.34375 73.86825L152.34375 83.212ZM156.79688 78.16512Q156.09375 77.8995 155.75 77.43075Q155.40625 76.94637 155.40625 76.2745Q155.40625 75.25887 156.125 74.57137Q156.85938 73.86825 158.07812 73.86825Q159.29688 73.86825 160.03125 74.587Q160.78125 75.29012 160.78125 76.30575Q160.78125 76.94637 160.4375 77.43075Q160.09375 77.8995 159.40625 78.16512Q160.26562 78.44637 160.70312 79.07137Q161.15625 79.69637 161.15625 80.55575Q161.15625 81.74325 160.3125 82.55575Q159.46875 83.36825 158.09375 83.36825Q156.71875 83.36825 155.875 82.55575Q155.03125 81.74325 155.03125 80.5245Q155.03125 79.61825 155.48438 79.00887Q155.95312 78.38387 156.79688 78.16512ZM156.5625 76.22762Q156.5625 76.88387 156.98438 77.30575Q157.42188 77.72762 158.09375 77.72762Q158.76562 77.72762 159.1875 77.32137Q159.60938 76.8995 159.60938 76.29012Q159.60938 75.66512 159.17188 75.24325Q158.73438 74.80575 158.09375 74.80575Q157.4375 74.80575 157.0 75.22762Q156.5625 75.6495 156.5625 76.22762ZM156.20312 80.5245Q156.20312 81.00887 156.4375 81.47762Q156.67188 81.93075 157.125 82.18075Q157.57812 82.43075 158.10938 82.43075Q158.92188 82.43075 159.45312 81.91512Q159.98438 81.38387 159.98438 80.57137Q159.98438 79.74325 159.4375 79.212Q158.89062 78.66512 158.0625 78.66512Q157.26562 78.66512 156.73438 79.19637Q156.20312 79.72762 156.20312 80.5245Z" fill-rule="nonzero"/><path stroke="#ffffff" stroke-width="3.0" stroke-linejoin="round" stroke-linecap="round" d="M257.84375 166.6021L256.70312 166.6021L256.70312 159.32085Q256.28125 159.71147 255.60938 160.11772Q254.95312 160.50835 254.42188 160.69585L254.42188 159.58647Q255.375 159.14897 256.09375 158.50835Q256.8125 157.86772 257.10938 157.25835L257.84375 157.25835L257.84375 166.6021ZM260.60938 158.50835L260.60938 157.4146L266.64062 157.4146L266.64062 158.30522Q265.75 159.25835 264.875 160.82085Q264.0 162.38335 263.53125 164.0396Q263.1875 165.21147 263.09375 166.6021L261.92188 166.6021Q261.9375 165.50835 262.34375 163.96147Q262.76562 162.39897 263.53125 160.96147Q264.29688 159.50835 265.17188 158.50835L260.60938 158.50835ZM273.46875 159.57085L272.32812 159.6646Q272.1875 158.99272 271.90625 158.68022Q271.4375 158.19585 270.76562 158.19585Q270.21875 158.19585 269.79688 158.50835Q269.26562 158.89897 268.95312 159.64897Q268.64062 160.39897 268.625 161.80522Q269.03125 161.18022 269.625 160.88335Q270.23438 160.57085 270.89062 160.57085Q272.03125 160.57085 272.82812 161.4146Q273.64062 162.24272 273.64062 163.58647Q273.64062 164.46147 273.25 165.21147Q272.875 165.96147 272.21875 166.36772Q271.5625 166.75835 270.71875 166.75835Q269.29688 166.75835 268.39062 165.71147Q267.48438 164.6646 267.48438 162.24272Q267.48438 159.55522 268.48438 158.32085Q269.35938 157.25835 270.82812 157.25835Q271.92188 157.25835 272.625 157.88335Q273.32812 158.49272 273.46875 159.57085ZM268.79688 163.58647Q268.79688 164.18022 269.04688 164.7271Q269.29688 165.25835 269.75 165.5396Q270.20312 165.82085 270.70312 165.82085Q271.42188 165.82085 271.9375 165.24272Q272.46875 164.64897 272.46875 163.64897Q272.46875 162.68022 271.95312 162.13335Q271.4375 161.57085 270.65625 161.57085Q269.875 161.57085 269.32812 162.13335Q268.79688 162.68022 268.79688 163.58647ZM275.1875 166.6021L275.1875 165.30522L276.48438 165.30522L276.48438 166.6021L275.1875 166.6021ZM278.71875 164.44585L279.8125 164.3521Q279.95312 165.11772 280.34375 165.4771Q280.73438 165.82085 281.35938 165.82085Q281.875 165.82085 282.26562 165.58647Q282.67188 165.33647 282.92188 164.94585Q283.1875 164.5396 283.34375 163.8521Q283.51562 163.1646 283.51562 162.44585Q283.51562 162.36772 283.51562 162.2271Q283.17188 162.77397 282.57812 163.11772Q281.98438 163.44585 281.29688 163.44585Q280.14062 163.44585 279.34375 162.61772Q278.54688 161.77397 278.54688 160.39897Q278.54688 158.9771 279.375 158.11772Q280.20312 157.25835 281.46875 157.25835Q282.375 157.25835 283.125 157.75835Q283.875 158.24272 284.26562 159.14897Q284.65625 160.0396 284.65625 161.75835Q284.65625 163.5396 284.26562 164.6021Q283.89062 165.64897 283.125 166.21147Q282.35938 166.75835 281.32812 166.75835Q280.23438 166.75835 279.53125 166.1646Q278.84375 165.55522 278.71875 164.44585ZM283.39062 160.33647Q283.39062 159.3521 282.85938 158.7896Q282.34375 158.21147 281.60938 158.21147Q280.84375 158.21147 280.28125 158.83647Q279.71875 159.44585 279.71875 160.44585Q279.71875 161.32085 280.25 161.88335Q280.78125 162.43022 281.57812 162.43022Q282.375 162.43022 282.875 161.88335Q283.39062 161.32085 283.39062 160.33647Z" fill-rule="nonzero"/><path fill="#000000" d="M257.84375 166.6021L256.70312 166.6021L256.70312 159.32085Q256.28125 159.71147 255.60938 160.11772Q254.95312 160.50835 254.42188 160.69585L254.42188 159.58647Q255.375 159.14897 256.09375 158.50835Q256.8125 157.86772 257.10938 157.25835L257.84375 157.25835L257.84375 166.6021ZM260.60938 158.50835L260.60938 157.4146L266.64062 157.4146L266.64062 158.30522Q265.75 159.25835 264.875 160.82085Q264.0 162.38335 263.53125 164.0396Q263.1875 165.21147 263.09375 166.6021L261.92188 166.6021Q261.9375 165.50835 262.34375 163.96147Q262.76562 162.39897 263.53125 160.96147Q264.29688 159.50835 265.17188 158.50835L260.60938 158.50835ZM273.46875 159.57085L272.32812 159.6646Q272.1875 158.99272 271.90625 158.68022Q271.4375 158.19585 270.76562 158.19585Q270.21875 158.19585 269.79688 158.50835Q269.26562 158.89897 268.95312 159.64897Q268.64062 160.39897 268.625 161.80522Q269.03125 161.18022 269.625 160.88335Q270.23438 160.57085 270.89062 160.57085Q272.03125 160.57085 272.82812 161.4146Q273.64062 162.24272 273.64062 163.58647Q273.64062 164.46147 273.25 165.21147Q272.875 165.96147 272.21875 166.36772Q271.5625 166.75835 270.71875 166.75835Q269.29688 166.75835 268.39062 165.71147Q267.48438 164.6646 267.48438 162.24272Q267.48438 159.55522 268.48438 158.32085Q269.35938 157.25835 270.82812 157.25835Q271.92188 157.25835 272.625 157.88335Q273.32812 158.49272 273.46875 159.57085ZM268.79688 163.58647Q268.79688 164.18022 269.04688 164.7271Q269.29688 165.25835 269.75 165.5396Q270.20312 165.82085 270.70312 165.82085Q271.42188 165.82085 271.9375 165.24272Q272.46875 164.64897 272.46875 163.64897Q272.46875 162.68022 271.95312 162.13335Q271.4375 161.57085 270.65625 161.57085Q269.875 161.57085 269.32812 162.13335Q268.79688 162.68022 268.79688 163.58647ZM275.1875 166.6021L275.1875 165.30522L276.48438 165.30522L276.48438 166.6021L275.1875 166.6021ZM278.71875 164.44585L279.8125 164.3521Q279.95312 165.11772 280.34375 165.4771Q280.73438 165.82085 281.35938 165.82085Q281.875 165.82085 282.26562 165.58647Q282.67188 165.33647 282.92188 164.94585Q283.1875 164.5396 283.34375 163.8521Q283.51562 163.1646 283.51562 162.44585Q283.51562 162.36772 283.51562 162.2271Q283.17188 162.77397 282.57812 163.11772Q281.98438 163.44585 281.29688 163.44585Q280.14062 163.44585 279.34375 162.61772Q278.54688 161.77397 278.54688 160.39897Q278.54688 158.9771 279.375 158.11772Q280.20312 157.25835 281.46875 157.25835Q282.375 157.25835 283.125 157.75835Q283.875 158.24272 284.26562 159.14897Q284.65625 160.0396 284.65625 161.75835Q284.65625 163.5396 284.26562 164.6021Q283.89062 165.64897 283.125 166.21147Q282.35938 166.75835 281.32812 166.75835Q280.23438 166.75835 279.53125 166.1646Q278.84375 165.55522 278.71875 164.44585ZM283.39062 160.33647Q283.39062 159.3521 282.85938 158.7896Q282.34375 158.21147 281.60938 158.21147Q280.84375 158.21147 280.28125 158.83647Q279.71875 159.44585 279.71875 160.44585Q279.71875 161.32085 280.25 161.88335Q280.78125 162.43022 281.57812 162.43022Q282.375 162.43022 282.875 161.88335Q283.39062 161.32085 283.39062 160.33647Z" fill-rule="nonzero"/><path stroke="#ffffff" stroke-width="3.0" stroke-linejoin="round" stroke-linecap="round" d="M377.54688 122.60175L377.54688 123.6955L371.39062 123.6955Q371.375 123.28925 371.53125 122.89863Q371.76562 122.27363 372.28125 121.66425Q372.79688 121.05488 373.78125 120.258Q375.29688 119.008 375.82812 118.28925Q376.35938 117.55488 376.35938 116.91425Q376.35938 116.22675 375.875 115.77363Q375.39062 115.30488 374.60938 115.30488Q373.78125 115.30488 373.28125 115.80488Q372.79688 116.28925 372.78125 117.16425L371.60938 117.03925Q371.73438 115.72675 372.51562 115.03925Q373.29688 114.35175 374.625 114.35175Q375.96875 114.35175 376.75 115.10175Q377.53125 115.83613 377.53125 116.92988Q377.53125 117.49238 377.29688 118.03925Q377.07812 118.5705 376.54688 119.17988Q376.01562 119.77363 374.78125 120.80488Q373.75 121.66425 373.45312 121.97675Q373.17188 122.28925 372.98438 122.60175L377.54688 122.60175ZM382.20312 123.6955L382.20312 121.46113L378.17188 121.46113L378.17188 120.41425L382.40625 114.383L383.34375 114.383L383.34375 120.41425L384.60938 120.41425L384.60938 121.46113L383.34375 121.46113L383.34375 123.6955L382.20312 123.6955ZM382.20312 120.41425L382.20312 116.22675L379.28125 120.41425L382.20312 120.41425ZM385.71875 121.53925L386.8125 121.4455Q386.95312 122.21113 387.34375 122.5705Q387.73438 122.91425 388.35938 122.91425Q388.875 122.91425 389.26562 122.67988Q389.67188 122.42988 389.92188 122.03925Q390.1875 121.633 390.34375 120.9455Q390.51562 120.258 390.51562 119.53925Q390.51562 119.46113 390.51562 119.3205Q390.17188 119.86738 389.57812 120.21113Q388.98438 120.53925 388.29688 120.53925Q387.14062 120.53925 386.34375 119.71113Q385.54688 118.86738 385.54688 117.49238Q385.54688 116.0705 386.375 115.21113Q387.20312 114.35175 388.46875 114.35175Q389.375 114.35175 390.125 114.85175Q390.875 115.33613 391.26562 116.24238Q391.65625 117.133 391.65625 118.85175Q391.65625 120.633 391.26562 121.6955Q390.89062 122.74238 390.125 123.30488Q389.35938 123.85175 388.32812 123.85175Q387.23438 123.85175 386.53125 123.258Q385.84375 122.64863 385.71875 121.53925ZM390.39062 117.42988Q390.39062 116.4455 389.85938 115.883Q389.34375 115.30488 388.60938 115.30488Q387.84375 115.30488 387.28125 115.92988Q386.71875 116.53925 386.71875 117.53925Q386.71875 118.41425 387.25 118.97675Q387.78125 119.52363 388.57812 119.52363Q389.375 119.52363 389.875 118.97675Q390.39062 118.41425 390.39062 117.42988ZM393.1875 123.6955L393.1875 122.39863L394.48438 122.39863L394.48438 123.6955L393.1875 123.6955ZM396.54688 121.258L397.73438 121.14863Q397.875 122.03925 398.35938 122.47675Q398.84375 122.91425 399.53125 122.91425Q400.35938 122.91425 400.92188 122.28925Q401.5 121.66425 401.5 120.64863Q401.5 119.66425 400.95312 119.10175Q400.40625 118.53925 399.51562 118.53925Q398.95312 118.53925 398.5 118.78925Q398.0625 119.03925 397.8125 119.42988L396.75 119.28925L397.64062 114.52363L402.26562 114.52363L402.26562 115.60175L398.5625 115.60175L398.0625 118.10175Q398.89062 117.52363 399.8125 117.52363Q401.03125 117.52363 401.85938 118.36738Q402.70312 119.21113 402.70312 120.53925Q402.70312 121.80488 401.96875 122.72675Q401.07812 123.85175 399.53125 123.85175Q398.26562 123.85175 397.45312 123.14863Q396.65625 122.42988 396.54688 121.258Z" fill-rule="nonzero"/><path fill="#000000" d="M377.54688 122.60175L377.54688 123.6955L371.39062 123.6955Q371.375 123.28925 371.53125 122.89863Q371.76562 122.27363 372.28125 121.66425Q372.79688 121.05488 373.78125 120.258Q375.29688 119.008 375.82812 118.28925Q376.35938 117.55488 376.35938 116.91425Q376.35938 116.22675 375.875 115.77363Q375.39062 115.30488 374.60938 115.30488Q373.78125 115.30488 373.28125 115.80488Q372.79688 116.28925 372.78125 117.16425L371.60938 117.03925Q371.73438 115.72675 372.51562 115.03925Q373.29688 114.35175 374.625 114.35175Q375.96875 114.35175 376.75 115.10175Q377.53125 115.83613 377.53125 116.92988Q377.53125 117.49238 377.29688 118.03925Q377.07812 118.5705 376.54688 119.17988Q376.01562 119.77363 374.78125 120.80488Q373.75 121.66425 373.45312 121.97675Q373.17188 122.28925 372.98438 122.60175L377.54688 122.60175ZM382.20312 123.6955L382.20312 121.46113L378.17188 121.46113L378.17188 120.41425L382.40625 114.383L383.34375 114.383L383.34375 120.41425L384.60938 120.41425L384.60938 121.46113L383.34375 121.46113L383.34375 123.6955L382.20312 123.6955ZM382.20312 120.41425L382.20312 116.22675L379.28125 120.41425L382.20312 120.41425ZM385.71875 121.53925L386.8125 121.4455Q386.95312 122.21113 387.34375 122.5705Q387.73438 122.91425 388.35938 122.91425Q388.875 122.91425 389.26562 122.67988Q389.67188 122.42988 389.92188 122.03925Q390.1875 121.633 390.34375 120.9455Q390.51562 120.258 390.51562 119.53925Q390.51562 119.46113 390.51562 119.3205Q390.17188 119.86738 389.57812 120.21113Q388.98438 120.53925 388.29688 120.53925Q387.14062 120.53925 386.34375 119.71113Q385.54688 118.86738 385.54688 117.49238Q385.54688 116.0705 386.375 115.21113Q387.20312 114.35175 388.46875 114.35175Q389.375 114.35175 390.125 114.85175Q390.875 115.33613 391.26562 116.24238Q391.65625 117.133 391.65625 118.85175Q391.65625 120.633 391.26562 121.6955Q390.89062 122.74238 390.125 123.30488Q389.35938 123.85175 388.32812 123.85175Q387.23438 123.85175 386.53125 123.258Q385.84375 122.64863 385.71875 121.53925ZM390.39062 117.42988Q390.39062 116.4455 389.85938 115.883Q389.34375 115.30488 388.60938 115.30488Q387.84375 115.30488 387.28125 115.92988Q386.71875 116.53925 386.71875 117.53925Q386.71875 118.41425 387.25 118.97675Q387.78125 119.52363 388.57812 119.52363Q389.375 119.52363 389.875 118.97675Q390.39062 118.41425 390.39062 117.42988ZM393.1875 123.6955L393.1875 122.39863L394.48438 122.39863L394.48438 123.6955L393.1875 123.6955ZM396.54688 121.258L397.73438 121.14863Q397.875 122.03925 398.35938 122.47675Q398.84375 122.91425 399.53125 122.91425Q400.35938 122.91425 400.92188 122.28925Q401.5 121.66425 401.5 120.64863Q401.5 119.66425 400.95312 119.10175Q400.40625 118.53925 399.51562 118.53925Q398.95312 118.53925 398.5 118.78925Q398.0625 119.03925 397.8125 119.42988L396.75 119.28925L397.64062 114.52363L402.26562 114.52363L402.26562 115.60175L398.5625 115.60175L398.0625 118.10175Q398.89062 117.52363 399.8125 117.52363Q401.03125 117.52363 401.85938 118.36738Q402.70312 119.21113 402.70312 120.53925Q402.70312 121.80488 401.96875 122.72675Q401.07812 123.85175 399.53125 123.85175Q398.26562 123.85175 397.45312 123.14863Q396.65625 122.42988 396.54688 121.258Z" fill-rule="nonzero"/><path fill="#000000" d="M264.98438 336.15L264.98438 327.55624L270.78125 327.55624L270.78125 328.57187L266.125 328.57187L266.125 331.22812L270.15625 331.22812L270.15625 332.24374L266.125 332.24374L266.125 336.15L264.98438 336.15ZM275.85938 335.38437Q275.26562 335.88437 274.71875 336.0875Q274.1875 336.29062 273.5625 336.29062Q272.53125 336.29062 271.98438 335.79062Q271.4375 335.29062 271.4375 334.50937Q271.4375 334.05624 271.64062 333.68124Q271.84375 333.29062 272.1875 333.07187Q272.53125 332.8375 272.95312 332.72812Q273.25 332.63437 273.89062 332.55624Q275.15625 332.41562 275.76562 332.19687Q275.76562 331.97812 275.76562 331.93124Q275.76562 331.275 275.46875 331.00937Q275.0625 330.66562 274.26562 330.66562Q273.53125 330.66562 273.17188 330.93124Q272.8125 331.18124 272.64062 331.8375L271.60938 331.69687Q271.75 331.04062 272.07812 330.63437Q272.40625 330.22812 273.01562 330.00937Q273.625 329.79062 274.42188 329.79062Q275.21875 329.79062 275.71875 329.97812Q276.21875 330.16562 276.45312 330.44687Q276.6875 330.72812 276.78125 331.16562Q276.82812 331.43124 276.82812 332.13437L276.82812 333.54062Q276.82812 335.00937 276.89062 335.4Q276.96875 335.79062 277.17188 336.15L276.0625 336.15Q275.90625 335.82187 275.85938 335.38437ZM275.76562 333.025Q275.1875 333.25937 274.04688 333.43124Q273.39062 333.525 273.125 333.65Q272.85938 333.75937 272.70312 333.97812Q272.5625 334.19687 272.5625 334.47812Q272.5625 334.9 272.875 335.18124Q273.20312 335.4625 273.8125 335.4625Q274.42188 335.4625 274.89062 335.19687Q275.375 334.93124 275.59375 334.4625Q275.76562 334.10312 275.76562 333.41562L275.76562 333.025ZM282.85938 333.86874L283.89062 334.00937Q283.71875 335.07187 283.01562 335.68124Q282.3125 336.29062 281.29688 336.29062Q280.01562 336.29062 279.23438 335.4625Q278.46875 334.61874 278.46875 333.05624Q278.46875 332.05624 278.79688 331.30624Q279.14062 330.54062 279.8125 330.16562Q280.5 329.79062 281.3125 329.79062Q282.3125 329.79062 282.95312 330.30624Q283.60938 330.80624 283.79688 331.75937L282.76562 331.91562Q282.625 331.29062 282.25 330.97812Q281.875 330.65 281.34375 330.65Q280.54688 330.65 280.04688 331.22812Q279.54688 331.79062 279.54688 333.025Q279.54688 334.29062 280.03125 334.85312Q280.51562 335.41562 281.28125 335.41562Q281.90625 335.41562 282.3125 335.04062Q282.73438 334.66562 282.85938 333.86874ZM289.04688 334.15L290.14062 334.275Q289.89062 335.22812 289.1875 335.75937Q288.48438 336.29062 287.40625 336.29062Q286.04688 336.29062 285.23438 335.44687Q284.4375 334.60312 284.4375 333.0875Q284.4375 331.525 285.25 330.66562Q286.0625 329.79062 287.34375 329.79062Q288.59375 329.79062 289.375 330.63437Q290.17188 331.47812 290.17188 333.025Q290.17188 333.11874 290.17188 333.30624L285.53125 333.30624Q285.59375 334.3375 286.10938 334.88437Q286.625 335.41562 287.40625 335.41562Q287.98438 335.41562 288.39062 335.11874Q288.8125 334.80624 289.04688 334.15ZM285.59375 332.44687L289.0625 332.44687Q289.0 331.65 288.67188 331.25937Q288.15625 330.65 287.35938 330.65Q286.625 330.65 286.125 331.13437Q285.64062 331.61874 285.59375 332.44687ZM294.92188 336.15L294.92188 327.55624L297.89062 327.55624Q298.89062 327.55624 299.42188 327.68124Q300.15625 327.85312 300.67188 328.29062Q301.35938 328.86874 301.6875 329.775Q302.03125 330.66562 302.03125 331.80624Q302.03125 332.79062 301.79688 333.54062Q301.57812 334.29062 301.21875 334.79062Q300.85938 335.29062 300.42188 335.57187Q300.0 335.85312 299.40625 336.00937Q298.8125 336.15 298.03125 336.15L294.92188 336.15ZM296.0625 335.13437L297.89062 335.13437Q298.75 335.13437 299.23438 334.97812Q299.71875 334.82187 300.0 334.525Q300.40625 334.13437 300.625 333.44687Q300.85938 332.75937 300.85938 331.79062Q300.85938 330.44687 300.40625 329.72812Q299.96875 328.99374 299.34375 328.74374Q298.875 328.57187 297.875 328.57187L296.0625 328.57187L296.0625 335.13437ZM308.04688 334.15L309.14062 334.275Q308.89062 335.22812 308.1875 335.75937Q307.48438 336.29062 306.40625 336.29062Q305.04688 336.29062 304.23438 335.44687Q303.4375 334.60312 303.4375 333.0875Q303.4375 331.525 304.25 330.66562Q305.0625 329.79062 306.34375 329.79062Q307.59375 329.79062 308.375 330.63437Q309.17188 331.47812 309.17188 333.025Q309.17188 333.11874 309.17188 333.30624L304.53125 333.30624Q304.59375 334.3375 305.10938 334.88437Q305.625 335.41562 306.40625 335.41562Q306.98438 335.41562 307.39062 335.11874Q307.8125 334.80624 308.04688 334.15ZM304.59375 332.44687L308.0625 332.44687Q308.0 331.65 307.67188 331.25937Q307.15625 330.65 306.35938 330.65Q305.625 330.65 305.125 331.13437Q304.64062 331.61874 304.59375 332.44687ZM313.09375 335.2125L313.25 336.13437Q312.79688 336.22812 312.45312 336.22812Q311.875 336.22812 311.5625 336.05624Q311.25 335.86874 311.10938 335.57187Q310.98438 335.275 310.98438 334.32187L310.98438 330.74374L310.21875 330.74374L310.21875 329.93124L310.98438 329.93124L310.98438 328.38437L312.03125 327.75937L312.03125 329.93124L313.09375 329.93124L313.09375 330.74374L312.03125 330.74374L312.03125 334.38437Q312.03125 334.8375 312.07812 334.9625Q312.14062 335.0875 312.26562 335.16562Q312.39062 335.24374 312.625 335.24374Q312.8125 335.24374 313.09375 335.2125ZM318.04688 334.15L319.14062 334.275Q318.89062 335.22812 318.1875 335.75937Q317.48438 336.29062 316.40625 336.29062Q315.04688 336.29062 314.23438 335.44687Q313.4375 334.60312 313.4375 333.0875Q313.4375 331.525 314.25 330.66562Q315.0625 329.79062 316.34375 329.79062Q317.59375 329.79062 318.375 330.63437Q319.17188 331.47812 319.17188 333.025Q319.17188 333.11874 319.17188 333.30624L314.53125 333.30624Q314.59375 334.3375 315.10938 334.88437Q315.625 335.41562 316.40625 335.41562Q316.98438 335.41562 317.39062 335.11874Q317.8125 334.80624 318.04688 334.15ZM314.59375 332.44687L318.0625 332.44687Q318.0 331.65 317.67188 331.25937Q317.15625 330.65 316.35938 330.65Q315.625 330.65 315.125 331.13437Q314.64062 331.61874 314.59375 332.44687ZM324.85938 333.86874L325.89062 334.00937Q325.71875 335.07187 325.01562 335.68124Q324.3125 336.29062 323.29688 336.29062Q322.01562 336.29062 321.23438 335.4625Q320.46875 334.61874 320.46875 333.05624Q320.46875 332.05624 320.79688 331.30624Q321.14062 330.54062 321.8125 330.16562Q322.5 329.79062 323.3125 329.79062Q324.3125 329.79062 324.95312 330.30624Q325.60938 330.80624 325.79688 331.75937L324.76562 331.91562Q324.625 331.29062 324.25 330.97812Q323.875 330.65 323.34375 330.65Q322.54688 330.65 322.04688 331.22812Q321.54688 331.79062 321.54688 333.025Q321.54688 334.29062 322.03125 334.85312Q322.51562 335.41562 323.28125 335.41562Q323.90625 335.41562 324.3125 335.04062Q324.73438 334.66562 324.85938 333.86874ZM329.09375 335.2125L329.25 336.13437Q328.79688 336.22812 328.45312 336.22812Q327.875 336.22812 327.5625 336.05624Q327.25 335.86874 327.10938 335.57187Q326.98438 335.275 326.98438 334.32187L326.98438 330.74374L326.21875 330.74374L326.21875 329.93124L326.98438 329.93124L326.98438 328.38437L328.03125 327.75937L328.03125 329.93124L329.09375 329.93124L329.09375 330.74374L328.03125 330.74374L328.03125 334.38437Q328.03125 334.8375 328.07812 334.9625Q328.14062 335.0875 328.26562 335.16562Q328.39062 335.24374 328.625 335.24374Q328.8125 335.24374 329.09375 335.2125ZM329.40625 333.04062Q329.40625 331.30624 330.35938 330.47812Q331.15625 329.79062 332.3125 329.79062Q333.59375 329.79062 334.40625 330.63437Q335.23438 331.4625 335.23438 332.94687Q335.23438 334.15 334.875 334.8375Q334.51562 335.525 333.8125 335.91562Q333.125 336.29062 332.3125 336.29062Q331.01562 336.29062 330.20312 335.4625Q329.40625 334.61874 329.40625 333.04062ZM330.48438 333.04062Q330.48438 334.22812 331.0 334.82187Q331.53125 335.41562 332.3125 335.41562Q333.10938 335.41562 333.625 334.82187Q334.14062 334.22812 334.14062 333.00937Q334.14062 331.85312 333.60938 331.25937Q333.09375 330.66562 332.3125 330.66562Q331.53125 330.66562 331.0 331.25937Q330.48438 331.8375 330.48438 333.04062ZM336.78125 336.15L336.78125 329.93124L337.73438 329.93124L337.73438 330.86874Q338.09375 330.2125 338.39062 330.00937Q338.70312 329.79062 339.07812 329.79062Q339.60938 329.79062 340.15625 330.11874L339.79688 331.10312Q339.40625 330.86874 339.03125 330.86874Q338.67188 330.86874 338.39062 331.0875Q338.125 331.29062 338.01562 331.66562Q337.82812 332.22812 337.82812 332.88437L337.82812 336.15L336.78125 336.15Z" fill-rule="nonzero"/><path fill="#000000" d="M32.35 286.91562Q32.35 285.38437 32.6625 284.4625Q32.975 283.525 33.584373 283.025Q34.209373 282.525 35.146873 282.525Q35.834373 282.525 36.35 282.80624Q36.88125 283.0875 37.225 283.61874Q37.56875 284.13437 37.75625 284.88437Q37.94375 285.63437 37.94375 286.91562Q37.94375 288.43124 37.63125 289.35312Q37.334373 290.275 36.709373 290.79062Q36.1 291.29062 35.146873 291.29062Q33.9125 291.29062 33.19375 290.4Q32.35 289.3375 32.35 286.91562ZM33.428123 286.91562Q33.428123 289.025 33.928123 289.72812Q34.428123 290.43124 35.146873 290.43124Q35.88125 290.43124 36.365623 289.72812Q36.865623 289.025 36.865623 286.91562Q36.865623 284.79062 36.365623 284.10312Q35.88125 283.4 35.13125 283.4Q34.4125 283.4 33.975 284.00937Q33.428123 284.79062 33.428123 286.91562Z" fill-rule="nonzero"/><path fill="#000000" d="M22.31875 232.05L21.271875 232.05L21.271875 225.33125Q20.88125 225.69063 20.25625 226.06563Q19.646875 226.425 19.1625 226.59688L19.1625 225.58125Q20.0375 225.15938 20.69375 224.58125Q21.365625 223.9875 21.646875 223.425L22.31875 223.425L22.31875 232.05ZM25.35 227.81563Q25.35 226.28438 25.6625 225.3625Q25.975 224.425 26.584375 223.925Q27.209375 223.425 28.146875 223.425Q28.834375 223.425 29.35 223.70625Q29.88125 223.9875 30.225 224.51875Q30.56875 225.03438 30.75625 225.78438Q30.94375 226.53438 30.94375 227.81563Q30.94375 229.33125 30.63125 230.25313Q30.334375 231.175 29.709375 231.69063Q29.1 232.19063 28.146875 232.19063Q26.9125 232.19063 26.19375 231.3Q25.35 230.2375 25.35 227.81563ZM26.428125 227.81563Q26.428125 229.925 26.928125 230.62813Q27.428125 231.33125 28.146875 231.33125Q28.88125 231.33125 29.365625 230.62813Q29.865625 229.925 29.865625 227.81563Q29.865625 225.69063 29.365625 225.00313Q28.88125 224.3 28.13125 224.3Q27.4125 224.3 26.975 224.90938Q26.428125 225.69063 26.428125 227.81563ZM32.35 227.81563Q32.35 226.28438 32.6625 225.3625Q32.975 224.425 33.584373 223.925Q34.209373 223.425 35.146873 223.425Q35.834373 223.425 36.35 223.70625Q36.88125 223.9875 37.225 224.51875Q37.56875 225.03438 37.75625 225.78438Q37.94375 226.53438 37.94375 227.81563Q37.94375 229.33125 37.63125 230.25313Q37.334373 231.175 36.709373 231.69063Q36.1 232.19063 35.146873 232.19063Q33.9125 232.19063 33.19375 231.3Q32.35 230.2375 32.35 227.81563ZM33.428123 227.81563Q33.428123 229.925 33.928123 230.62813Q34.428123 231.33125 35.146873 231.33125Q35.88125 231.33125 36.365623 230.62813Q36.865623 229.925 36.865623 227.81563Q36.865623 225.69063 36.365623 225.00313Q35.88125 224.3 35.13125 224.3Q34.4125 224.3 33.975 224.90938Q33.428123 225.69063 33.428123 227.81563Z" fill-rule="nonzero"/><path fill="#000000" d="M23.896875 171.93437L23.896875 172.95L18.209375 172.95Q18.209375 172.575 18.334375 172.21562Q18.553125 171.6375 19.021875 171.075Q19.50625 170.5125 20.4125 169.77812Q21.81875 168.62187 22.303125 167.95Q22.803125 167.27812 22.803125 166.68437Q22.803125 166.05937 22.35 165.6375Q21.896875 165.2 21.178125 165.2Q20.4125 165.2 19.959375 165.65312Q19.50625 166.10625 19.490625 166.91875L18.4125 166.80937Q18.521875 165.59062 19.240625 164.96562Q19.975 164.325 21.209375 164.325Q22.44375 164.325 23.1625 165.0125Q23.88125 165.7 23.88125 166.71562Q23.88125 167.23125 23.6625 167.73125Q23.459375 168.21562 22.959375 168.77812Q22.475 169.325 21.35 170.27812Q20.396875 171.075 20.115625 171.37187Q19.85 171.65312 19.678125 171.93437L23.896875 171.93437ZM25.35 168.71562Q25.35 167.18437 25.6625 166.2625Q25.975 165.325 26.584375 164.825Q27.209375 164.325 28.146875 164.325Q28.834375 164.325 29.35 164.60625Q29.88125 164.8875 30.225 165.41875Q30.56875 165.93437 30.75625 166.68437Q30.94375 167.43437 30.94375 168.71562Q30.94375 170.23125 30.63125 171.15312Q30.334375 172.075 29.709375 172.59062Q29.1 173.09062 28.146875 173.09062Q26.9125 173.09062 26.19375 172.2Q25.35 171.1375 25.35 168.71562ZM26.428125 168.71562Q26.428125 170.825 26.928125 171.52812Q27.428125 172.23125 28.146875 172.23125Q28.88125 172.23125 29.365625 171.52812Q29.865625 170.825 29.865625 168.71562Q29.865625 166.59062 29.365625 165.90312Q28.88125 165.2 28.13125 165.2Q27.4125 165.2 26.975 165.80937Q26.428125 166.59062 26.428125 168.71562ZM32.35 168.71562Q32.35 167.18437 32.6625 166.2625Q32.975 165.325 33.584373 164.825Q34.209373 164.325 35.146873 164.325Q35.834373 164.325 36.35 164.60625Q36.88125 164.8875 37.225 165.41875Q37.56875 165.93437 37.75625 166.68437Q37.94375 167.43437 37.94375 168.71562Q37.94375 170.23125 37.63125 171.15312Q37.334373 172.075 36.709373 172.59062Q36.1 173.09062 35.146873 173.09062Q33.9125 173.09062 33.19375 172.2Q32.35 171.1375 32.35 168.71562ZM33.428123 168.71562Q33.428123 170.825 33.928123 171.52812Q34.428123 172.23125 35.146873 172.23125Q35.88125 172.23125 36.365623 171.52812Q36.865623 170.825 36.865623 168.71562Q36.865623 166.59062 36.365623 165.90312Q35.88125 165.2 35.13125 165.2Q34.4125 165.2 33.975 165.80937Q33.428123 166.59062 33.428123 168.71562Z" fill-rule="nonzero"/><path fill="#000000" d="M18.35 111.58437L19.4125 111.44375Q19.584375 112.33437 20.021875 112.74062Q20.459375 113.13125 21.084375 113.13125Q21.834375 113.13125 22.35 112.61562Q22.865625 112.1 22.865625 111.33437Q22.865625 110.61562 22.38125 110.14687Q21.9125 109.6625 21.178125 109.6625Q20.88125 109.6625 20.428125 109.7875L20.553125 108.85Q20.6625 108.86562 20.725 108.86562Q21.396875 108.86562 21.928125 108.52187Q22.475 108.1625 22.475 107.42812Q22.475 106.85 22.084375 106.475Q21.69375 106.08437 21.06875 106.08437Q20.459375 106.08437 20.0375 106.475Q19.63125 106.86562 19.521875 107.63125L18.459375 107.44375Q18.646875 106.39687 19.334375 105.81875Q20.021875 105.225 21.0375 105.225Q21.740625 105.225 22.334375 105.5375Q22.928125 105.83437 23.240625 106.35Q23.553125 106.86562 23.553125 107.45937Q23.553125 108.00625 23.25625 108.475Q22.959375 108.92812 22.38125 109.19375Q23.13125 109.36562 23.553125 109.92812Q23.975 110.475 23.975 111.31875Q23.975 112.44375 23.146875 113.225Q22.334375 114.00625 21.084375 114.00625Q19.959375 114.00625 19.209375 113.33437Q18.459375 112.64687 18.35 111.58437ZM25.35 109.61562Q25.35 108.08437 25.6625 107.1625Q25.975 106.225 26.584375 105.725Q27.209375 105.225 28.146875 105.225Q28.834375 105.225 29.35 105.50625Q29.88125 105.7875 30.225 106.31875Q30.56875 106.83437 30.75625 107.58437Q30.94375 108.33437 30.94375 109.61562Q30.94375 111.13125 30.63125 112.05312Q30.334375 112.975 29.709375 113.49062Q29.1 113.99062 28.146875 113.99062Q26.9125 113.99062 26.19375 113.1Q25.35 112.0375 25.35 109.61562ZM26.428125 109.61562Q26.428125 111.725 26.928125 112.42812Q27.428125 113.13125 28.146875 113.13125Q28.88125 113.13125 29.365625 112.42812Q29.865625 111.725 29.865625 109.61562Q29.865625 107.49062 29.365625 106.80312Q28.88125 106.1 28.13125 106.1Q27.4125 106.1 26.975 106.70937Q26.428125 107.49062 26.428125 109.61562ZM32.35 109.61562Q32.35 108.08437 32.6625 107.1625Q32.975 106.225 33.584373 105.725Q34.209373 105.225 35.146873 105.225Q35.834373 105.225 36.35 105.50625Q36.88125 105.7875 37.225 106.31875Q37.56875 106.83437 37.75625 107.58437Q37.94375 108.33437 37.94375 109.61562Q37.94375 111.13125 37.63125 112.05312Q37.334373 112.975 36.709373 113.49062Q36.1 113.99062 35.146873 113.99062Q33.9125 113.99062 33.19375 113.1Q32.35 112.0375 32.35 109.61562ZM33.428123 109.61562Q33.428123 111.725 33.928123 112.42812Q34.428123 113.13125 35.146873 113.13125Q35.88125 113.13125 36.365623 112.42812Q36.865623 111.725 36.865623 109.61562Q36.865623 107.49062 36.365623 106.80312Q35.88125 106.1 35.13125 106.1Q34.4125 106.1 33.975 106.70937Q33.428123 107.49062 33.428123 109.61562Z" fill-rule="nonzero"/><path fill="#000000" d="M21.725 54.75L21.725 52.6875L18.00625 52.6875L18.00625 51.71875L21.928125 46.15625L22.7875 46.15625L22.7875 51.71875L23.94375 51.71875L23.94375 52.6875L22.7875 52.6875L22.7875 54.75L21.725 54.75ZM21.725 51.71875L21.725 47.859375L19.0375 51.71875L21.725 51.71875ZM25.35 50.515625Q25.35 48.984375 25.6625 48.0625Q25.975 47.125 26.584375 46.625Q27.209375 46.125 28.146875 46.125Q28.834375 46.125 29.35 46.40625Q29.88125 46.6875 30.225 47.21875Q30.56875 47.734375 30.75625 48.484375Q30.94375 49.234375 30.94375 50.515625Q30.94375 52.03125 30.63125 52.953125Q30.334375 53.875 29.709375 54.390625Q29.1 54.890625 28.146875 54.890625Q26.9125 54.890625 26.19375 54.0Q25.35 52.9375 25.35 50.515625ZM26.428125 50.515625Q26.428125 52.625 26.928125 53.328125Q27.428125 54.03125 28.146875 54.03125Q28.88125 54.03125 29.365625 53.328125Q29.865625 52.625 29.865625 50.515625Q29.865625 48.390625 29.365625 47.703125Q28.88125 47.0 28.13125 47.0Q27.4125 47.0 26.975 47.609375Q26.428125 48.390625 26.428125 50.515625ZM32.35 50.515625Q32.35 48.984375 32.6625 48.0625Q32.975 47.125 33.584373 46.625Q34.209373 46.125 35.146873 46.125Q35.834373 46.125 36.35 46.40625Q36.88125 46.6875 37.225 47.21875Q37.56875 47.734375 37.75625 48.484375Q37.94375 49.234375 37.94375 50.515625Q37.94375 52.03125 37.63125 52.953125Q37.334373 53.875 36.709373 54.390625Q36.1 54.890625 35.146873 54.890625Q33.9125 54.890625 33.19375 54.0Q32.35 52.9375 32.35 50.515625ZM33.428123 50.515625Q33.428123 52.625 33.928123 53.328125Q34.428123 54.03125 35.146873 54.03125Q35.88125 54.03125 36.365623 53.328125Q36.865623 52.625 36.865623 50.515625Q36.865623 48.390625 36.365623 47.703125Q35.88125 47.0 35.13125 47.0Q34.4125 47.0 33.975 47.609375Q33.428123 48.390625 33.428123 50.515625Z" fill-rule="nonzero"/><path fill="#000000" d="M100.45205 296.775L100.45205 295.55624L101.51455 295.55624L101.51455 296.775L100.45205 296.775ZM100.45205 304.15L100.45205 297.93124L101.51455 297.93124L101.51455 304.15L100.45205 304.15ZM103.57705 304.15L103.57705 295.55624L106.82705 295.55624Q107.6708 295.55624 108.123924 295.63437Q108.76455 295.74374 109.186424 296.04062Q109.623924 296.3375 109.873924 296.86874Q110.13955 297.4 110.13955 298.04062Q110.13955 299.13437 109.436424 299.9Q108.748924 300.65 106.9208 300.65L104.717674 300.65L104.717674 304.15L103.57705 304.15ZM104.717674 299.65L106.936424 299.65Q108.0458 299.65 108.498924 299.24374Q108.967674 298.82187 108.967674 298.07187Q108.967674 297.54062 108.686424 297.16562Q108.4208 296.775 107.9833 296.65Q107.686424 296.57187 106.9208 296.57187L104.717674 296.57187L104.717674 299.65ZM111.45205 304.15L111.45205 295.55624L112.498924 295.55624L112.498924 298.63437Q113.2333 297.79062 114.3583 297.79062Q115.061424 297.79062 115.561424 298.07187Q116.07705 298.3375 116.2958 298.82187Q116.51455 299.29062 116.51455 300.2125L116.51455 304.15L115.467674 304.15L115.467674 300.2125Q115.467674 299.41562 115.123924 299.05624Q114.780174 298.69687 114.155174 298.69687Q113.686424 298.69687 113.26455 298.94687Q112.8583 299.18124 112.6708 299.60312Q112.498924 300.00937 112.498924 300.74374L112.498924 304.15L111.45205 304.15ZM118.061424 301.04062Q118.061424 299.30624 119.01455 298.47812Q119.811424 297.79062 120.967674 297.79062Q122.248924 297.79062 123.061424 298.63437Q123.88955 299.4625 123.88955 300.94687Q123.88955 302.15 123.530174 302.8375Q123.1708 303.525 122.467674 303.91562Q121.780174 304.29062 120.967674 304.29062Q119.6708 304.29062 118.8583 303.4625Q118.061424 302.61874 118.061424 301.04062ZM119.13955 301.04062Q119.13955 302.22812 119.655174 302.82187Q120.186424 303.41562 120.967674 303.41562Q121.76455 303.41562 122.280174 302.82187Q122.7958 302.22812 122.7958 301.00937Q122.7958 299.85312 122.26455 299.25937Q121.748924 298.66562 120.967674 298.66562Q120.186424 298.66562 119.655174 299.25937Q119.13955 299.8375 119.13955 301.04062ZM125.45205 304.15L125.45205 297.93124L126.38955 297.93124L126.38955 298.80624Q127.07705 297.79062 128.37393 297.79062Q128.93643 297.79062 129.40518 297.99374Q129.88956 298.19687 130.12393 298.525Q130.3583 298.85312 130.45206 299.29062Q130.49893 299.5875 130.49893 300.32187L130.49893 304.15L129.45206 304.15L129.45206 300.36874Q129.45206 299.7125 129.32706 299.4Q129.20206 299.0875 128.88956 298.9Q128.57706 298.69687 128.15518 298.69687Q127.4833 298.69687 126.9833 299.13437Q126.498924 299.55624 126.498924 300.74374L126.498924 304.15L125.45205 304.15ZM136.70206 302.15L137.7958 302.275Q137.5458 303.22812 136.84268 303.75937Q136.13956 304.29062 135.06143 304.29062Q133.70206 304.29062 132.88956 303.44687Q132.09268 302.60312 132.09268 301.0875Q132.09268 299.525 132.90518 298.66562Q133.71768 297.79062 134.99893 297.79062Q136.24893 297.79062 137.03018 298.63437Q137.82706 299.47812 137.82706 301.025Q137.82706 301.11874 137.82706 301.30624L133.18643 301.30624Q133.24893 302.3375 133.76456 302.88437Q134.28018 303.41562 135.06143 303.41562Q135.63956 303.41562 136.0458 303.11874Q136.46768 302.80624 136.70206 302.15ZM133.24893 300.44687L136.71768 300.44687Q136.65518 299.65 136.32706 299.25937Q135.81143 298.65 135.01456 298.65Q134.28018 298.65 133.78018 299.13437Q133.2958 299.61874 133.24893 300.44687ZM141.70206 304.15L145.03018 299.66562L142.1083 295.55624L143.45206 295.55624L145.01456 297.75937Q145.49893 298.44687 145.70206 298.82187Q145.99893 298.35312 146.38956 297.8375L148.1083 295.55624L149.34268 295.55624L146.32706 299.60312L149.57706 304.15L148.1708 304.15L146.01456 301.0875Q145.82706 300.82187 145.63956 300.50937Q145.3583 300.97812 145.2333 301.15L143.07706 304.15L141.70206 304.15Z" fill-rule="nonzero"/><path fill="#000000" d="M214.68193 296.775L214.68193 295.55624L215.74443 295.55624L215.74443 296.775L214.68193 296.775ZM214.68193 304.15L214.68193 297.93124L215.74443 297.93124L215.74443 304.15L214.68193 304.15ZM217.80693 304.15L217.80693 295.55624L221.05693 295.55624Q221.90068 295.55624 222.3538 295.63437Q222.99443 295.74374 223.4163 296.04062Q223.8538 296.3375 224.1038 296.86874Q224.36943 297.4 224.36943 298.04062Q224.36943 299.13437 223.6663 299.9Q222.9788 300.65 221.15068 300.65L218.94756 300.65L218.94756 304.15L217.80693 304.15ZM218.94756 299.65L221.1663 299.65Q222.27568 299.65 222.7288 299.24374Q223.19756 298.82187 223.19756 298.07187Q223.19756 297.54062 222.9163 297.16562Q222.65068 296.775 222.21318 296.65Q221.9163 296.57187 221.15068 296.57187L218.94756 296.57187L218.94756 299.65ZM225.68193 304.15L225.68193 295.55624L226.7288 295.55624L226.7288 298.63437Q227.46318 297.79062 228.58818 297.79062Q229.2913 297.79062 229.7913 298.07187Q230.30693 298.3375 230.52568 298.82187Q230.74443 299.29062 230.74443 300.2125L230.74443 304.15L229.69756 304.15L229.69756 300.2125Q229.69756 299.41562 229.3538 299.05624Q229.01006 298.69687 228.38506 298.69687Q227.9163 298.69687 227.49443 298.94687Q227.08818 299.18124 226.90068 299.60312Q226.7288 300.00937 226.7288 300.74374L226.7288 304.15L225.68193 304.15ZM232.2913 301.04062Q232.2913 299.30624 233.24443 298.47812Q234.0413 297.79062 235.19756 297.79062Q236.4788 297.79062 237.2913 298.63437Q238.11943 299.4625 238.11943 300.94687Q238.11943 302.15 237.76006 302.8375Q237.40068 303.525 236.69756 303.91562Q236.01006 304.29062 235.19756 304.29062Q233.90068 304.29062 233.08818 303.4625Q232.2913 302.61874 232.2913 301.04062ZM233.36943 301.04062Q233.36943 302.22812 233.88506 302.82187Q234.4163 303.41562 235.19756 303.41562Q235.99443 303.41562 236.51006 302.82187Q237.02568 302.22812 237.02568 301.00937Q237.02568 299.85312 236.49443 299.25937Q235.9788 298.66562 235.19756 298.66562Q234.4163 298.66562 233.88506 299.25937Q233.36943 299.8375 233.36943 301.04062ZM239.68193 304.15L239.68193 297.93124L240.61943 297.93124L240.61943 298.80624Q241.30693 297.79062 242.6038 297.79062Q243.1663 297.79062 243.63506 297.99374Q244.11943 298.19687 244.3538 298.525Q244.58818 298.85312 244.68193 299.29062Q244.7288 299.5875 244.7288 300.32187L244.7288 304.15L243.68193 304.15L243.68193 300.36874Q243.68193 299.7125 243.55693 299.4Q243.43193 299.0875 243.11943 298.9Q242.80693 298.69687 242.38506 298.69687Q241.71318 298.69687 241.21318 299.13437Q240.7288 299.55624 240.7288 300.74374L240.7288 304.15L239.68193 304.15ZM250.93193 302.15L252.02568 302.275Q251.77568 303.22812 251.07256 303.75937Q250.36943 304.29062 249.2913 304.29062Q247.93193 304.29062 247.11943 303.44687Q246.32256 302.60312 246.32256 301.0875Q246.32256 299.525 247.13506 298.66562Q247.94756 297.79062 249.2288 297.79062Q250.4788 297.79062 251.26006 298.63437Q252.05693 299.47812 252.05693 301.025Q252.05693 301.11874 252.05693 301.30624L247.4163 301.30624Q247.4788 302.3375 247.99443 302.88437Q248.51006 303.41562 249.2913 303.41562Q249.86943 303.41562 250.27568 303.11874Q250.69756 302.80624 250.93193 302.15ZM247.4788 300.44687L250.94756 300.44687Q250.88506 299.65 250.55693 299.25937Q250.0413 298.65 249.24443 298.65Q248.51006 298.65 248.01006 299.13437Q247.52568 299.61874 247.4788 300.44687ZM255.93193 304.15L259.26007 299.66562L256.3382 295.55624L257.68195 295.55624L259.24445 297.75937Q259.72882 298.44687 259.93195 298.82187Q260.22882 298.35312 260.61945 297.8375L262.3382 295.55624L263.57257 295.55624L260.55695 299.60312L263.80695 304.15L262.4007 304.15L260.24445 301.0875Q260.05695 300.82187 259.86945 300.50937Q259.5882 300.97812 259.4632 301.15L257.30695 304.15L255.93193 304.15ZM264.43195 301.38437L265.49445 301.29062Q265.57257 301.94687 265.85382 302.35312Q266.13507 302.75937 266.7132 303.025Q267.30695 303.275 268.04132 303.275Q268.68195 303.275 269.18195 303.0875Q269.68195 302.88437 269.91632 302.55624Q270.16632 302.2125 270.16632 301.82187Q270.16632 301.41562 269.93195 301.11874Q269.69757 300.80624 269.16632 300.60312Q268.80695 300.4625 267.61945 300.18124Q266.44757 299.9 265.97882 299.65Q265.35382 299.32187 265.05695 298.85312Q264.76007 298.36874 264.76007 297.775Q264.76007 297.13437 265.11945 296.57187Q265.49445 295.99374 266.19757 295.7125Q266.91632 295.41562 267.7757 295.41562Q268.72882 295.41562 269.4632 295.72812Q270.19757 296.025 270.5882 296.63437Q270.97882 297.22812 271.01007 297.97812L269.91632 298.05624Q269.82257 297.24374 269.30695 296.8375Q268.80695 296.41562 267.82257 296.41562Q266.79132 296.41562 266.32257 296.79062Q265.85382 297.16562 265.85382 297.69687Q265.85382 298.16562 266.18195 298.4625Q266.51007 298.75937 267.88507 299.07187Q269.2757 299.38437 269.79132 299.61874Q270.54132 299.97812 270.9007 300.50937Q271.26007 301.025 271.26007 301.72812Q271.26007 302.41562 270.86945 303.025Q270.47882 303.61874 269.74445 303.9625Q269.01007 304.29062 268.0882 304.29062Q266.91632 304.29062 266.11945 303.9625Q265.3382 303.61874 264.88507 302.93124Q264.44757 302.24374 264.43195 301.38437Z" fill-rule="nonzero"/><path fill="#000000" d="M323.0368 304.15L323.0368 295.55624L326.00555 295.55624Q327.00555 295.55624 327.5368 295.68124Q328.27118 295.85312 328.7868 296.29062Q329.4743 296.86874 329.80243 297.775Q330.14618 298.66562 330.14618 299.80624Q330.14618 300.79062 329.9118 301.54062Q329.69305 302.29062 329.33368 302.79062Q328.9743 303.29062 328.5368 303.57187Q328.11493 303.85312 327.52118 304.00937Q326.92743 304.15 326.14618 304.15L323.0368 304.15ZM324.17743 303.13437L326.00555 303.13437Q326.86493 303.13437 327.3493 302.97812Q327.83368 302.82187 328.11493 302.525Q328.52118 302.13437 328.73993 301.44687Q328.9743 300.75937 328.9743 299.79062Q328.9743 298.44687 328.52118 297.72812Q328.08368 296.99374 327.45868 296.74374Q326.98993 296.57187 325.98993 296.57187L324.17743 296.57187L324.17743 303.13437ZM336.1618 302.15L337.25555 302.275Q337.00555 303.22812 336.30243 303.75937Q335.5993 304.29062 334.52118 304.29062Q333.1618 304.29062 332.3493 303.44687Q331.55243 302.60312 331.55243 301.0875Q331.55243 299.525 332.36493 298.66562Q333.17743 297.79062 334.45868 297.79062Q335.70868 297.79062 336.48993 298.63437Q337.2868 299.47812 337.2868 301.025Q337.2868 301.11874 337.2868 301.30624L332.64618 301.30624Q332.70868 302.3375 333.2243 302.88437Q333.73993 303.41562 334.52118 303.41562Q335.0993 303.41562 335.50555 303.11874Q335.92743 302.80624 336.1618 302.15ZM332.70868 300.44687L336.17743 300.44687Q336.11493 299.65 335.7868 299.25937Q335.27118 298.65 334.4743 298.65Q333.73993 298.65 333.23993 299.13437Q332.75555 299.61874 332.70868 300.44687ZM338.48993 302.29062L339.52118 302.13437Q339.61493 302.75937 340.00555 303.0875Q340.4118 303.41562 341.14618 303.41562Q341.86493 303.41562 342.20868 303.13437Q342.56805 302.8375 342.56805 302.43124Q342.56805 302.07187 342.25555 301.86874Q342.0368 301.72812 341.17743 301.50937Q340.02118 301.2125 339.56805 301.00937Q339.13055 300.79062 338.89618 300.41562Q338.6618 300.04062 338.6618 299.57187Q338.6618 299.16562 338.8493 298.80624Q339.0368 298.44687 339.36493 298.2125Q339.61493 298.04062 340.0368 297.91562Q340.45868 297.79062 340.95868 297.79062Q341.67743 297.79062 342.2243 298.00937Q342.7868 298.2125 343.05243 298.57187Q343.31805 298.93124 343.4118 299.525L342.38055 299.66562Q342.31805 299.19687 341.9743 298.93124Q341.64618 298.65 341.02118 298.65Q340.30243 298.65 339.98993 298.9Q339.67743 299.13437 339.67743 299.4625Q339.67743 299.66562 339.80243 299.82187Q339.94305 299.99374 340.20868 300.10312Q340.36493 300.16562 341.14618 300.36874Q342.27118 300.68124 342.70868 300.86874Q343.14618 301.05624 343.39618 301.41562Q343.64618 301.775 343.64618 302.32187Q343.64618 302.85312 343.33368 303.32187Q343.0368 303.775 342.45868 304.04062Q341.88055 304.29062 341.14618 304.29062Q339.92743 304.29062 339.2868 303.79062Q338.6618 303.275 338.48993 302.29062ZM344.9118 304.15L344.9118 295.55624L345.9743 295.55624L345.9743 300.4625L348.45868 297.93124L349.83368 297.93124L347.44305 300.22812L350.06805 304.15L348.77118 304.15L346.70868 300.9625L345.9743 301.68124L345.9743 304.15L344.9118 304.15ZM353.20868 303.2125L353.36493 304.13437Q352.9118 304.22812 352.56805 304.22812Q351.98993 304.22812 351.67743 304.05624Q351.36493 303.86874 351.2243 303.57187Q351.0993 303.275 351.0993 302.32187L351.0993 298.74374L350.33368 298.74374L350.33368 297.93124L351.0993 297.93124L351.0993 296.38437L352.14618 295.75937L352.14618 297.93124L353.20868 297.93124L353.20868 298.74374L352.14618 298.74374L352.14618 302.38437Q352.14618 302.8375 352.19305 302.9625Q352.25555 303.0875 352.38055 303.16562Q352.50555 303.24374 352.73993 303.24374Q352.92743 303.24374 353.20868 303.2125ZM353.52118 301.04062Q353.52118 299.30624 354.4743 298.47812Q355.27118 297.79062 356.42743 297.79062Q357.70868 297.79062 358.52118 298.63437Q359.3493 299.4625 359.3493 300.94687Q359.3493 302.15 358.98993 302.8375Q358.63055 303.525 357.92743 303.91562Q357.23993 304.29062 356.42743 304.29062Q355.13055 304.29062 354.31805 303.4625Q353.52118 302.61874 353.52118 301.04062ZM354.5993 301.04062Q354.5993 302.22812 355.11493 302.82187Q355.64618 303.41562 356.42743 303.41562Q357.2243 303.41562 357.73993 302.82187Q358.25555 302.22812 358.25555 301.00937Q358.25555 299.85312 357.7243 299.25937Q357.20868 298.66562 356.42743 298.66562Q355.64618 298.66562 355.11493 299.25937Q354.5993 299.8375 354.5993 301.04062ZM360.9118 306.54062L360.9118 297.93124L361.86493 297.93124L361.86493 298.72812Q362.20868 298.25937 362.63055 298.025Q363.06805 297.79062 363.67743 297.79062Q364.4743 297.79062 365.08368 298.19687Q365.69305 298.60312 365.98993 299.35312Q366.30243 300.10312 366.30243 300.99374Q366.30243 301.94687 365.95868 302.7125Q365.63055 303.47812 364.9743 303.88437Q364.31805 304.29062 363.5993 304.29062Q363.06805 304.29062 362.64618 304.07187Q362.2243 303.8375 361.95868 303.50937L361.95868 306.54062L360.9118 306.54062ZM361.86493 301.07187Q361.86493 302.275 362.3493 302.85312Q362.83368 303.41562 363.52118 303.41562Q364.2243 303.41562 364.7243 302.82187Q365.2243 302.22812 365.2243 300.97812Q365.2243 299.79062 364.73993 299.2125Q364.25555 298.61874 363.56805 298.61874Q362.89618 298.61874 362.38055 299.24374Q361.86493 299.86874 361.86493 301.07187ZM370.98993 304.15L370.98993 295.55624L372.13055 295.55624L372.13055 303.13437L376.36493 303.13437L376.36493 304.15L370.98993 304.15ZM377.9118 296.775L377.9118 295.55624L378.9743 295.55624L378.9743 296.775L377.9118 296.775ZM377.9118 304.15L377.9118 297.93124L378.9743 297.93124L378.9743 304.15L377.9118 304.15ZM380.9118 304.15L380.9118 297.93124L381.8493 297.93124L381.8493 298.80624Q382.5368 297.79062 383.83368 297.79062Q384.39618 297.79062 384.86493 297.99374Q385.3493 298.19687 385.58368 298.525Q385.81805 298.85312 385.9118 299.29062Q385.95868 299.5875 385.95868 300.32187L385.95868 304.15L384.9118 304.15L384.9118 300.36874Q384.9118 299.7125 384.7868 299.4Q384.6618 299.0875 384.3493 298.9Q384.0368 298.69687 383.61493 298.69687Q382.94305 298.69687 382.44305 299.13437Q381.95868 299.55624 381.95868 300.74374L381.95868 304.15L380.9118 304.15ZM391.98993 304.15L391.98993 303.22812Q391.25555 304.29062 390.00555 304.29062Q389.45868 304.29062 388.9743 304.0875Q388.50555 303.86874 388.27118 303.55624Q388.0368 303.22812 387.94305 302.75937Q387.88055 302.4625 387.88055 301.775L387.88055 297.93124L388.94305 297.93124L388.94305 301.38437Q388.94305 302.19687 389.00555 302.49374Q389.0993 302.9 389.4118 303.15Q389.73993 303.38437 390.2243 303.38437Q390.69305 303.38437 391.0993 303.15Q391.52118 302.9 391.69305 302.47812Q391.88055 302.05624 391.88055 301.25937L391.88055 297.93124L392.92743 297.93124L392.92743 304.15L391.98993 304.15ZM394.20868 304.15L396.4743 300.91562L394.38055 297.93124L395.69305 297.93124L396.64618 299.38437Q396.9118 299.80624 397.08368 300.0875Q397.33368 299.69687 397.55243 299.4L398.5993 297.93124L399.86493 297.93124L397.70868 300.85312L400.02118 304.15L398.73993 304.15L397.45868 302.2125L397.11493 301.69687L395.4743 304.15L394.20868 304.15Z" fill-rule="nonzero"/><path fill="#000000" d="M444.23544 304.15L444.23544 295.55624L445.9542 295.55624L447.98544 301.63437Q448.2667 302.49374 448.3917 302.91562Q448.53232 302.44687 448.84482 301.54062L450.90732 295.55624L452.43857 295.55624L452.43857 304.15L451.34482 304.15L451.34482 296.9625L448.84482 304.15L447.81357 304.15L445.3292 296.8375L445.3292 304.15L444.23544 304.15ZM458.2042 303.38437Q457.61044 303.88437 457.06357 304.0875Q456.53232 304.29062 455.90732 304.29062Q454.87607 304.29062 454.3292 303.79062Q453.78232 303.29062 453.78232 302.50937Q453.78232 302.05624 453.98544 301.68124Q454.18857 301.29062 454.53232 301.07187Q454.87607 300.8375 455.29794 300.72812Q455.59482 300.63437 456.23544 300.55624Q457.50107 300.41562 458.11044 300.19687Q458.11044 299.97812 458.11044 299.93124Q458.11044 299.275 457.81357 299.00937Q457.40732 298.66562 456.61044 298.66562Q455.87607 298.66562 455.5167 298.93124Q455.15732 299.18124 454.98544 299.8375L453.9542 299.69687Q454.09482 299.04062 454.42294 298.63437Q454.75107 298.22812 455.36044 298.00937Q455.96982 297.79062 456.7667 297.79062Q457.56357 297.79062 458.06357 297.97812Q458.56357 298.16562 458.79794 298.44687Q459.03232 298.72812 459.12607 299.16562Q459.17294 299.43124 459.17294 300.13437L459.17294 301.54062Q459.17294 303.00937 459.23544 303.4Q459.31357 303.79062 459.5167 304.15L458.40732 304.15Q458.25107 303.82187 458.2042 303.38437ZM458.11044 301.025Q457.53232 301.25937 456.3917 301.43124Q455.73544 301.525 455.46982 301.65Q455.2042 301.75937 455.04794 301.97812Q454.90732 302.19687 454.90732 302.47812Q454.90732 302.9 455.21982 303.18124Q455.54794 303.4625 456.15732 303.4625Q456.7667 303.4625 457.23544 303.19687Q457.71982 302.93124 457.93857 302.4625Q458.11044 302.10312 458.11044 301.41562L458.11044 301.025ZM465.2042 301.86874L466.23544 302.00937Q466.06357 303.07187 465.36044 303.68124Q464.65732 304.29062 463.6417 304.29062Q462.36044 304.29062 461.5792 303.4625Q460.81357 302.61874 460.81357 301.05624Q460.81357 300.05624 461.1417 299.30624Q461.48544 298.54062 462.15732 298.16562Q462.84482 297.79062 463.65732 297.79062Q464.65732 297.79062 465.29794 298.30624Q465.9542 298.80624 466.1417 299.75937L465.11044 299.91562Q464.96982 299.29062 464.59482 298.97812Q464.21982 298.65 463.68857 298.65Q462.8917 298.65 462.3917 299.22812Q461.8917 299.79062 461.8917 301.025Q461.8917 302.29062 462.37607 302.85312Q462.86044 303.41562 463.62607 303.41562Q464.25107 303.41562 464.65732 303.04062Q465.0792 302.66562 465.2042 301.86874ZM468.11044 304.15L467.12607 304.15L467.12607 295.55624L468.18857 295.55624L468.18857 298.61874Q468.86044 297.79062 469.8917 297.79062Q470.46982 297.79062 470.96982 298.025Q471.48544 298.24374 471.81357 298.66562Q472.15732 299.0875 472.34482 299.68124Q472.53232 300.275 472.53232 300.94687Q472.53232 302.54062 471.73544 303.41562Q470.93857 304.29062 469.84482 304.29062Q468.73544 304.29062 468.11044 303.36874L468.11044 304.15ZM468.09482 300.99374Q468.09482 302.10312 468.40732 302.60312Q468.90732 303.41562 469.75107 303.41562Q470.43857 303.41562 470.93857 302.82187Q471.4542 302.22812 471.4542 301.025Q471.4542 299.80624 470.96982 299.22812Q470.48544 298.65 469.79794 298.65Q469.11044 298.65 468.59482 299.25937Q468.09482 299.85312 468.09482 300.99374ZM473.75107 301.04062Q473.75107 299.30624 474.7042 298.47812Q475.50107 297.79062 476.65732 297.79062Q477.93857 297.79062 478.75107 298.63437Q479.5792 299.4625 479.5792 300.94687Q479.5792 302.15 479.21982 302.8375Q478.86044 303.525 478.15732 303.91562Q477.46982 304.29062 476.65732 304.29062Q475.36044 304.29062 474.54794 303.4625Q473.75107 302.61874 473.75107 301.04062ZM474.8292 301.04062Q474.8292 302.22812 475.34482 302.82187Q475.87607 303.41562 476.65732 303.41562Q477.4542 303.41562 477.96982 302.82187Q478.48544 302.22812 478.48544 301.00937Q478.48544 299.85312 477.9542 299.25937Q477.43857 298.66562 476.65732 298.66562Q475.87607 298.66562 475.34482 299.25937Q474.8292 299.8375 474.8292 301.04062ZM480.75107 301.04062Q480.75107 299.30624 481.7042 298.47812Q482.50107 297.79062 483.65732 297.79062Q484.93857 297.79062 485.75107 298.63437Q486.5792 299.4625 486.5792 300.94687Q486.5792 302.15 486.21982 302.8375Q485.86044 303.525 485.15732 303.91562Q484.46982 304.29062 483.65732 304.29062Q482.36044 304.29062 481.54794 303.4625Q480.75107 302.61874 480.75107 301.04062ZM481.8292 301.04062Q481.8292 302.22812 482.34482 302.82187Q482.87607 303.41562 483.65732 303.41562Q484.4542 303.41562 484.96982 302.82187Q485.48544 302.22812 485.48544 301.00937Q485.48544 299.85312 484.9542 299.25937Q484.43857 298.66562 483.65732 298.66562Q482.87607 298.66562 482.34482 299.25937Q481.8292 299.8375 481.8292 301.04062ZM488.1417 304.15L488.1417 295.55624L489.2042 295.55624L489.2042 300.4625L491.68857 297.93124L493.06357 297.93124L490.67294 300.22812L493.29794 304.15L492.00107 304.15L489.93857 300.9625L489.2042 301.68124L489.2042 304.15L488.1417 304.15ZM497.2667 304.15L497.2667 295.55624L500.5167 295.55624Q501.36044 295.55624 501.81357 295.63437Q502.4542 295.74374 502.87607 296.04062Q503.31357 296.3375 503.56357 296.86874Q503.8292 297.4 503.8292 298.04062Q503.8292 299.13437 503.12607 299.9Q502.43857 300.65 500.61044 300.65L498.40732 300.65L498.40732 304.15L497.2667 304.15ZM498.40732 299.65L500.62607 299.65Q501.73544 299.65 502.18857 299.24374Q502.65732 298.82187 502.65732 298.07187Q502.65732 297.54062 502.37607 297.16562Q502.11044 296.775 501.67294 296.65Q501.37607 296.57187 500.61044 296.57187L498.40732 296.57187L498.40732 299.65ZM505.12607 304.15L505.12607 297.93124L506.0792 297.93124L506.0792 298.86874Q506.43857 298.2125 506.73544 298.00937Q507.04794 297.79062 507.42294 297.79062Q507.9542 297.79062 508.50107 298.11874L508.1417 299.10312Q507.75107 298.86874 507.37607 298.86874Q507.0167 298.86874 506.73544 299.0875Q506.46982 299.29062 506.36044 299.66562Q506.17294 300.22812 506.17294 300.88437L506.17294 304.15L505.12607 304.15ZM508.75107 301.04062Q508.75107 299.30624 509.7042 298.47812Q510.50107 297.79062 511.65732 297.79062Q512.9386 297.79062 513.7511 298.63437Q514.5792 299.4625 514.5792 300.94687Q514.5792 302.15 514.21985 302.8375Q513.8605 303.525 513.15735 303.91562Q512.46985 304.29062 511.65732 304.29062Q510.36044 304.29062 509.54794 303.4625Q508.75107 302.61874 508.75107 301.04062ZM509.8292 301.04062Q509.8292 302.22812 510.34482 302.82187Q510.87607 303.41562 511.65732 303.41562Q512.4542 303.41562 512.96985 302.82187Q513.4855 302.22812 513.4855 301.00937Q513.4855 299.85312 512.9542 299.25937Q512.4386 298.66562 511.65732 298.66562Q510.87607 298.66562 510.34482 299.25937Q509.8292 299.8375 509.8292 301.04062Z" fill-rule="nonzero"/><path fill="#4285f4" d="M190.5 19.85C190.5 19.297716 190.94771 18.85 191.5 18.85L201.5 18.85C202.05229 18.85 202.5 19.297716 202.5 19.85L202.5 29.85C202.5 30.402285 202.05229 30.85 201.5 30.85L191.5 30.85C190.94771 30.85 190.5 30.402285 190.5 29.85Z" fill-rule="nonzero"/><path fill="#1a1a1a" d="M212.92188 28.85L210.64062 20.25625L211.8125 20.25625L213.125 25.896875Q213.32812 26.771875 213.48438 27.646875Q213.8125 26.271875 213.875 26.053125L215.5 20.25625L216.875 20.25625L218.10938 24.6Q218.5625 26.225 218.78125 27.646875Q218.9375 26.834375 219.20312 25.771875L220.54688 20.25625L221.6875 20.25625L219.34375 28.85L218.23438 28.85L216.4375 22.303125Q216.20312 21.490625 216.15625 21.303125Q216.03125 21.88125 215.90625 22.303125L214.09375 28.85L212.92188 28.85ZM221.48438 28.85L224.78125 20.25625L226.0 20.25625L229.51562 28.85L228.23438 28.85L227.21875 26.240625L223.64062 26.240625L222.6875 28.85L221.48438 28.85ZM223.96875 25.31875L226.875 25.31875L225.98438 22.94375Q225.5625 21.865625 225.375 21.1625Q225.20312 21.990625 224.90625 22.803125L223.96875 25.31875ZM230.04688 26.084375L231.10938 25.990625Q231.1875 26.646875 231.46875 27.053125Q231.75 27.459375 232.32812 27.725Q232.92188 27.975 233.65625 27.975Q234.29688 27.975 234.79688 27.7875Q235.29688 27.584375 235.53125 27.25625Q235.78125 26.9125 235.78125 26.521875Q235.78125 26.115625 235.54688 25.81875Q235.3125 25.50625 234.78125 25.303125Q234.42188 25.1625 233.23438 24.88125Q232.0625 24.6 231.59375 24.35Q230.96875 24.021875 230.67188 23.553125Q230.375 23.06875 230.375 22.475Q230.375 21.834375 230.73438 21.271875Q231.10938 20.69375 231.8125 20.4125Q232.53125 20.115625 233.39062 20.115625Q234.34375 20.115625 235.07812 20.428125Q235.8125 20.725 236.20312 21.334375Q236.59375 21.928125 236.625 22.678125L235.53125 22.75625Q235.4375 21.94375 234.92188 21.5375Q234.42188 21.115625 233.4375 21.115625Q232.40625 21.115625 231.9375 21.490625Q231.46875 21.865625 231.46875 22.396875Q231.46875 22.865625 231.79688 23.1625Q232.125 23.459375 233.5 23.771875Q234.89062 24.084375 235.40625 24.31875Q236.15625 24.678125 236.51562 25.209375Q236.875 25.725 236.875 26.428125Q236.875 27.115625 236.48438 27.725Q236.09375 28.31875 235.35938 28.6625Q234.625 28.990625 233.70312 28.990625Q232.53125 28.990625 231.73438 28.6625Q230.95312 28.31875 230.5 27.63125Q230.0625 26.94375 230.04688 26.084375ZM238.39062 28.85L238.39062 20.25625L240.10938 20.25625L242.14062 26.334375Q242.42188 27.19375 242.54688 27.615625Q242.6875 27.146875 243.0 26.240625L245.0625 20.25625L246.59375 20.25625L246.59375 28.85L245.5 28.85L245.5 21.6625L243.0 28.85L241.96875 28.85L239.48438 21.5375L239.48438 28.85L238.39062 28.85Z" fill-rule="nonzero"/><path fill="#ea4335" d="M263.5 19.85C263.5 19.297716 263.94772 18.85 264.5 18.85L274.5 18.85C275.05228 18.85 275.5 19.297716 275.5 19.85L275.5 29.85C275.5 30.402285 275.05228 30.85 274.5 30.85L264.5 30.85C263.94772 30.85 263.5 30.402285 263.5 29.85Z" fill-rule="nonzero"/><path fill="#1a1a1a" d="M285.92188 28.85L283.64062 20.25625L284.8125 20.25625L286.125 25.896875Q286.32812 26.771875 286.48438 27.646875Q286.8125 26.271875 286.875 26.053125L288.5 20.25625L289.875 20.25625L291.10938 24.6Q291.5625 26.225 291.78125 27.646875Q291.9375 26.834375 292.20312 25.771875L293.54688 20.25625L294.6875 20.25625L292.34375 28.85L291.23438 28.85L289.4375 22.303125Q289.20312 21.490625 289.15625 21.303125Q289.03125 21.88125 288.90625 22.303125L287.09375 28.85L285.92188 28.85ZM299.54688 26.85L300.64062 26.975Q300.39062 27.928125 299.6875 28.459375Q298.98438 28.990625 297.90625 28.990625Q296.54688 28.990625 295.73438 28.146875Q294.9375 27.303125 294.9375 25.7875Q294.9375 24.225 295.75 23.365625Q296.5625 22.490625 297.84375 22.490625Q299.09375 22.490625 299.875 23.334375Q300.67188 24.178125 300.67188 25.725Q300.67188 25.81875 300.67188 26.00625L296.03125 26.00625Q296.09375 27.0375 296.60938 27.584375Q297.125 28.115625 297.90625 28.115625Q298.48438 28.115625 298.89062 27.81875Q299.3125 27.50625 299.54688 26.85ZM296.09375 25.146875L299.5625 25.146875Q299.5 24.35 299.17188 23.959375Q298.65625 23.35 297.85938 23.35Q297.125 23.35 296.625 23.834375Q296.14062 24.31875 296.09375 25.146875ZM303.26562 28.85L302.28125 28.85L302.28125 20.25625L303.34375 20.25625L303.34375 23.31875Q304.01562 22.490625 305.04688 22.490625Q305.625 22.490625 306.125 22.725Q306.64062 22.94375 306.96875 23.365625Q307.3125 23.7875 307.5 24.38125Q307.6875 24.975 307.6875 25.646875Q307.6875 27.240625 306.89062 28.115625Q306.09375 28.990625 305.0 28.990625Q303.89062 28.990625 303.26562 28.06875L303.26562 28.85ZM303.25 25.69375Q303.25 26.803125 303.5625 27.303125Q304.0625 28.115625 304.90625 28.115625Q305.59375 28.115625 306.09375 27.521875Q306.60938 26.928125 306.60938 25.725Q306.60938 24.50625 306.125 23.928125Q305.64062 23.35 304.95312 23.35Q304.26562 23.35 303.75 23.959375Q303.25 24.553125 303.25 25.69375ZM313.45312 25.475L313.45312 24.475L317.07812 24.459375L317.07812 27.646875Q316.25 28.31875 315.35938 28.6625Q314.46875 28.990625 313.53125 28.990625Q312.26562 28.990625 311.21875 28.459375Q310.1875 27.9125 309.65625 26.896875Q309.14062 25.865625 309.14062 24.6Q309.14062 23.334375 309.65625 22.25625Q310.1875 21.1625 311.17188 20.646875Q312.15625 20.115625 313.4375 20.115625Q314.375 20.115625 315.125 20.4125Q315.875 20.709375 316.29688 21.25625Q316.73438 21.7875 316.95312 22.6625L315.9375 22.94375Q315.73438 22.2875 315.4375 21.9125Q315.15625 21.5375 314.625 21.31875Q314.09375 21.084375 313.45312 21.084375Q312.67188 21.084375 312.09375 21.31875Q311.53125 21.553125 311.17188 21.94375Q310.82812 22.334375 310.64062 22.803125Q310.3125 23.6 310.3125 24.521875Q310.3125 25.678125 310.70312 26.459375Q311.10938 27.225 311.85938 27.6Q312.60938 27.975 313.46875 27.975Q314.20312 27.975 314.90625 27.69375Q315.60938 27.396875 315.96875 27.084375L315.96875 25.475L313.45312 25.475ZM318.375 28.85L318.375 20.25625L319.51562 20.25625L319.51562 27.834375L323.75 27.834375L323.75 28.85L318.375 28.85Z" fill-rule="nonzero"/><path fill="#fbbc04" d="M340.5 19.85C340.5 19.297716 340.94772 18.85 341.5 18.85L351.5 18.85C352.05228 18.85 352.5 19.297716 352.5 19.85L352.5 29.85C352.5 30.402285 352.05228 30.85 351.5 30.85L341.5 30.85C340.94772 30.85 340.5 30.402285 340.5 29.85Z" fill-rule="nonzero"/><path fill="#1a1a1a" d="M367.5625 25.834375L368.6875 26.13125Q368.32812 27.521875 367.40625 28.25625Q366.48438 28.990625 365.14062 28.990625Q363.75 28.990625 362.875 28.428125Q362.0 27.865625 361.54688 26.803125Q361.09375 25.725 361.09375 24.490625Q361.09375 23.146875 361.60938 22.146875Q362.125 21.146875 363.0625 20.63125Q364.01562 20.115625 365.15625 20.115625Q366.4375 20.115625 367.3125 20.771875Q368.20312 21.428125 368.54688 22.615625L367.42188 22.88125Q367.125 21.94375 366.54688 21.521875Q365.98438 21.084375 365.125 21.084375Q364.14062 21.084375 363.46875 21.56875Q362.8125 22.0375 362.53125 22.834375Q362.26562 23.63125 362.26562 24.490625Q362.26562 25.584375 362.57812 26.396875Q362.90625 27.209375 363.57812 27.615625Q364.25 28.021875 365.04688 28.021875Q366.0 28.021875 366.65625 27.475Q367.32812 26.928125 367.5625 25.834375ZM370.42188 28.85L370.42188 20.25625L373.67188 20.25625Q374.51562 20.25625 374.96875 20.334375Q375.60938 20.44375 376.03125 20.740625Q376.46875 21.0375 376.71875 21.56875Q376.98438 22.1 376.98438 22.740625Q376.98438 23.834375 376.28125 24.6Q375.59375 25.35 373.76562 25.35L371.5625 25.35L371.5625 28.85L370.42188 28.85ZM371.5625 24.35L373.78125 24.35Q374.89062 24.35 375.34375 23.94375Q375.8125 23.521875 375.8125 22.771875Q375.8125 22.240625 375.53125 21.865625Q375.26562 21.475 374.82812 21.35Q374.53125 21.271875 373.76562 21.271875L371.5625 21.271875L371.5625 24.35ZM384.0625 20.25625L385.20312 20.25625L385.20312 25.225Q385.20312 26.521875 384.90625 27.2875Q384.60938 28.0375 383.84375 28.521875Q383.07812 28.990625 381.84375 28.990625Q380.64062 28.990625 379.85938 28.584375Q379.09375 28.1625 378.76562 27.38125Q378.4375 26.584375 378.4375 25.225L378.4375 20.25625L379.57812 20.25625L379.57812 25.209375Q379.57812 26.334375 379.78125 26.865625Q380.0 27.396875 380.5 27.69375Q381.01562 27.975 381.75 27.975Q383.0 27.975 383.53125 27.4125Q384.0625 26.834375 384.0625 25.209375L384.0625 20.25625Z" fill-rule="nonzero"/></svg>