<svg version="1.1" viewBox="0.0 0.0 577.0 357.0" fill="none" stroke="none" stroke-linecap="square" stroke-miterlimit="10" width="577" height="357" xmlns:xlink="http://www.w3.org/1999/xlink" xmlns="http://www.w3.org/2000/svg"><path fill="#ffffff" d="M0 0L577.0 0L577.0 357.0L0 357.0L0 0Z" fill-rule="nonzero"/><path stroke="#333333" stroke-width="1.0" stroke-linecap="butt" d="M51.5 287.5L559.5 287.5" fill-rule="nonzero"/><path stroke="#cccccc" stroke-width="1.0" stroke-linecap="butt" d="M51.5 239.5L559.5 239.5" fill-rule="nonzero"/><path stroke="#cccccc" stroke-width="1.0" stroke-linecap="butt" d="M51.5 192.5L559.5 192.5" fill-rule="nonzero"/><path stroke="#cccccc" stroke-width="1.0" stroke-linecap="butt" d="M51.5 145.5L559.5 145.5" fill-rule="nonzero"/><path stroke="#cccccc" stroke-width="1.0" stroke-linecap="butt" d="M51.5 98.5L559.5 98.5" fill-rule="nonzero"/><path stroke="#cccccc" stroke-width="1.0" stroke-linecap="butt" d="M51.5 50.5L559.5 50.5" fill-rule="nonzero"/><clipPath id="id_0"><path d="M51.85 50.75L559.15 50.75L559.15 287.15L51.85 287.15L51.85 50.75Z" clip-rule="nonzero"/></clipPath><path stroke="#000000" stroke-width="0.0" stroke-linecap="butt" stroke-opacity="0.0" clip-path="url(#id_0)" d="M118.0 287.0L94.0 287.0L94.0 261.0C94.0 259.89542 94.89543 259.0 96.0 259.0L116.0 259.0C117.10457 259.0 118.0 259.89542 118.0 261.0Z" fill-rule="nonzero"/><path fill="#4285f4" clip-path="url(#id_0)" d="M118.0 287.0L94.0 287.0L94.0 261.0C94.0 259.89542 94.89543 259.0 96.0 259.0L116.0 259.0C117.10457 259.0 118.0 259.89542 118.0 261.0Z" fill-rule="nonzero"/><path stroke="#000000" stroke-width="0.0" stroke-linecap="butt" stroke-opacity="0.0" clip-path="url(#id_0)" d="M234.0 287.0L210.0 287.0L210.0 263.0C210.0 261.89542 210.89543 261.0 212.0 261.0L232.0 261.0C233.10457 261.0 234.0 261.89542 234.0 263.0Z" fill-rule="nonzero"/><path fill="#4285f4" clip-path="url(#id_0)" d="M234.0 287.0L210.0 287.0L210.0 263.0C210.0 261.89542 210.89543 261.0 212.0 261.0L232.0 261.0C233.10457 261.0 234.0 261.89542 234.0 263.0Z" fill-rule="nonzero"/><path stroke="#000000" stroke-width="0.0" stroke-linecap="butt" stroke-opacity="0.0" clip-path="url(#id_0)" d="M351.0 287.0L327.0 287.0L327.0 272.0C327.0 270.89542 327.89542 270.0 329.0 270.0L349.0 270.0C350.10458 270.0 351.0 270.89542 351.0 272.0Z" fill-rule="nonzero"/><path fill="#4285f4" clip-path="url(#id_0)" d="M351.0 287.0L327.0 287.0L327.0 272.0C327.0 270.89542 327.89542 270.0 329.0 270.0L349.0 270.0C350.10458 270.0 351.0 270.89542 351.0 272.0Z" fill-rule="nonzero"/><path stroke="#000000" stroke-width="0.0" stroke-linecap="butt" stroke-opacity="0.0" clip-path="url(#id_0)" d="M143.0 287.0L119.0 287.0L119.0 285.0C119.0 283.89542 119.89543 283.0 121.0 283.0L141.0 283.0C142.10457 283.0 143.0 283.89542 143.0 285.0Z" fill-rule="nonzero"/><path fill="#ea4335" clip-path="url(#id_0)" d="M143.0 287.0L119.0 287.0L119.0 285.0C119.0 283.89542 119.89543 283.0 121.0 283.0L141.0 283.0C142.10457 283.0 143.0 283.89542 143.0 285.0Z" fill-rule="nonzero"/><path stroke="#000000" stroke-width="0.0" stroke-linecap="butt" stroke-opacity="0.0" clip-path="url(#id_0)" d="M259.0 287.0L235.0 287.0L235.0 285.5C235.0 284.67157 235.67157 284.0 236.5 284.0L257.5 284.0C258.32843 284.0 259.0 284.67157 259.0 285.5Z" fill-rule="nonzero"/><path fill="#ea4335" clip-path="url(#id_0)" d="M259.0 287.0L235.0 287.0L235.0 285.5C235.0 284.67157 235.67157 284.0 236.5 284.0L257.5 284.0C258.32843 284.0 259.0 284.67157 259.0 285.5Z" fill-rule="nonzero"/><path stroke="#000000" stroke-width="0.0" stroke-linecap="butt" stroke-opacity="0.0" clip-path="url(#id_0)" d="M376.0 287.0L352.0 287.0L352.0 285.5C352.0 284.67157 352.67157 284.0 353.5 284.0L374.5 284.0C375.32843 284.0 376.0 284.67157 376.0 285.5Z" fill-rule="nonzero"/><path fill="#ea4335" clip-path="url(#id_0)" d="M376.0 287.0L352.0 287.0L352.0 285.5C352.0 284.67157 352.67157 284.0 353.5 284.0L374.5 284.0C375.32843 284.0 376.0 284.67157 376.0 285.5Z" fill-rule="nonzero"/><path stroke="#000000" stroke-width="0.0" stroke-linecap="butt" stroke-opacity="0.0" clip-path="url(#id_0)" d="M168.0 287.0L144.0 287.0L144.0 111.0C144.0 109.89543 144.89543 109.0 146.0 109.0L166.0 109.0C167.10457 109.0 168.0 109.89543 168.0 111.0Z" fill-rule="nonzero"/><path fill="#fbbc04" clip-path="url(#id_0)" d="M168.0 287.0L144.0 287.0L144.0 111.0C144.0 109.89543 144.89543 109.0 146.0 109.0L166.0 109.0C167.10457 109.0 168.0 109.89543 168.0 111.0Z" fill-rule="nonzero"/><path stroke="#000000" stroke-width="0.0" stroke-linecap="butt" stroke-opacity="0.0" clip-path="url(#id_0)" d="M284.0 287.0L260.0 287.0L260.0 209.0C260.0 207.89543 260.89542 207.0 262.0 207.0L282.0 207.0C283.10458 207.0 284.0 207.89543 284.0 209.0Z" fill-rule="nonzero"/><path fill="#fbbc04" clip-path="url(#id_0)" d="M284.0 287.0L260.0 287.0L260.0 209.0C260.0 207.89543 260.89542 207.0 262.0 207.0L282.0 207.0C283.10458 207.0 284.0 207.89543 284.0 209.0Z" fill-rule="nonzero"/><path stroke="#000000" stroke-width="0.0" stroke-linecap="butt" stroke-opacity="0.0" clip-path="url(#id_0)" d="M401.0 287.0L377.0 287.0L377.0 91.0C377.0 89.89543 377.89542 89.0 379.0 89.0L399.0 89.0C400.10458 89.0 401.0 89.89543 401.0 91.0Z" fill-rule="nonzero"/><path fill="#fbbc04" clip-path="url(#id_0)" d="M401.0 287.0L377.0 287.0L377.0 91.0C377.0 89.89543 377.89542 89.0 379.0 89.0L399.0 89.0C400.10458 89.0 401.0 89.89543 401.0 91.0Z" fill-rule="nonzero"/><path stroke="#ffffff" stroke-width="3.0" stroke-linejoin="round" stroke-linecap="round" d="M94.84375 243.33044L93.703125 243.33044L93.703125 236.0492Q93.28125 236.43982 92.609375 236.84607Q91.953125 237.2367 91.421875 237.4242L91.421875 236.31482Q92.375 235.87732 93.09375 235.2367Q93.8125 234.59607 94.109375 233.9867L94.84375 233.9867L94.84375 243.33044ZM101.203125 243.33044L101.203125 241.09607L97.171875 241.09607L97.171875 240.0492L101.40625 234.01794L102.34375 234.01794L102.34375 240.0492L103.609375 240.0492L103.609375 241.09607L102.34375 241.09607L102.34375 243.33044L101.203125 243.33044ZM101.203125 240.0492L101.203125 235.8617L98.28125 240.0492L101.203125 240.0492ZM104.609375 235.2367L104.609375 234.14294L110.640625 234.14294L110.640625 235.03357Q109.75 235.9867 108.875 237.5492Q108.0 239.1117 107.53125 240.76794Q107.1875 241.93982 107.09375 243.33044L105.921875 243.33044Q105.9375 242.2367 106.34375 240.68982Q106.765625 239.12732 107.53125 237.68982Q108.296875 236.2367 109.171875 235.2367L104.609375 235.2367ZM112.1875 243.33044L112.1875 242.03357L113.484375 242.03357L113.484375 243.33044L112.1875 243.33044ZM119.84375 243.33044L118.703125 243.33044L118.703125 236.0492Q118.28125 236.43982 117.609375 236.84607Q116.953125 237.2367 116.421875 237.4242L116.421875 236.31482Q117.375 235.87732 118.09375 235.2367Q118.8125 234.59607 119.109375 233.9867L119.84375 233.9867L119.84375 243.33044Z" fill-rule="nonzero"/><path fill="#000000" d="M94.84375 243.33044L93.703125 243.33044L93.703125 236.0492Q93.28125 236.43982 92.609375 236.84607Q91.953125 237.2367 91.421875 237.4242L91.421875 236.31482Q92.375 235.87732 93.09375 235.2367Q93.8125 234.59607 94.109375 233.9867L94.84375 233.9867L94.84375 243.33044ZM101.203125 243.33044L101.203125 241.09607L97.171875 241.09607L97.171875 240.0492L101.40625 234.01794L102.34375 234.01794L102.34375 240.0492L103.609375 240.0492L103.609375 241.09607L102.34375 241.09607L102.34375 243.33044L101.203125 243.33044ZM101.203125 240.0492L101.203125 235.8617L98.28125 240.0492L101.203125 240.0492ZM104.609375 235.2367L104.609375 234.14294L110.640625 234.14294L110.640625 235.03357Q109.75 235.9867 108.875 237.5492Q108.0 239.1117 107.53125 240.76794Q107.1875 241.93982 107.09375 243.33044L105.921875 243.33044Q105.9375 242.2367 106.34375 240.68982Q106.765625 239.12732 107.53125 237.68982Q108.296875 236.2367 109.171875 235.2367L104.609375 235.2367ZM112.1875 243.33044L112.1875 242.03357L113.484375 242.03357L113.484375 243.33044L112.1875 243.33044ZM119.84375 243.33044L118.703125 243.33044L118.703125 236.0492Q118.28125 236.43982 117.609375 236.84607Q116.953125 237.2367 116.421875 237.4242L116.421875 236.31482Q117.375 235.87732 118.09375 235.2367Q118.8125 234.59607 119.109375 233.9867L119.84375 233.9867L119.84375 243.33044Z" fill-rule="nonzero"/><path stroke="#ffffff" stroke-width="3.0" stroke-linejoin="round" stroke-linecap="round" d="M216.34375 244.6732L215.20312 244.6732L215.20312 237.39195Q214.78125 237.78258 214.10938 238.18883Q213.45312 238.57945 212.92188 238.76695L212.92188 237.65758Q213.875 237.22008 214.59375 236.57945Q215.3125 235.93883 215.60938 235.32945L216.34375 235.32945L216.34375 244.6732ZM222.70312 244.6732L222.70312 242.43883L218.67188 242.43883L218.67188 241.39195L222.90625 235.3607L223.84375 235.3607L223.84375 241.39195L225.10938 241.39195L225.10938 242.43883L223.84375 242.43883L223.84375 244.6732L222.70312 244.6732ZM222.70312 241.39195L222.70312 237.20445L219.78125 241.39195L222.70312 241.39195ZM226.04688 240.07945Q226.04688 238.43883 226.375 237.43883Q226.71875 236.4232 227.39062 235.87633Q228.0625 235.32945 229.07812 235.32945Q229.82812 235.32945 230.39062 235.64195Q230.95312 235.93883 231.3125 236.50133Q231.6875 237.06383 231.89062 237.89195Q232.10938 238.70445 232.10938 240.07945Q232.10938 241.72008 231.76562 242.7357Q231.4375 243.7357 230.76562 244.28258Q230.09375 244.82945 229.07812 244.82945Q227.73438 244.82945 226.95312 243.8607Q226.04688 242.70445 226.04688 240.07945ZM227.21875 240.07945Q227.21875 242.37633 227.75 243.14195Q228.28125 243.89195 229.07812 243.89195Q229.85938 243.89195 230.39062 243.14195Q230.9375 242.37633 230.9375 240.07945Q230.9375 237.78258 230.39062 237.03258Q229.85938 236.28258 229.0625 236.28258Q228.28125 236.28258 227.79688 236.93883Q227.21875 237.7982 227.21875 240.07945Z" fill-rule="nonzero"/><path fill="#000000" d="M216.34375 244.6732L215.20312 244.6732L215.20312 237.39195Q214.78125 237.78258 214.10938 238.18883Q213.45312 238.57945 212.92188 238.76695L212.92188 237.65758Q213.875 237.22008 214.59375 236.57945Q215.3125 235.93883 215.60938 235.32945L216.34375 235.32945L216.34375 244.6732ZM222.70312 244.6732L222.70312 242.43883L218.67188 242.43883L218.67188 241.39195L222.90625 235.3607L223.84375 235.3607L223.84375 241.39195L225.10938 241.39195L225.10938 242.43883L223.84375 242.43883L223.84375 244.6732L222.70312 244.6732ZM222.70312 241.39195L222.70312 237.20445L219.78125 241.39195L222.70312 241.39195ZM226.04688 240.07945Q226.04688 238.43883 226.375 237.43883Q226.71875 236.4232 227.39062 235.87633Q228.0625 235.32945 229.07812 235.32945Q229.82812 235.32945 230.39062 235.64195Q230.95312 235.93883 231.3125 236.50133Q231.6875 237.06383 231.89062 237.89195Q232.10938 238.70445 232.10938 240.07945Q232.10938 241.72008 231.76562 242.7357Q231.4375 243.7357 230.76562 244.28258Q230.09375 244.82945 229.07812 244.82945Q227.73438 244.82945 226.95312 243.8607Q226.04688 242.70445 226.04688 240.07945ZM227.21875 240.07945Q227.21875 242.37633 227.75 243.14195Q228.28125 243.89195 229.07812 243.89195Q229.85938 243.89195 230.39062 243.14195Q230.9375 242.37633 230.9375 240.07945Q230.9375 237.78258 230.39062 237.03258Q229.85938 236.28258 229.0625 236.28258Q228.28125 236.28258 227.79688 236.93883Q227.21875 237.7982 227.21875 240.07945Z" fill-rule="nonzero"/><path stroke="#ffffff" stroke-width="3.0" stroke-linejoin="round" stroke-linecap="round" d="M327.21875 251.68927L328.3125 251.59552Q328.45312 252.36115 328.84375 252.72052Q329.23438 253.06427 329.85938 253.06427Q330.375 253.06427 330.76562 252.8299Q331.17188 252.5799 331.42188 252.18927Q331.6875 251.78302 331.84375 251.09552Q332.01562 250.40802 332.01562 249.68927Q332.01562 249.61115 332.01562 249.47052Q331.67188 250.0174 331.07812 250.36115Q330.48438 250.68927 329.79688 250.68927Q328.64062 250.68927 327.84375 249.86115Q327.04688 249.0174 327.04688 247.6424Q327.04688 246.22052 327.875 245.36115Q328.70312 244.50177 329.96875 244.50177Q330.875 244.50177 331.625 245.00177Q332.375 245.48615 332.76562 246.3924Q333.15625 247.28302 333.15625 249.00177Q333.15625 250.78302 332.76562 251.84552Q332.39062 252.8924 331.625 253.4549Q330.85938 254.00177 329.82812 254.00177Q328.73438 254.00177 328.03125 253.40802Q327.34375 252.79865 327.21875 251.68927ZM331.89062 247.5799Q331.89062 246.59552 331.35938 246.03302Q330.84375 245.4549 330.10938 245.4549Q329.34375 245.4549 328.78125 246.0799Q328.21875 246.68927 328.21875 247.68927Q328.21875 248.56427 328.75 249.12677Q329.28125 249.67365 330.07812 249.67365Q330.875 249.67365 331.375 249.12677Q331.89062 248.56427 331.89062 247.5799ZM338.34375 253.84552L337.20312 253.84552L337.20312 246.56427Q336.78125 246.9549 336.10938 247.36115Q335.45312 247.75177 334.92188 247.93927L334.92188 246.8299Q335.875 246.3924 336.59375 245.75177Q337.3125 245.11115 337.60938 244.50177L338.34375 244.50177L338.34375 253.84552ZM341.6875 253.84552L341.6875 252.54865L342.98438 252.54865L342.98438 253.84552L341.6875 253.84552ZM345.04688 251.40802L346.23438 251.29865Q346.375 252.18927 346.85938 252.62677Q347.34375 253.06427 348.03125 253.06427Q348.85938 253.06427 349.42188 252.43927Q350.0 251.81427 350.0 250.79865Q350.0 249.81427 349.45312 249.25177Q348.90625 248.68927 348.01562 248.68927Q347.45312 248.68927 347.0 248.93927Q346.5625 249.18927 346.3125 249.5799L345.25 249.43927L346.14062 244.67365L350.76562 244.67365L350.76562 245.75177L347.0625 245.75177L346.5625 248.25177Q347.39062 247.67365 348.3125 247.67365Q349.53125 247.67365 350.35938 248.5174Q351.20312 249.36115 351.20312 250.68927Q351.20312 251.9549 350.46875 252.87677Q349.57812 254.00177 348.03125 254.00177Q346.76562 254.00177 345.95312 253.29865Q345.15625 252.5799 345.04688 251.40802Z" fill-rule="nonzero"/><path fill="#000000" d="M327.21875 251.68927L328.3125 251.59552Q328.45312 252.36115 328.84375 252.72052Q329.23438 253.06427 329.85938 253.06427Q330.375 253.06427 330.76562 252.8299Q331.17188 252.5799 331.42188 252.18927Q331.6875 251.78302 331.84375 251.09552Q332.01562 250.40802 332.01562 249.68927Q332.01562 249.61115 332.01562 249.47052Q331.67188 250.0174 331.07812 250.36115Q330.48438 250.68927 329.79688 250.68927Q328.64062 250.68927 327.84375 249.86115Q327.04688 249.0174 327.04688 247.6424Q327.04688 246.22052 327.875 245.36115Q328.70312 244.50177 329.96875 244.50177Q330.875 244.50177 331.625 245.00177Q332.375 245.48615 332.76562 246.3924Q333.15625 247.28302 333.15625 249.00177Q333.15625 250.78302 332.76562 251.84552Q332.39062 252.8924 331.625 253.4549Q330.85938 254.00177 329.82812 254.00177Q328.73438 254.00177 328.03125 253.40802Q327.34375 252.79865 327.21875 251.68927ZM331.89062 247.5799Q331.89062 246.59552 331.35938 246.03302Q330.84375 245.4549 330.10938 245.4549Q329.34375 245.4549 328.78125 246.0799Q328.21875 246.68927 328.21875 247.68927Q328.21875 248.56427 328.75 249.12677Q329.28125 249.67365 330.07812 249.67365Q330.875 249.67365 331.375 249.12677Q331.89062 248.56427 331.89062 247.5799ZM338.34375 253.84552L337.20312 253.84552L337.20312 246.56427Q336.78125 246.9549 336.10938 247.36115Q335.45312 247.75177 334.92188 247.93927L334.92188 246.8299Q335.875 246.3924 336.59375 245.75177Q337.3125 245.11115 337.60938 244.50177L338.34375 244.50177L338.34375 253.84552ZM341.6875 253.84552L341.6875 252.54865L342.98438 252.54865L342.98438 253.84552L341.6875 253.84552ZM345.04688 251.40802L346.23438 251.29865Q346.375 252.18927 346.85938 252.62677Q347.34375 253.06427 348.03125 253.06427Q348.85938 253.06427 349.42188 252.43927Q350.0 251.81427 350.0 250.79865Q350.0 249.81427 349.45312 249.25177Q348.90625 248.68927 348.01562 248.68927Q347.45312 248.68927 347.0 248.93927Q346.5625 249.18927 346.3125 249.5799L345.25 249.43927L346.14062 244.67365L350.76562 244.67365L350.76562 245.75177L347.0625 245.75177L346.5625 248.25177Q347.39062 247.67365 348.3125 247.67365Q349.53125 247.67365 350.35938 248.5174Q351.20312 249.36115 351.20312 250.68927Q351.20312 251.9549 350.46875 252.87677Q349.57812 254.00177 348.03125 254.00177Q346.76562 254.00177 345.95312 253.29865Q345.15625 252.5799 345.04688 251.40802Z" fill-rule="nonzero"/><path stroke="#ffffff" stroke-width="3.0" stroke-linejoin="round" stroke-linecap="round" d="M125.046875 266.2171L125.046875 267.31085L118.890625 267.31085Q118.875 266.9046 119.03125 266.51398Q119.265625 265.88898 119.78125 265.2796Q120.296875 264.67023 121.28125 263.87335Q122.796875 262.62335 123.328125 261.9046Q123.859375 261.17023 123.859375 260.5296Q123.859375 259.8421 123.375 259.38898Q122.890625 258.92023 122.109375 258.92023Q121.28125 258.92023 120.78125 259.42023Q120.296875 259.9046 120.28125 260.7796L119.109375 260.6546Q119.234375 259.3421 120.015625 258.6546Q120.796875 257.9671 122.125 257.9671Q123.46875 257.9671 124.25 258.7171Q125.03125 259.45148 125.03125 260.54523Q125.03125 261.10773 124.796875 261.6546Q124.578125 262.18585 124.046875 262.79523Q123.515625 263.38898 122.28125 264.42023Q121.25 265.2796 120.953125 265.5921Q120.671875 265.9046 120.484375 266.2171L125.046875 266.2171ZM126.046875 262.7171Q126.046875 261.07648 126.375 260.07648Q126.71875 259.06085 127.390625 258.51398Q128.0625 257.9671 129.07812 257.9671Q129.82812 257.9671 130.39062 258.2796Q130.95312 258.57648 131.3125 259.13898Q131.6875 259.70148 131.89062 260.5296Q132.10938 261.3421 132.10938 262.7171Q132.10938 264.35773 131.76562 265.37335Q131.4375 266.37335 130.76562 266.92023Q130.09375 267.4671 129.07812 267.4671Q127.734375 267.4671 126.953125 266.49835Q126.046875 265.3421 126.046875 262.7171ZM127.21875 262.7171Q127.21875 265.01398 127.75 265.7796Q128.28125 266.5296 129.07812 266.5296Q129.85938 266.5296 130.39062 265.7796Q130.9375 265.01398 130.9375 262.7171Q130.9375 260.42023 130.39062 259.67023Q129.85938 258.92023 129.0625 258.92023Q128.28125 258.92023 127.796875 259.57648Q127.21875 260.43585 127.21875 262.7171ZM133.6875 267.31085L133.6875 266.01398L134.98438 266.01398L134.98438 267.31085L133.6875 267.31085ZM137.04688 264.85773L138.1875 264.70148Q138.39062 265.67023 138.85938 266.10773Q139.32812 266.5296 140.01562 266.5296Q140.8125 266.5296 141.35938 265.98273Q141.92188 265.42023 141.92188 264.5921Q141.92188 263.79523 141.40625 263.29523Q140.90625 262.7796 140.10938 262.7796Q139.78125 262.7796 139.29688 262.9046L139.42188 261.9046Q139.54688 261.92023 139.60938 261.92023Q140.34375 261.92023 140.92188 261.54523Q141.51562 261.1546 141.51562 260.35773Q141.51562 259.73273 141.07812 259.32648Q140.65625 258.9046 139.98438 258.9046Q139.3125 258.9046 138.875 259.32648Q138.4375 259.74835 138.29688 260.57648L137.15625 260.37335Q137.375 259.23273 138.10938 258.60773Q138.85938 257.9671 139.95312 257.9671Q140.71875 257.9671 141.35938 258.29523Q142.0 258.62335 142.34375 259.18585Q142.6875 259.74835 142.6875 260.38898Q142.6875 260.98273 142.35938 261.48273Q142.03125 261.98273 141.40625 262.26398Q142.21875 262.4671 142.67188 263.06085Q143.14062 263.6546 143.14062 264.56085Q143.14062 265.7796 142.25 266.63898Q141.35938 267.48273 140.0 267.48273Q138.78125 267.48273 137.96875 266.74835Q137.15625 266.01398 137.04688 264.85773Z" fill-rule="nonzero"/><path fill="#000000" d="M125.046875 266.2171L125.046875 267.31085L118.890625 267.31085Q118.875 266.9046 119.03125 266.51398Q119.265625 265.88898 119.78125 265.2796Q120.296875 264.67023 121.28125 263.87335Q122.796875 262.62335 123.328125 261.9046Q123.859375 261.17023 123.859375 260.5296Q123.859375 259.8421 123.375 259.38898Q122.890625 258.92023 122.109375 258.92023Q121.28125 258.92023 120.78125 259.42023Q120.296875 259.9046 120.28125 260.7796L119.109375 260.6546Q119.234375 259.3421 120.015625 258.6546Q120.796875 257.9671 122.125 257.9671Q123.46875 257.9671 124.25 258.7171Q125.03125 259.45148 125.03125 260.54523Q125.03125 261.10773 124.796875 261.6546Q124.578125 262.18585 124.046875 262.79523Q123.515625 263.38898 122.28125 264.42023Q121.25 265.2796 120.953125 265.5921Q120.671875 265.9046 120.484375 266.2171L125.046875 266.2171ZM126.046875 262.7171Q126.046875 261.07648 126.375 260.07648Q126.71875 259.06085 127.390625 258.51398Q128.0625 257.9671 129.07812 257.9671Q129.82812 257.9671 130.39062 258.2796Q130.95312 258.57648 131.3125 259.13898Q131.6875 259.70148 131.89062 260.5296Q132.10938 261.3421 132.10938 262.7171Q132.10938 264.35773 131.76562 265.37335Q131.4375 266.37335 130.76562 266.92023Q130.09375 267.4671 129.07812 267.4671Q127.734375 267.4671 126.953125 266.49835Q126.046875 265.3421 126.046875 262.7171ZM127.21875 262.7171Q127.21875 265.01398 127.75 265.7796Q128.28125 266.5296 129.07812 266.5296Q129.85938 266.5296 130.39062 265.7796Q130.9375 265.01398 130.9375 262.7171Q130.9375 260.42023 130.39062 259.67023Q129.85938 258.92023 129.0625 258.92023Q128.28125 258.92023 127.796875 259.57648Q127.21875 260.43585 127.21875 262.7171ZM133.6875 267.31085L133.6875 266.01398L134.98438 266.01398L134.98438 267.31085L133.6875 267.31085ZM137.04688 264.85773L138.1875 264.70148Q138.39062 265.67023 138.85938 266.10773Q139.32812 266.5296 140.01562 266.5296Q140.8125 266.5296 141.35938 265.98273Q141.92188 265.42023 141.92188 264.5921Q141.92188 263.79523 141.40625 263.29523Q140.90625 262.7796 140.10938 262.7796Q139.78125 262.7796 139.29688 262.9046L139.42188 261.9046Q139.54688 261.92023 139.60938 261.92023Q140.34375 261.92023 140.92188 261.54523Q141.51562 261.1546 141.51562 260.35773Q141.51562 259.73273 141.07812 259.32648Q140.65625 258.9046 139.98438 258.9046Q139.3125 258.9046 138.875 259.32648Q138.4375 259.74835 138.29688 260.57648L137.15625 260.37335Q137.375 259.23273 138.10938 258.60773Q138.85938 257.9671 139.95312 257.9671Q140.71875 257.9671 141.35938 258.29523Q142.0 258.62335 142.34375 259.18585Q142.6875 259.74835 142.6875 260.38898Q142.6875 260.98273 142.35938 261.48273Q142.03125 261.98273 141.40625 262.26398Q142.21875 262.4671 142.67188 263.06085Q143.14062 263.6546 143.14062 264.56085Q143.14062 265.7796 142.25 266.63898Q141.35938 267.48273 140.0 267.48273Q138.78125 267.48273 137.96875 266.74835Q137.15625 266.01398 137.04688 264.85773Z" fill-rule="nonzero"/><path stroke="#ffffff" stroke-width="3.0" stroke-linejoin="round" stroke-linecap="round" d="M239.34375 267.72693L238.20312 267.72693L238.20312 260.44568Q237.78125 260.8363 237.10938 261.24255Q236.45312 261.63318 235.92188 261.82068L235.92188 260.7113Q236.875 260.2738 237.59375 259.63318Q238.3125 258.99255 238.60938 258.38318L239.34375 258.38318L239.34375 267.72693ZM243.79688 262.68005Q243.09375 262.41443 242.75 261.94568Q242.40625 261.4613 242.40625 260.78943Q242.40625 259.7738 243.125 259.0863Q243.85938 258.38318 245.07812 258.38318Q246.29688 258.38318 247.03125 259.10193Q247.78125 259.80505 247.78125 260.82068Q247.78125 261.4613 247.4375 261.94568Q247.09375 262.41443 246.40625 262.68005Q247.26562 262.9613 247.70312 263.5863Q248.15625 264.2113 248.15625 265.07068Q248.15625 266.25818 247.3125 267.07068Q246.46875 267.88318 245.09375 267.88318Q243.71875 267.88318 242.875 267.07068Q242.03125 266.25818 242.03125 265.03943Q242.03125 264.13318 242.48438 263.5238Q242.95312 262.8988 243.79688 262.68005ZM243.5625 260.74255Q243.5625 261.3988 243.98438 261.82068Q244.42188 262.24255 245.09375 262.24255Q245.76562 262.24255 246.1875 261.8363Q246.60938 261.41443 246.60938 260.80505Q246.60938 260.18005 246.17188 259.75818Q245.73438 259.32068 245.09375 259.32068Q244.4375 259.32068 244.0 259.74255Q243.5625 260.16443 243.5625 260.74255ZM243.20312 265.03943Q243.20312 265.5238 243.4375 265.99255Q243.67188 266.44568 244.125 266.69568Q244.57812 266.94568 245.10938 266.94568Q245.92188 266.94568 246.45312 266.43005Q246.98438 265.8988 246.98438 265.0863Q246.98438 264.25818 246.4375 263.72693Q245.89062 263.18005 245.0625 263.18005Q244.26562 263.18005 243.73438 263.7113Q243.20312 264.24255 243.20312 265.03943ZM249.6875 267.72693L249.6875 266.43005L250.98438 266.43005L250.98438 267.72693L249.6875 267.72693ZM257.34375 267.72693L256.20312 267.72693L256.20312 260.44568Q255.78125 260.8363 255.10938 261.24255Q254.45312 261.63318 253.92188 261.82068L253.92188 260.7113Q254.875 260.2738 255.59375 259.63318Q256.3125 258.99255 256.60938 258.38318L257.34375 258.38318L257.34375 267.72693Z" fill-rule="nonzero"/><path fill="#000000" d="M239.34375 267.72693L238.20312 267.72693L238.20312 260.44568Q237.78125 260.8363 237.10938 261.24255Q236.45312 261.63318 235.92188 261.82068L235.92188 260.7113Q236.875 260.2738 237.59375 259.63318Q238.3125 258.99255 238.60938 258.38318L239.34375 258.38318L239.34375 267.72693ZM243.79688 262.68005Q243.09375 262.41443 242.75 261.94568Q242.40625 261.4613 242.40625 260.78943Q242.40625 259.7738 243.125 259.0863Q243.85938 258.38318 245.07812 258.38318Q246.29688 258.38318 247.03125 259.10193Q247.78125 259.80505 247.78125 260.82068Q247.78125 261.4613 247.4375 261.94568Q247.09375 262.41443 246.40625 262.68005Q247.26562 262.9613 247.70312 263.5863Q248.15625 264.2113 248.15625 265.07068Q248.15625 266.25818 247.3125 267.07068Q246.46875 267.88318 245.09375 267.88318Q243.71875 267.88318 242.875 267.07068Q242.03125 266.25818 242.03125 265.03943Q242.03125 264.13318 242.48438 263.5238Q242.95312 262.8988 243.79688 262.68005ZM243.5625 260.74255Q243.5625 261.3988 243.98438 261.82068Q244.42188 262.24255 245.09375 262.24255Q245.76562 262.24255 246.1875 261.8363Q246.60938 261.41443 246.60938 260.80505Q246.60938 260.18005 246.17188 259.75818Q245.73438 259.32068 245.09375 259.32068Q244.4375 259.32068 244.0 259.74255Q243.5625 260.16443 243.5625 260.74255ZM243.20312 265.03943Q243.20312 265.5238 243.4375 265.99255Q243.67188 266.44568 244.125 266.69568Q244.57812 266.94568 245.10938 266.94568Q245.92188 266.94568 246.45312 266.43005Q246.98438 265.8988 246.98438 265.0863Q246.98438 264.25818 246.4375 263.72693Q245.89062 263.18005 245.0625 263.18005Q244.26562 263.18005 243.73438 263.7113Q243.20312 264.24255 243.20312 265.03943ZM249.6875 267.72693L249.6875 266.43005L250.98438 266.43005L250.98438 267.72693L249.6875 267.72693ZM257.34375 267.72693L256.20312 267.72693L256.20312 260.44568Q255.78125 260.8363 255.10938 261.24255Q254.45312 261.63318 253.92188 261.82068L253.92188 260.7113Q254.875 260.2738 255.59375 259.63318Q256.3125 258.99255 256.60938 258.38318L257.34375 258.38318L257.34375 267.72693Z" fill-rule="nonzero"/><path stroke="#ffffff" stroke-width="3.0" stroke-linejoin="round" stroke-linecap="round" d="M356.34375 267.91605L355.20312 267.91605L355.20312 260.6348Q354.78125 261.02542 354.10938 261.43167Q353.45312 261.8223 352.92188 262.0098L352.92188 260.90042Q353.875 260.46292 354.59375 259.8223Q355.3125 259.18167 355.60938 258.5723L356.34375 258.5723L356.34375 267.91605ZM359.10938 259.8223L359.10938 258.72855L365.14062 258.72855L365.14062 259.61917Q364.25 260.5723 363.375 262.1348Q362.5 263.6973 362.03125 265.35355Q361.6875 266.52542 361.59375 267.91605L360.42188 267.91605Q360.4375 266.8223 360.84375 265.27542Q361.26562 263.71292 362.03125 262.27542Q362.79688 260.8223 363.67188 259.8223L359.10938 259.8223ZM366.6875 267.91605L366.6875 266.61917L367.98438 266.61917L367.98438 267.91605L366.6875 267.91605ZM374.34375 267.91605L373.20312 267.91605L373.20312 260.6348Q372.78125 261.02542 372.10938 261.43167Q371.45312 261.8223 370.92188 262.0098L370.92188 260.90042Q371.875 260.46292 372.59375 259.8223Q373.3125 259.18167 373.60938 258.5723L374.34375 258.5723L374.34375 267.91605Z" fill-rule="nonzero"/><path fill="#000000" d="M356.34375 267.91605L355.20312 267.91605L355.20312 260.6348Q354.78125 261.02542 354.10938 261.43167Q353.45312 261.8223 352.92188 262.0098L352.92188 260.90042Q353.875 260.46292 354.59375 259.8223Q355.3125 259.18167 355.60938 258.5723L356.34375 258.5723L356.34375 267.91605ZM359.10938 259.8223L359.10938 258.72855L365.14062 258.72855L365.14062 259.61917Q364.25 260.5723 363.375 262.1348Q362.5 263.6973 362.03125 265.35355Q361.6875 266.52542 361.59375 267.91605L360.42188 267.91605Q360.4375 266.8223 360.84375 265.27542Q361.26562 263.71292 362.03125 262.27542Q362.79688 260.8223 363.67188 259.8223L359.10938 259.8223ZM366.6875 267.91605L366.6875 266.61917L367.98438 266.61917L367.98438 267.91605L366.6875 267.91605ZM374.34375 267.91605L373.20312 267.91605L373.20312 260.6348Q372.78125 261.02542 372.10938 261.43167Q371.45312 261.8223 370.92188 262.0098L370.92188 260.90042Q371.875 260.46292 372.59375 259.8223Q373.3125 259.18167 373.60938 258.5723L374.34375 258.5723L374.34375 267.91605Z" fill-rule="nonzero"/><path stroke="#ffffff" stroke-width="3.0" stroke-linejoin="round" stroke-linecap="round" d="M140.71875 90.9751L141.8125 90.88135Q141.95312 91.64697 142.34375 92.00635Q142.73438 92.3501 143.35938 92.3501Q143.875 92.3501 144.26562 92.11572Q144.67188 91.86572 144.92188 91.4751Q145.1875 91.06885 145.34375 90.38135Q145.51562 89.69385 145.51562 88.9751Q145.51562 88.89697 145.51562 88.75635Q145.17188 89.30322 144.57812 89.64697Q143.98438 89.9751 143.29688 89.9751Q142.14062 89.9751 141.34375 89.14697Q140.54688 88.30322 140.54688 86.92822Q140.54688 85.50635 141.375 84.64697Q142.20312 83.7876 143.46875 83.7876Q144.375 83.7876 145.125 84.2876Q145.875 84.77197 146.26562 85.67822Q146.65625 86.56885 146.65625 88.2876Q146.65625 90.06885 146.26562 91.13135Q145.89062 92.17822 145.125 92.74072Q144.35938 93.2876 143.32812 93.2876Q142.23438 93.2876 141.53125 92.69385Q140.84375 92.08447 140.71875 90.9751ZM145.39062 86.86572Q145.39062 85.88135 144.85938 85.31885Q144.34375 84.74072 143.60938 84.74072Q142.84375 84.74072 142.28125 85.36572Q141.71875 85.9751 141.71875 86.9751Q141.71875 87.8501 142.25 88.4126Q142.78125 88.95947 143.57812 88.95947Q144.375 88.95947 144.875 88.4126Q145.39062 87.8501 145.39062 86.86572ZM151.20312 93.13135L151.20312 90.89697L147.17188 90.89697L147.17188 89.8501L151.40625 83.81885L152.34375 83.81885L152.34375 89.8501L153.60938 89.8501L153.60938 90.89697L152.34375 90.89697L152.34375 93.13135L151.20312 93.13135ZM151.20312 89.8501L151.20312 85.6626L148.28125 89.8501L151.20312 89.8501ZM158.84375 93.13135L157.70312 93.13135L157.70312 85.8501Q157.28125 86.24072 156.60938 86.64697Q155.95312 87.0376 155.42188 87.2251L155.42188 86.11572Q156.375 85.67822 157.09375 85.0376Q157.8125 84.39697 158.10938 83.7876L158.84375 83.7876L158.84375 93.13135ZM162.1875 93.13135L162.1875 91.83447L163.48438 91.83447L163.48438 93.13135L162.1875 93.13135ZM165.54688 90.67822L166.6875 90.52197Q166.89062 91.49072 167.35938 91.92822Q167.82812 92.3501 168.51562 92.3501Q169.3125 92.3501 169.85938 91.80322Q170.42188 91.24072 170.42188 90.4126Q170.42188 89.61572 169.90625 89.11572Q169.40625 88.6001 168.60938 88.6001Q168.28125 88.6001 167.79688 88.7251L167.92188 87.7251Q168.04688 87.74072 168.10938 87.74072Q168.84375 87.74072 169.42188 87.36572Q170.01562 86.9751 170.01562 86.17822Q170.01562 85.55322 169.57812 85.14697Q169.15625 84.7251 168.48438 84.7251Q167.8125 84.7251 167.375 85.14697Q166.9375 85.56885 166.79688 86.39697L165.65625 86.19385Q165.875 85.05322 166.60938 84.42822Q167.35938 83.7876 168.45312 83.7876Q169.21875 83.7876 169.85938 84.11572Q170.5 84.44385 170.84375 85.00635Q171.1875 85.56885 171.1875 86.20947Q171.1875 86.80322 170.85938 87.30322Q170.53125 87.80322 169.90625 88.08447Q170.71875 88.2876 171.17188 88.88135Q171.64062 89.4751 171.64062 90.38135Q171.64062 91.6001 170.75 92.45947Q169.85938 93.30322 168.5 93.30322Q167.28125 93.30322 166.46875 92.56885Q165.65625 91.83447 165.54688 90.67822Z" fill-rule="nonzero"/><path fill="#000000" d="M140.71875 90.9751L141.8125 90.88135Q141.95312 91.64697 142.34375 92.00635Q142.73438 92.3501 143.35938 92.3501Q143.875 92.3501 144.26562 92.11572Q144.67188 91.86572 144.92188 91.4751Q145.1875 91.06885 145.34375 90.38135Q145.51562 89.69385 145.51562 88.9751Q145.51562 88.89697 145.51562 88.75635Q145.17188 89.30322 144.57812 89.64697Q143.98438 89.9751 143.29688 89.9751Q142.14062 89.9751 141.34375 89.14697Q140.54688 88.30322 140.54688 86.92822Q140.54688 85.50635 141.375 84.64697Q142.20312 83.7876 143.46875 83.7876Q144.375 83.7876 145.125 84.2876Q145.875 84.77197 146.26562 85.67822Q146.65625 86.56885 146.65625 88.2876Q146.65625 90.06885 146.26562 91.13135Q145.89062 92.17822 145.125 92.74072Q144.35938 93.2876 143.32812 93.2876Q142.23438 93.2876 141.53125 92.69385Q140.84375 92.08447 140.71875 90.9751ZM145.39062 86.86572Q145.39062 85.88135 144.85938 85.31885Q144.34375 84.74072 143.60938 84.74072Q142.84375 84.74072 142.28125 85.36572Q141.71875 85.9751 141.71875 86.9751Q141.71875 87.8501 142.25 88.4126Q142.78125 88.95947 143.57812 88.95947Q144.375 88.95947 144.875 88.4126Q145.39062 87.8501 145.39062 86.86572ZM151.20312 93.13135L151.20312 90.89697L147.17188 90.89697L147.17188 89.8501L151.40625 83.81885L152.34375 83.81885L152.34375 89.8501L153.60938 89.8501L153.60938 90.89697L152.34375 90.89697L152.34375 93.13135L151.20312 93.13135ZM151.20312 89.8501L151.20312 85.6626L148.28125 89.8501L151.20312 89.8501ZM158.84375 93.13135L157.70312 93.13135L157.70312 85.8501Q157.28125 86.24072 156.60938 86.64697Q155.95312 87.0376 155.42188 87.2251L155.42188 86.11572Q156.375 85.67822 157.09375 85.0376Q157.8125 84.39697 158.10938 83.7876L158.84375 83.7876L158.84375 93.13135ZM162.1875 93.13135L162.1875 91.83447L163.48438 91.83447L163.48438 93.13135L162.1875 93.13135ZM165.54688 90.67822L166.6875 90.52197Q166.89062 91.49072 167.35938 91.92822Q167.82812 92.3501 168.51562 92.3501Q169.3125 92.3501 169.85938 91.80322Q170.42188 91.24072 170.42188 90.4126Q170.42188 89.61572 169.90625 89.11572Q169.40625 88.6001 168.60938 88.6001Q168.28125 88.6001 167.79688 88.7251L167.92188 87.7251Q168.04688 87.74072 168.10938 87.74072Q168.84375 87.74072 169.42188 87.36572Q170.01562 86.9751 170.01562 86.17822Q170.01562 85.55322 169.57812 85.14697Q169.15625 84.7251 168.48438 84.7251Q167.8125 84.7251 167.375 85.14697Q166.9375 85.56885 166.79688 86.39697L165.65625 86.19385Q165.875 85.05322 166.60938 84.42822Q167.35938 83.7876 168.45312 83.7876Q169.21875 83.7876 169.85938 84.11572Q170.5 84.44385 170.84375 85.00635Q171.1875 85.56885 171.1875 86.20947Q171.1875 86.80322 170.85938 87.30322Q170.53125 87.80322 169.90625 88.08447Q170.71875 88.2876 171.17188 88.88135Q171.64062 89.4751 171.64062 90.38135Q171.64062 91.6001 170.75 92.45947Q169.85938 93.30322 168.5 93.30322Q167.28125 93.30322 166.46875 92.56885Q165.65625 91.83447 165.54688 90.67822Z" fill-rule="nonzero"/><path stroke="#ffffff" stroke-width="3.0" stroke-linejoin="round" stroke-linecap="round" d="M260.20312 190.50923L260.20312 188.27486L256.17188 188.27486L256.17188 187.22798L260.40625 181.19673L261.34375 181.19673L261.34375 187.22798L262.60938 187.22798L262.60938 188.27486L261.34375 188.27486L261.34375 190.50923L260.20312 190.50923ZM260.20312 187.22798L260.20312 183.04048L257.28125 187.22798L260.20312 187.22798ZM269.54688 189.41548L269.54688 190.50923L263.39062 190.50923Q263.375 190.10298 263.53125 189.71236Q263.76562 189.08736 264.28125 188.47798Q264.79688 187.8686 265.78125 187.07173Q267.29688 185.82173 267.82812 185.10298Q268.35938 184.3686 268.35938 183.72798Q268.35938 183.04048 267.875 182.58736Q267.39062 182.1186 266.60938 182.1186Q265.78125 182.1186 265.28125 182.6186Q264.79688 183.10298 264.78125 183.97798L263.60938 183.85298Q263.73438 182.54048 264.51562 181.85298Q265.29688 181.16548 266.625 181.16548Q267.96875 181.16548 268.75 181.91548Q269.53125 182.64986 269.53125 183.7436Q269.53125 184.3061 269.29688 184.85298Q269.07812 185.38423 268.54688 185.9936Q268.01562 186.58736 266.78125 187.6186Q265.75 188.47798 265.45312 188.79048Q265.17188 189.10298 264.98438 189.41548L269.54688 189.41548ZM276.46875 183.47798L275.32812 183.57173Q275.1875 182.89986 274.90625 182.58736Q274.4375 182.10298 273.76562 182.10298Q273.21875 182.10298 272.79688 182.41548Q272.26562 182.8061 271.95312 183.5561Q271.64062 184.3061 271.625 185.71236Q272.03125 185.08736 272.625 184.79048Q273.23438 184.47798 273.89062 184.47798Q275.03125 184.47798 275.82812 185.32173Q276.64062 186.14986 276.64062 187.4936Q276.64062 188.3686 276.25 189.1186Q275.875 189.8686 275.21875 190.27486Q274.5625 190.66548 273.71875 190.66548Q272.29688 190.66548 271.39062 189.6186Q270.48438 188.57173 270.48438 186.14986Q270.48438 183.46236 271.48438 182.22798Q272.35938 181.16548 273.82812 181.16548Q274.92188 181.16548 275.625 181.79048Q276.32812 182.39986 276.46875 183.47798ZM271.79688 187.4936Q271.79688 188.08736 272.04688 188.63423Q272.29688 189.16548 272.75 189.44673Q273.20312 189.72798 273.70312 189.72798Q274.42188 189.72798 274.9375 189.14986Q275.46875 188.5561 275.46875 187.5561Q275.46875 186.58736 274.95312 186.04048Q274.4375 185.47798 273.65625 185.47798Q272.875 185.47798 272.32812 186.04048Q271.79688 186.58736 271.79688 187.4936ZM278.1875 190.50923L278.1875 189.21236L279.48438 189.21236L279.48438 190.50923L278.1875 190.50923ZM285.20312 190.50923L285.20312 188.27486L281.17188 188.27486L281.17188 187.22798L285.40625 181.19673L286.34375 181.19673L286.34375 187.22798L287.60938 187.22798L287.60938 188.27486L286.34375 188.27486L286.34375 190.50923L285.20312 190.50923ZM285.20312 187.22798L285.20312 183.04048L282.28125 187.22798L285.20312 187.22798Z" fill-rule="nonzero"/><path fill="#000000" d="M260.20312 190.50923L260.20312 188.27486L256.17188 188.27486L256.17188 187.22798L260.40625 181.19673L261.34375 181.19673L261.34375 187.22798L262.60938 187.22798L262.60938 188.27486L261.34375 188.27486L261.34375 190.50923L260.20312 190.50923ZM260.20312 187.22798L260.20312 183.04048L257.28125 187.22798L260.20312 187.22798ZM269.54688 189.41548L269.54688 190.50923L263.39062 190.50923Q263.375 190.10298 263.53125 189.71236Q263.76562 189.08736 264.28125 188.47798Q264.79688 187.8686 265.78125 187.07173Q267.29688 185.82173 267.82812 185.10298Q268.35938 184.3686 268.35938 183.72798Q268.35938 183.04048 267.875 182.58736Q267.39062 182.1186 266.60938 182.1186Q265.78125 182.1186 265.28125 182.6186Q264.79688 183.10298 264.78125 183.97798L263.60938 183.85298Q263.73438 182.54048 264.51562 181.85298Q265.29688 181.16548 266.625 181.16548Q267.96875 181.16548 268.75 181.91548Q269.53125 182.64986 269.53125 183.7436Q269.53125 184.3061 269.29688 184.85298Q269.07812 185.38423 268.54688 185.9936Q268.01562 186.58736 266.78125 187.6186Q265.75 188.47798 265.45312 188.79048Q265.17188 189.10298 264.98438 189.41548L269.54688 189.41548ZM276.46875 183.47798L275.32812 183.57173Q275.1875 182.89986 274.90625 182.58736Q274.4375 182.10298 273.76562 182.10298Q273.21875 182.10298 272.79688 182.41548Q272.26562 182.8061 271.95312 183.5561Q271.64062 184.3061 271.625 185.71236Q272.03125 185.08736 272.625 184.79048Q273.23438 184.47798 273.89062 184.47798Q275.03125 184.47798 275.82812 185.32173Q276.64062 186.14986 276.64062 187.4936Q276.64062 188.3686 276.25 189.1186Q275.875 189.8686 275.21875 190.27486Q274.5625 190.66548 273.71875 190.66548Q272.29688 190.66548 271.39062 189.6186Q270.48438 188.57173 270.48438 186.14986Q270.48438 183.46236 271.48438 182.22798Q272.35938 181.16548 273.82812 181.16548Q274.92188 181.16548 275.625 181.79048Q276.32812 182.39986 276.46875 183.47798ZM271.79688 187.4936Q271.79688 188.08736 272.04688 188.63423Q272.29688 189.16548 272.75 189.44673Q273.20312 189.72798 273.70312 189.72798Q274.42188 189.72798 274.9375 189.14986Q275.46875 188.5561 275.46875 187.5561Q275.46875 186.58736 274.95312 186.04048Q274.4375 185.47798 273.65625 185.47798Q272.875 185.47798 272.32812 186.04048Q271.79688 186.58736 271.79688 187.4936ZM278.1875 190.50923L278.1875 189.21236L279.48438 189.21236L279.48438 190.50923L278.1875 190.50923ZM285.20312 190.50923L285.20312 188.27486L281.17188 188.27486L281.17188 187.22798L285.40625 181.19673L286.34375 181.19673L286.34375 187.22798L287.60938 187.22798L287.60938 188.27486L286.34375 188.27486L286.34375 190.50923L285.20312 190.50923ZM285.20312 187.22798L285.20312 183.04048L282.28125 187.22798L285.20312 187.22798Z" fill-rule="nonzero"/><path stroke="#ffffff" stroke-width="3.0" stroke-linejoin="round" stroke-linecap="round" d="M379.84375 72.76312L378.70312 72.76312L378.70312 65.48187Q378.28125 65.8725 377.60938 66.27875Q376.95312 66.66937 376.42188 66.85687L376.42188 65.7475Q377.375 65.31 378.09375 64.66937Q378.8125 64.02875 379.10938 63.41937L379.84375 63.41937L379.84375 72.76312ZM382.54688 68.16937Q382.54688 66.52875 382.875 65.52875Q383.21875 64.51312 383.89062 63.966244Q384.5625 63.41937 385.57812 63.41937Q386.32812 63.41937 386.89062 63.73187Q387.45312 64.02875 387.8125 64.59125Q388.1875 65.15375 388.39062 65.98187Q388.60938 66.79437 388.60938 68.16937Q388.60938 69.81 388.26562 70.82562Q387.9375 71.82562 387.26562 72.3725Q386.59375 72.91937 385.57812 72.91937Q384.23438 72.91937 383.45312 71.95062Q382.54688 70.79437 382.54688 68.16937ZM383.71875 68.16937Q383.71875 70.46625 384.25 71.23187Q384.78125 71.98187 385.57812 71.98187Q386.35938 71.98187 386.89062 71.23187Q387.4375 70.46625 387.4375 68.16937Q387.4375 65.8725 386.89062 65.1225Q386.35938 64.3725 385.5625 64.3725Q384.78125 64.3725 384.29688 65.02875Q383.71875 65.88812 383.71875 68.16937ZM393.20312 72.76312L393.20312 70.52875L389.17188 70.52875L389.17188 69.48187L393.40625 63.45062L394.34375 63.45062L394.34375 69.48187L395.60938 69.48187L395.60938 70.52875L394.34375 70.52875L394.34375 72.76312L393.20312 72.76312ZM393.20312 69.48187L393.20312 65.29437L390.28125 69.48187L393.20312 69.48187ZM396.71875 70.60687L397.8125 70.51312Q397.95312 71.27875 398.34375 71.63812Q398.73438 71.98187 399.35938 71.98187Q399.875 71.98187 400.26562 71.7475Q400.67188 71.4975 400.92188 71.10687Q401.1875 70.70062 401.34375 70.01312Q401.51562 69.32562 401.51562 68.60687Q401.51562 68.52875 401.51562 68.38812Q401.17188 68.935 400.57812 69.27875Q399.98438 69.60687 399.29688 69.60687Q398.14062 69.60687 397.34375 68.77875Q396.54688 67.935 396.54688 66.56Q396.54688 65.13812 397.375 64.27875Q398.20312 63.41937 399.46875 63.41937Q400.375 63.41937 401.125 63.91937Q401.875 64.40375 402.26562 65.31Q402.65625 66.20062 402.65625 67.91937Q402.65625 69.70062 402.26562 70.76312Q401.89062 71.81 401.125 72.3725Q400.35938 72.91937 399.32812 72.91937Q398.23438 72.91937 397.53125 72.32562Q396.84375 71.71625 396.71875 70.60687ZM401.39062 66.4975Q401.39062 65.51312 400.85938 64.95062Q400.34375 64.3725 399.60938 64.3725Q398.84375 64.3725 398.28125 64.9975Q397.71875 65.60687 397.71875 66.60687Q397.71875 67.48187 398.25 68.04437Q398.78125 68.59125 399.57812 68.59125Q400.375 68.59125 400.875 68.04437Q401.39062 67.48187 401.39062 66.4975Z" fill-rule="nonzero"/><path fill="#000000" d="M379.84375 72.76312L378.70312 72.76312L378.70312 65.48187Q378.28125 65.8725 377.60938 66.27875Q376.95312 66.66937 376.42188 66.85687L376.42188 65.7475Q377.375 65.31 378.09375 64.66937Q378.8125 64.02875 379.10938 63.419373L379.84375 63.419373L379.84375 72.76312ZM382.54688 68.16937Q382.54688 66.52875 382.875 65.52875Q383.21875 64.51312 383.89062 63.966248Q384.5625 63.419373 385.57812 63.419373Q386.32812 63.419373 386.89062 63.731873Q387.45312 64.02875 387.8125 64.59125Q388.1875 65.15375 388.39062 65.98187Q388.60938 66.79437 388.60938 68.16937Q388.60938 69.81 388.26562 70.82562Q387.9375 71.82562 387.26562 72.3725Q386.59375 72.91937 385.57812 72.91937Q384.23438 72.91937 383.45312 71.95062Q382.54688 70.79437 382.54688 68.16937ZM383.71875 68.16937Q383.71875 70.46625 384.25 71.23187Q384.78125 71.98187 385.57812 71.98187Q386.35938 71.98187 386.89062 71.23187Q387.4375 70.46625 387.4375 68.16937Q387.4375 65.8725 386.89062 65.1225Q386.35938 64.3725 385.5625 64.3725Q384.78125 64.3725 384.29688 65.02875Q383.71875 65.88812 383.71875 68.16937ZM393.20312 72.76312L393.20312 70.52875L389.17188 70.52875L389.17188 69.48187L393.40625 63.450623L394.34375 63.450623L394.34375 69.48187L395.60938 69.48187L395.60938 70.52875L394.34375 70.52875L394.34375 72.76312L393.20312 72.76312ZM393.20312 69.48187L393.20312 65.29437L390.28125 69.48187L393.20312 69.48187ZM396.71875 70.60687L397.8125 70.51312Q397.95312 71.27875 398.34375 71.63812Q398.73438 71.98187 399.35938 71.98187Q399.875 71.98187 400.26562 71.7475Q400.67188 71.4975 400.92188 71.10687Q401.1875 70.70062 401.34375 70.01312Q401.51562 69.32562 401.51562 68.60687Q401.51562 68.52875 401.51562 68.38812Q401.17188 68.935 400.57812 69.27875Q399.98438 69.60687 399.29688 69.60687Q398.14062 69.60687 397.34375 68.77875Q396.54688 67.935 396.54688 66.56Q396.54688 65.13812 397.375 64.27875Q398.20312 63.419373 399.46875 63.419373Q400.375 63.419373 401.125 63.919373Q401.875 64.40375 402.26562 65.31Q402.65625 66.20062 402.65625 67.91937Q402.65625 69.70062 402.26562 70.76312Q401.89062 71.81 401.125 72.3725Q400.35938 72.91937 399.32812 72.91937Q398.23438 72.91937 397.53125 72.32562Q396.84375 71.71625 396.71875 70.60687ZM401.39062 66.4975Q401.39062 65.51312 400.85938 64.95062Q400.34375 64.3725 399.60938 64.3725Q398.84375 64.3725 398.28125 64.9975Q397.71875 65.60687 397.71875 66.60687Q397.71875 67.48187 398.25 68.04437Q398.78125 68.59125 399.57812 68.59125Q400.375 68.59125 400.875 68.04437Q401.39062 67.48187 401.39062 66.4975Z" fill-rule="nonzero"/><path fill="#000000" d="M255.89062 336.15L255.89062 327.55624L257.60938 327.55624L259.64062 333.63437Q259.92188 334.49374 260.04688 334.91562Q260.1875 334.44687 260.5 333.54062L262.5625 327.55624L264.09375 327.55624L264.09375 336.15L263.0 336.15L263.0 328.9625L260.5 336.15L259.46875 336.15L256.98438 328.8375L256.98438 336.15L255.89062 336.15ZM265.40625 333.04062Q265.40625 331.30624 266.35938 330.47812Q267.15625 329.79062 268.3125 329.79062Q269.59375 329.79062 270.40625 330.63437Q271.23438 331.4625 271.23438 332.94687Q271.23438 334.15 270.875 334.8375Q270.51562 335.525 269.8125 335.91562Q269.125 336.29062 268.3125 336.29062Q267.01562 336.29062 266.20312 335.4625Q265.40625 334.61874 265.40625 333.04062ZM266.48438 333.04062Q266.48438 334.22812 267.0 334.82187Q267.53125 335.41562 268.3125 335.41562Q269.10938 335.41562 269.625 334.82187Q270.14062 334.22812 270.14062 333.00937Q270.14062 331.85312 269.60938 331.25937Q269.09375 330.66562 268.3125 330.66562Q267.53125 330.66562 267.0 331.25937Q266.48438 331.8375 266.48438 333.04062ZM273.76562 336.15L272.78125 336.15L272.78125 327.55624L273.84375 327.55624L273.84375 330.61874Q274.51562 329.79062 275.54688 329.79062Q276.125 329.79062 276.625 330.025Q277.14062 330.24374 277.46875 330.66562Q277.8125 331.0875 278.0 331.68124Q278.1875 332.275 278.1875 332.94687Q278.1875 334.54062 277.39062 335.41562Q276.59375 336.29062 275.5 336.29062Q274.39062 336.29062 273.76562 335.36874L273.76562 336.15ZM273.75 332.99374Q273.75 334.10312 274.0625 334.60312Q274.5625 335.41562 275.40625 335.41562Q276.09375 335.41562 276.59375 334.82187Q277.10938 334.22812 277.10938 333.025Q277.10938 331.80624 276.625 331.22812Q276.14062 330.65 275.45312 330.65Q274.76562 330.65 274.25 331.25937Q273.75 331.85312 273.75 332.99374ZM279.79688 328.775L279.79688 327.55624L280.85938 327.55624L280.85938 328.775L279.79688 328.775ZM279.79688 336.15L279.79688 329.93124L280.85938 329.93124L280.85938 336.15L279.79688 336.15ZM282.76562 336.15L282.76562 327.55624L283.82812 327.55624L283.82812 336.15L282.76562 336.15ZM290.04688 334.15L291.14062 334.275Q290.89062 335.22812 290.1875 335.75937Q289.48438 336.29062 288.40625 336.29062Q287.04688 336.29062 286.23438 335.44687Q285.4375 334.60312 285.4375 333.0875Q285.4375 331.525 286.25 330.66562Q287.0625 329.79062 288.34375 329.79062Q289.59375 329.79062 290.375 330.63437Q291.17188 331.47812 291.17188 333.025Q291.17188 333.11874 291.17188 333.30624L286.53125 333.30624Q286.59375 334.3375 287.10938 334.88437Q287.625 335.41562 288.40625 335.41562Q288.98438 335.41562 289.39062 335.11874Q289.8125 334.80624 290.04688 334.15ZM286.59375 332.44687L290.0625 332.44687Q290.0 331.65 289.67188 331.25937Q289.15625 330.65 288.35938 330.65Q287.625 330.65 287.125 331.13437Q286.64062 331.61874 286.59375 332.44687ZM292.92188 336.15L292.92188 327.55624L294.07812 327.55624L298.59375 334.30624L298.59375 327.55624L299.6875 327.55624L299.6875 336.15L298.51562 336.15L294.0 329.4L294.0 336.15L292.92188 336.15ZM306.04688 334.15L307.14062 334.275Q306.89062 335.22812 306.1875 335.75937Q305.48438 336.29062 304.40625 336.29062Q303.04688 336.29062 302.23438 335.44687Q301.4375 334.60312 301.4375 333.0875Q301.4375 331.525 302.25 330.66562Q303.0625 329.79062 304.34375 329.79062Q305.59375 329.79062 306.375 330.63437Q307.17188 331.47812 307.17188 333.025Q307.17188 333.11874 307.17188 333.30624L302.53125 333.30624Q302.59375 334.3375 303.10938 334.88437Q303.625 335.41562 304.40625 335.41562Q304.98438 335.41562 305.39062 335.11874Q305.8125 334.80624 306.04688 334.15ZM302.59375 332.44687L306.0625 332.44687Q306.0 331.65 305.67188 331.25937Q305.15625 330.65 304.35938 330.65Q303.625 330.65 303.125 331.13437Q302.64062 331.61874 302.59375 332.44687ZM311.09375 335.2125L311.25 336.13437Q310.79688 336.22812 310.45312 336.22812Q309.875 336.22812 309.5625 336.05624Q309.25 335.86874 309.10938 335.57187Q308.98438 335.275 308.98438 334.32187L308.98438 330.74374L308.21875 330.74374L308.21875 329.93124L308.98438 329.93124L308.98438 328.38437L310.03125 327.75937L310.03125 329.93124L311.09375 329.93124L311.09375 330.74374L310.03125 330.74374L310.03125 334.38437Q310.03125 334.8375 310.07812 334.9625Q310.14062 335.0875 310.26562 335.16562Q310.39062 335.24374 310.625 335.24374Q310.8125 335.24374 311.09375 335.2125ZM317.375 336.15L314.04688 327.55624L315.28125 327.55624L317.51562 333.80624Q317.78125 334.55624 317.96875 335.2125Q318.17188 334.50937 318.4375 333.80624L320.75 327.55624L321.90625 327.55624L318.54688 336.15L317.375 336.15ZM328.04688 335.13437L328.04688 336.15L322.35938 336.15Q322.35938 335.775 322.48438 335.41562Q322.70312 334.8375 323.17188 334.275Q323.65625 333.7125 324.5625 332.97812Q325.96875 331.82187 326.45312 331.15Q326.95312 330.47812 326.95312 329.88437Q326.95312 329.25937 326.5 328.8375Q326.04688 328.4 325.32812 328.4Q324.5625 328.4 324.10938 328.85312Q323.65625 329.30624 323.64062 330.11874L322.5625 330.00937Q322.67188 328.79062 323.39062 328.16562Q324.125 327.525 325.35938 327.525Q326.59375 327.525 327.3125 328.2125Q328.03125 328.9 328.03125 329.91562Q328.03125 330.43124 327.8125 330.93124Q327.60938 331.41562 327.10938 331.97812Q326.625 332.525 325.5 333.47812Q324.54688 334.275 324.26562 334.57187Q324.0 334.85312 323.82812 335.13437L328.04688 335.13437ZM336.46875 336.15L335.42188 336.15L335.42188 329.43124Q335.03125 329.79062 334.40625 330.16562Q333.79688 330.525 333.3125 330.69687L333.3125 329.68124Q334.1875 329.25937 334.84375 328.68124Q335.51562 328.0875 335.79688 327.525L336.46875 327.525L336.46875 336.15ZM340.09375 336.15L340.09375 334.94687L341.29688 334.94687L341.29688 336.15L340.09375 336.15ZM342.5 331.91562Q342.5 330.38437 342.8125 329.4625Q343.125 328.525 343.73438 328.025Q344.35938 327.525 345.29688 327.525Q345.98438 327.525 346.5 327.80624Q347.03125 328.0875 347.375 328.61874Q347.71875 329.13437 347.90625 329.88437Q348.09375 330.63437 348.09375 331.91562Q348.09375 333.43124 347.78125 334.35312Q347.48438 335.275 346.85938 335.79062Q346.25 336.29062 345.29688 336.29062Q344.0625 336.29062 343.34375 335.4Q342.5 334.3375 342.5 331.91562ZM343.57812 331.91562Q343.57812 334.025 344.07812 334.72812Q344.57812 335.43124 345.29688 335.43124Q346.03125 335.43124 346.51562 334.72812Q347.01562 334.025 347.01562 331.91562Q347.01562 329.79062 346.51562 329.10312Q346.03125 328.4 345.28125 328.4Q344.5625 328.4 344.125 329.00937Q343.57812 329.79062 343.57812 331.91562ZM349.5 331.91562Q349.5 330.38437 349.8125 329.4625Q350.125 328.525 350.73438 328.025Q351.35938 327.525 352.29688 327.525Q352.98438 327.525 353.5 327.80624Q354.03125 328.0875 354.375 328.61874Q354.71875 329.13437 354.90625 329.88437Q355.09375 330.63437 355.09375 331.91562Q355.09375 333.43124 354.78125 334.35312Q354.48438 335.275 353.85938 335.79062Q353.25 336.29062 352.29688 336.29062Q351.0625 336.29062 350.34375 335.4Q349.5 334.3375 349.5 331.91562ZM350.57812 331.91562Q350.57812 334.025 351.07812 334.72812Q351.57812 335.43124 352.29688 335.43124Q353.03125 335.43124 353.51562 334.72812Q354.01562 334.025 354.01562 331.91562Q354.01562 329.79062 353.51562 329.10312Q353.03125 328.4 352.28125 328.4Q351.5625 328.4 351.125 329.00937Q350.57812 329.79062 350.57812 331.91562Z" fill-rule="nonzero"/><path fill="#000000" d="M39.35 286.91562Q39.35 285.38437 39.6625 284.4625Q39.975 283.525 40.584373 283.025Q41.209373 282.525 42.146873 282.525Q42.834373 282.525 43.35 282.80624Q43.88125 283.0875 44.225 283.61874Q44.56875 284.13437 44.75625 284.88437Q44.94375 285.63437 44.94375 286.91562Q44.94375 288.43124 44.63125 289.35312Q44.334373 290.275 43.709373 290.79062Q43.1 291.29062 42.146873 291.29062Q40.9125 291.29062 40.19375 290.4Q39.35 289.3375 39.35 286.91562ZM40.428123 286.91562Q40.428123 289.025 40.928123 289.72812Q41.428123 290.43124 42.146873 290.43124Q42.88125 290.43124 43.365623 289.72812Q43.865623 289.025 43.865623 286.91562Q43.865623 284.79062 43.365623 284.10312Q42.88125 283.4 42.13125 283.4Q41.4125 283.4 40.975 284.00937Q40.428123 284.79062 40.428123 286.91562Z" fill-rule="nonzero"/><path fill="#000000" d="M30.896875 242.85437L30.896875 243.87L25.209375 243.87Q25.209375 243.495 25.334375 243.13562Q25.553125 242.5575 26.021875 241.995Q26.50625 241.4325 27.4125 240.69812Q28.81875 239.54187 29.303125 238.87Q29.803125 238.19812 29.803125 237.60437Q29.803125 236.97937 29.35 236.5575Q28.896875 236.12 28.178125 236.12Q27.4125 236.12 26.959375 236.57312Q26.50625 237.02625 26.490625 237.83875L25.4125 237.72937Q25.521875 236.51062 26.240625 235.88562Q26.975 235.245 28.209375 235.245Q29.44375 235.245 30.1625 235.9325Q30.88125 236.62 30.88125 237.63562Q30.88125 238.15125 30.6625 238.65125Q30.459375 239.13562 29.959375 239.69812Q29.475 240.245 28.35 241.19812Q27.396875 241.995 27.115625 242.29187Q26.85 242.57312 26.678125 242.85437L30.896875 242.85437ZM32.35 241.62L33.459373 241.52625Q33.584373 242.33875 34.021873 242.745Q34.475 243.15125 35.115623 243.15125Q35.865623 243.15125 36.396873 242.57312Q36.928123 241.995 36.928123 241.0575Q36.928123 240.15125 36.4125 239.63562Q35.9125 239.10437 35.084373 239.10437Q34.584373 239.10437 34.1625 239.33875Q33.75625 239.57312 33.521873 239.9325L32.5375 239.8075L33.365623 235.40125L37.646873 235.40125L37.646873 236.40125L34.209373 236.40125L33.75625 238.71375Q34.521873 238.16687 35.365623 238.16687Q36.490623 238.16687 37.25625 238.94812Q38.0375 239.72937 38.0375 240.96375Q38.0375 242.12 37.365623 242.97937Q36.5375 244.01062 35.115623 244.01062Q33.94375 244.01062 33.19375 243.35437Q32.459373 242.69812 32.35 241.62ZM39.35 239.63562Q39.35 238.10437 39.6625 237.1825Q39.975 236.245 40.584373 235.745Q41.209373 235.245 42.146873 235.245Q42.834373 235.245 43.35 235.52625Q43.88125 235.8075 44.225 236.33875Q44.56875 236.85437 44.75625 237.60437Q44.94375 238.35437 44.94375 239.63562Q44.94375 241.15125 44.63125 242.07312Q44.334373 242.995 43.709373 243.51062Q43.1 244.01062 42.146873 244.01062Q40.9125 244.01062 40.19375 243.12Q39.35 242.0575 39.35 239.63562ZM40.428123 239.63562Q40.428123 241.745 40.928123 242.44812Q41.428123 243.15125 42.146873 243.15125Q42.88125 243.15125 43.365623 242.44812Q43.865623 241.745 43.865623 239.63562Q43.865623 237.51062 43.365623 236.82312Q42.88125 236.12 42.13125 236.12Q41.4125 236.12 40.975 236.72937Q40.428123 237.51062 40.428123 239.63562Z" fill-rule="nonzero"/><path fill="#000000" d="M25.35 194.34L26.459375 194.24625Q26.584375 195.05875 27.021875 195.465Q27.475 195.87125 28.115625 195.87125Q28.865625 195.87125 29.396875 195.29312Q29.928125 194.715 29.928125 193.7775Q29.928125 192.87125 29.4125 192.35562Q28.9125 191.82437 28.084375 191.82437Q27.584375 191.82437 27.1625 192.05875Q26.75625 192.29312 26.521875 192.6525L25.5375 192.5275L26.365625 188.12125L30.646875 188.12125L30.646875 189.12125L27.209375 189.12125L26.75625 191.43375Q27.521875 190.88687 28.365625 190.88687Q29.490625 190.88687 30.25625 191.66812Q31.0375 192.44937 31.0375 193.68375Q31.0375 194.84 30.365625 195.69937Q29.5375 196.73062 28.115625 196.73062Q26.94375 196.73062 26.19375 196.07437Q25.459375 195.41812 25.35 194.34ZM32.35 192.35562Q32.35 190.82437 32.6625 189.9025Q32.975 188.965 33.584373 188.465Q34.209373 187.965 35.146873 187.965Q35.834373 187.965 36.35 188.24625Q36.88125 188.5275 37.225 189.05875Q37.56875 189.57437 37.75625 190.32437Q37.94375 191.07437 37.94375 192.35562Q37.94375 193.87125 37.63125 194.79312Q37.334373 195.715 36.709373 196.23062Q36.1 196.73062 35.146873 196.73062Q33.9125 196.73062 33.19375 195.84Q32.35 194.7775 32.35 192.35562ZM33.428123 192.35562Q33.428123 194.465 33.928123 195.16812Q34.428123 195.87125 35.146873 195.87125Q35.88125 195.87125 36.365623 195.16812Q36.865623 194.465 36.865623 192.35562Q36.865623 190.23062 36.365623 189.54312Q35.88125 188.84 35.13125 188.84Q34.4125 188.84 33.975 189.44937Q33.428123 190.23062 33.428123 192.35562ZM39.35 192.35562Q39.35 190.82437 39.6625 189.9025Q39.975 188.965 40.584373 188.465Q41.209373 187.965 42.146873 187.965Q42.834373 187.965 43.35 188.24625Q43.88125 188.5275 44.225 189.05875Q44.56875 189.57437 44.75625 190.32437Q44.94375 191.07437 44.94375 192.35562Q44.94375 193.87125 44.63125 194.79312Q44.334373 195.715 43.709373 196.23062Q43.1 196.73062 42.146873 196.73062Q40.9125 196.73062 40.19375 195.84Q39.35 194.7775 39.35 192.35562ZM40.428123 192.35562Q40.428123 194.465 40.928123 195.16812Q41.428123 195.87125 42.146873 195.87125Q42.88125 195.87125 43.365623 195.16812Q43.865623 194.465 43.865623 192.35562Q43.865623 190.23062 43.365623 189.54312Q42.88125 188.84 42.13125 188.84Q41.4125 188.84 40.975 189.44937Q40.428123 190.23062 40.428123 192.35562Z" fill-rule="nonzero"/><path fill="#000000" d="M25.4125 141.84125L25.4125 140.82562L30.975 140.82562L30.975 141.65375Q30.1625 142.52875 29.35 143.98187Q28.553125 145.41937 28.115625 146.95062Q27.7875 148.02875 27.709375 149.31L26.615625 149.31Q26.63125 148.29437 27.00625 146.85687Q27.396875 145.41937 28.1 144.09125Q28.81875 142.76312 29.63125 141.84125L25.4125 141.84125ZM32.35 147.06L33.459373 146.96625Q33.584373 147.77875 34.021873 148.185Q34.475 148.59125 35.115623 148.59125Q35.865623 148.59125 36.396873 148.01312Q36.928123 147.435 36.928123 146.4975Q36.928123 145.59125 36.4125 145.07562Q35.9125 144.54437 35.084373 144.54437Q34.584373 144.54437 34.1625 144.77875Q33.75625 145.01312 33.521873 145.3725L32.5375 145.2475L33.365623 140.84125L37.646873 140.84125L37.646873 141.84125L34.209373 141.84125L33.75625 144.15375Q34.521873 143.60687 35.365623 143.60687Q36.490623 143.60687 37.25625 144.38812Q38.0375 145.16937 38.0375 146.40375Q38.0375 147.56 37.365623 148.41937Q36.5375 149.45062 35.115623 149.45062Q33.94375 149.45062 33.19375 148.79437Q32.459373 148.13812 32.35 147.06ZM39.35 145.07562Q39.35 143.54437 39.6625 142.6225Q39.975 141.685 40.584373 141.185Q41.209373 140.685 42.146873 140.685Q42.834373 140.685 43.35 140.96625Q43.88125 141.2475 44.225 141.77875Q44.56875 142.29437 44.75625 143.04437Q44.94375 143.79437 44.94375 145.07562Q44.94375 146.59125 44.63125 147.51312Q44.334373 148.435 43.709373 148.95062Q43.1 149.45062 42.146873 149.45062Q40.9125 149.45062 40.19375 148.56Q39.35 147.4975 39.35 145.07562ZM40.428123 145.07562Q40.428123 147.185 40.928123 147.88812Q41.428123 148.59125 42.146873 148.59125Q42.88125 148.59125 43.365623 147.88812Q43.865623 147.185 43.865623 145.07562Q43.865623 142.95062 43.365623 142.26312Q42.88125 141.56 42.13125 141.56Q41.4125 141.56 40.975 142.16937Q40.428123 142.95062 40.428123 145.07562Z" fill-rule="nonzero"/><path fill="#000000" d="M22.31875 102.03L21.271875 102.03L21.271875 95.31125Q20.88125 95.67062 20.25625 96.04562Q19.646875 96.405 19.1625 96.57687L19.1625 95.56125Q20.0375 95.13937 20.69375 94.56125Q21.365625 93.9675 21.646875 93.405L22.31875 93.405L22.31875 102.03ZM25.35 97.79562Q25.35 96.26437 25.6625 95.3425Q25.975 94.405 26.584375 93.905Q27.209375 93.405 28.146875 93.405Q28.834375 93.405 29.35 93.68625Q29.88125 93.9675 30.225 94.49875Q30.56875 95.01437 30.75625 95.76437Q30.94375 96.51437 30.94375 97.79562Q30.94375 99.31125 30.63125 100.23312Q30.334375 101.155 29.709375 101.67062Q29.1 102.17062 28.146875 102.17062Q26.9125 102.17062 26.19375 101.28Q25.35 100.2175 25.35 97.79562ZM26.428125 97.79562Q26.428125 99.905 26.928125 100.60812Q27.428125 101.31125 28.146875 101.31125Q28.88125 101.31125 29.365625 100.60812Q29.865625 99.905 29.865625 97.79562Q29.865625 95.67062 29.365625 94.98312Q28.88125 94.28 28.13125 94.28Q27.4125 94.28 26.975 94.88937Q26.428125 95.67062 26.428125 97.79562ZM32.35 97.79562Q32.35 96.26437 32.6625 95.3425Q32.975 94.405 33.584373 93.905Q34.209373 93.405 35.146873 93.405Q35.834373 93.405 36.35 93.68625Q36.88125 93.9675 37.225 94.49875Q37.56875 95.01437 37.75625 95.76437Q37.94375 96.51437 37.94375 97.79562Q37.94375 99.31125 37.63125 100.23312Q37.334373 101.155 36.709373 101.67062Q36.1 102.17062 35.146873 102.17062Q33.9125 102.17062 33.19375 101.28Q32.35 100.2175 32.35 97.79562ZM33.428123 97.79562Q33.428123 99.905 33.928123 100.60812Q34.428123 101.31125 35.146873 101.31125Q35.88125 101.31125 36.365623 100.60812Q36.865623 99.905 36.865623 97.79562Q36.865623 95.67062 36.365623 94.98312Q35.88125 94.28 35.13125 94.28Q34.4125 94.28 33.975 94.88937Q33.428123 95.67062 33.428123 97.79562ZM39.35 97.79562Q39.35 96.26437 39.6625 95.3425Q39.975 94.405 40.584373 93.905Q41.209373 93.405 42.146873 93.405Q42.834373 93.405 43.35 93.68625Q43.88125 93.9675 44.225 94.49875Q44.56875 95.01437 44.75625 95.76437Q44.94375 96.51437 44.94375 97.79562Q44.94375 99.31125 44.63125 100.23312Q44.334373 101.155 43.709373 101.67062Q43.1 102.17062 42.146873 102.17062Q40.9125 102.17062 40.19375 101.28Q39.35 100.2175 39.35 97.79562ZM40.428123 97.79562Q40.428123 99.905 40.928123 100.60812Q41.428123 101.31125 42.146873 101.31125Q42.88125 101.31125 43.365623 100.60812Q43.865623 99.905 43.865623 97.79562Q43.865623 95.67062 43.365623 94.98312Q42.88125 94.28 42.13125 94.28Q41.4125 94.28 40.975 94.88937Q40.428123 95.67062 40.428123 97.79562Z" fill-rule="nonzero"/><path fill="#000000" d="M22.31875 54.75L21.271875 54.75L21.271875 48.03125Q20.88125 48.390625 20.25625 48.765625Q19.646875 49.125 19.1625 49.296875L19.1625 48.28125Q20.0375 47.859375 20.69375 47.28125Q21.365625 46.6875 21.646875 46.125L22.31875 46.125L22.31875 54.75ZM30.896875 53.734375L30.896875 54.75L25.209375 54.75Q25.209375 54.375 25.334375 54.015625Q25.553125 53.4375 26.021875 52.875Q26.50625 52.3125 27.4125 51.578125Q28.81875 50.421875 29.303125 49.75Q29.803125 49.078125 29.803125 48.484375Q29.803125 47.859375 29.35 47.4375Q28.896875 47.0 28.178125 47.0Q27.4125 47.0 26.959375 47.453125Q26.50625 47.90625 26.490625 48.71875L25.4125 48.609375Q25.521875 47.390625 26.240625 46.765625Q26.975 46.125 28.209375 46.125Q29.44375 46.125 30.1625 46.8125Q30.88125 47.5 30.88125 48.515625Q30.88125 49.03125 30.6625 49.53125Q30.459375 50.015625 29.959375 50.578125Q29.475 51.125 28.35 52.078125Q27.396875 52.875 27.115625 53.171875Q26.85 53.453125 26.678125 53.734375L30.896875 53.734375ZM32.35 52.5L33.459373 52.40625Q33.584373 53.21875 34.021873 53.625Q34.475 54.03125 35.115623 54.03125Q35.865623 54.03125 36.396873 53.453125Q36.928123 52.875 36.928123 51.9375Q36.928123 51.03125 36.4125 50.515625Q35.9125 49.984375 35.084373 49.984375Q34.584373 49.984375 34.1625 50.21875Q33.75625 50.453125 33.521873 50.8125L32.5375 50.6875L33.365623 46.28125L37.646873 46.28125L37.646873 47.28125L34.209373 47.28125L33.75625 49.59375Q34.521873 49.046875 35.365623 49.046875Q36.490623 49.046875 37.25625 49.828125Q38.0375 50.609375 38.0375 51.84375Q38.0375 53.0 37.365623 53.859375Q36.5375 54.890625 35.115623 54.890625Q33.94375 54.890625 33.19375 54.234375Q32.459373 53.578125 32.35 52.5ZM39.35 50.515625Q39.35 48.984375 39.6625 48.0625Q39.975 47.125 40.584373 46.625Q41.209373 46.125 42.146873 46.125Q42.834373 46.125 43.35 46.40625Q43.88125 46.6875 44.225 47.21875Q44.56875 47.734375 44.75625 48.484375Q44.94375 49.234375 44.94375 50.515625Q44.94375 52.03125 44.63125 52.953125Q44.334373 53.875 43.709373 54.390625Q43.1 54.890625 42.146873 54.890625Q40.9125 54.890625 40.19375 54.0Q39.35 52.9375 39.35 50.515625ZM40.428123 50.515625Q40.428123 52.625 40.928123 53.328125Q41.428123 54.03125 42.146873 54.03125Q42.88125 54.03125 43.365623 53.328125Q43.865623 52.625 43.865623 50.515625Q43.865623 48.390625 43.365623 47.703125Q42.88125 47.0 42.13125 47.0Q41.4125 47.0 40.975 47.609375Q40.428123 48.390625 40.428123 50.515625Z" fill-rule="nonzero"/><path fill="#000000" d="M106.36584 296.775L106.36584 295.55624L107.42834 295.55624L107.42834 296.775L106.36584 296.775ZM106.36584 304.15L106.36584 297.93124L107.42834 297.93124L107.42834 304.15L106.36584 304.15ZM109.49084 304.15L109.49084 295.55624L112.74084 295.55624Q113.58459 295.55624 114.03771 295.63437Q114.67834 295.74374 115.10021 296.04062Q115.53771 296.3375 115.78771 296.86874Q116.05334 297.4 116.05334 298.04062Q116.05334 299.13437 115.35021 299.9Q114.66271 300.65 112.83459 300.65L110.63146 300.65L110.63146 304.15L109.49084 304.15ZM110.63146 299.65L112.85021 299.65Q113.95959 299.65 114.41271 299.24374Q114.88146 298.82187 114.88146 298.07187Q114.88146 297.54062 114.60021 297.16562Q114.33459 296.775 113.89709 296.65Q113.60021 296.57187 112.83459 296.57187L110.63146 296.57187L110.63146 299.65ZM117.36584 304.15L117.36584 295.55624L118.41271 295.55624L118.41271 298.63437Q119.14709 297.79062 120.27209 297.79062Q120.97521 297.79062 121.47521 298.07187Q121.99084 298.3375 122.20959 298.82187Q122.42834 299.29062 122.42834 300.2125L122.42834 304.15L121.38146 304.15L121.38146 300.2125Q121.38146 299.41562 121.03771 299.05624Q120.69396 298.69687 120.06896 298.69687Q119.60021 298.69687 119.17834 298.94687Q118.77209 299.18124 118.58459 299.60312Q118.41271 300.00937 118.41271 300.74374L118.41271 304.15L117.36584 304.15ZM123.97521 301.04062Q123.97521 299.30624 124.92834 298.47812Q125.72521 297.79062 126.88146 297.79062Q128.16272 297.79062 128.97522 298.63437Q129.80334 299.4625 129.80334 300.94687Q129.80334 302.15 129.44397 302.8375Q129.0846 303.525 128.38147 303.91562Q127.69396 304.29062 126.88146 304.29062Q125.58459 304.29062 124.77209 303.4625Q123.97521 302.61874 123.97521 301.04062ZM125.05334 301.04062Q125.05334 302.22812 125.56896 302.82187Q126.10021 303.41562 126.88146 303.41562Q127.67834 303.41562 128.19397 302.82187Q128.7096 302.22812 128.7096 301.00937Q128.7096 299.85312 128.17834 299.25937Q127.66271 298.66562 126.88146 298.66562Q126.10021 298.66562 125.56896 299.25937Q125.05334 299.8375 125.05334 301.04062ZM131.36584 304.15L131.36584 297.93124L132.30334 297.93124L132.30334 298.80624Q132.99084 297.79062 134.28772 297.79062Q134.85022 297.79062 135.31897 297.99374Q135.80334 298.19687 136.03772 298.525Q136.2721 298.85312 136.36584 299.29062Q136.41272 299.5875 136.41272 300.32187L136.41272 304.15L135.36584 304.15L135.36584 300.36874Q135.36584 299.7125 135.24084 299.4Q135.11584 299.0875 134.80334 298.9Q134.49084 298.69687 134.06897 298.69687Q133.3971 298.69687 132.8971 299.13437Q132.41272 299.55624 132.41272 300.74374L132.41272 304.15L131.36584 304.15ZM142.61584 302.15L143.7096 302.275Q143.4596 303.22812 142.75647 303.75937Q142.05334 304.29062 140.97522 304.29062Q139.61584 304.29062 138.80334 303.44687Q138.00647 302.60312 138.00647 301.0875Q138.00647 299.525 138.81897 298.66562Q139.63147 297.79062 140.91272 297.79062Q142.16272 297.79062 142.94397 298.63437Q143.74084 299.47812 143.74084 301.025Q143.74084 301.11874 143.74084 301.30624L139.10022 301.30624Q139.16272 302.3375 139.67834 302.88437Q140.19397 303.41562 140.97522 303.41562Q141.55334 303.41562 141.9596 303.11874Q142.38147 302.80624 142.61584 302.15ZM139.16272 300.44687L142.63147 300.44687Q142.56897 299.65 142.24084 299.25937Q141.72522 298.65 140.92834 298.65Q140.19397 298.65 139.69397 299.13437Q139.2096 299.61874 139.16272 300.44687ZM147.61584 304.15L150.94397 299.66562L148.0221 295.55624L149.36584 295.55624L150.92834 297.75937Q151.41272 298.44687 151.61584 298.82187Q151.91272 298.35312 152.30334 297.8375L154.0221 295.55624L155.25647 295.55624L152.24084 299.60312L155.49084 304.15L154.0846 304.15L151.92834 301.0875Q151.74084 300.82187 151.55334 300.50937Q151.2721 300.97812 151.1471 301.15L148.99084 304.15L147.61584 304.15Z" fill-rule="nonzero"/><path fill="#000000" d="M218.98653 296.775L218.98653 295.55624L220.04903 295.55624L220.04903 296.775L218.98653 296.775ZM218.98653 304.15L218.98653 297.93124L220.04903 297.93124L220.04903 304.15L218.98653 304.15ZM222.11153 304.15L222.11153 295.55624L225.36153 295.55624Q226.20528 295.55624 226.6584 295.63437Q227.29903 295.74374 227.7209 296.04062Q228.1584 296.3375 228.4084 296.86874Q228.67403 297.4 228.67403 298.04062Q228.67403 299.13437 227.9709 299.9Q227.2834 300.65 225.45528 300.65L223.25215 300.65L223.25215 304.15L222.11153 304.15ZM223.25215 299.65L225.4709 299.65Q226.58028 299.65 227.0334 299.24374Q227.50215 298.82187 227.50215 298.07187Q227.50215 297.54062 227.2209 297.16562Q226.95528 296.775 226.51778 296.65Q226.2209 296.57187 225.45528 296.57187L223.25215 296.57187L223.25215 299.65ZM229.98653 304.15L229.98653 295.55624L231.0334 295.55624L231.0334 298.63437Q231.76778 297.79062 232.89278 297.79062Q233.5959 297.79062 234.0959 298.07187Q234.61153 298.3375 234.83028 298.82187Q235.04903 299.29062 235.04903 300.2125L235.04903 304.15L234.00215 304.15L234.00215 300.2125Q234.00215 299.41562 233.6584 299.05624Q233.31465 298.69687 232.68965 298.69687Q232.2209 298.69687 231.79903 298.94687Q231.39278 299.18124 231.20528 299.60312Q231.0334 300.00937 231.0334 300.74374L231.0334 304.15L229.98653 304.15ZM236.5959 301.04062Q236.5959 299.30624 237.54903 298.47812Q238.3459 297.79062 239.50215 297.79062Q240.7834 297.79062 241.5959 298.63437Q242.42403 299.4625 242.42403 300.94687Q242.42403 302.15 242.06465 302.8375Q241.70528 303.525 241.00215 303.91562Q240.31465 304.29062 239.50215 304.29062Q238.20528 304.29062 237.39278 303.4625Q236.5959 302.61874 236.5959 301.04062ZM237.67403 301.04062Q237.67403 302.22812 238.18965 302.82187Q238.7209 303.41562 239.50215 303.41562Q240.29903 303.41562 240.81465 302.82187Q241.33028 302.22812 241.33028 301.00937Q241.33028 299.85312 240.79903 299.25937Q240.2834 298.66562 239.50215 298.66562Q238.7209 298.66562 238.18965 299.25937Q237.67403 299.8375 237.67403 301.04062ZM243.98653 304.15L243.98653 297.93124L244.92403 297.93124L244.92403 298.80624Q245.61153 297.79062 246.9084 297.79062Q247.4709 297.79062 247.93965 297.99374Q248.42403 298.19687 248.6584 298.525Q248.89278 298.85312 248.98653 299.29062Q249.0334 299.5875 249.0334 300.32187L249.0334 304.15L247.98653 304.15L247.98653 300.36874Q247.98653 299.7125 247.86153 299.4Q247.73653 299.0875 247.42403 298.9Q247.11153 298.69687 246.68965 298.69687Q246.01778 298.69687 245.51778 299.13437Q245.0334 299.55624 245.0334 300.74374L245.0334 304.15L243.98653 304.15ZM255.23653 302.15L256.33026 302.275Q256.08026 303.22812 255.37715 303.75937Q254.67403 304.29062 253.5959 304.29062Q252.23653 304.29062 251.42403 303.44687Q250.62715 302.60312 250.62715 301.0875Q250.62715 299.525 251.43965 298.66562Q252.25215 297.79062 253.5334 297.79062Q254.7834 297.79062 255.56465 298.63437Q256.3615 299.47812 256.3615 301.025Q256.3615 301.11874 256.3615 301.30624L251.7209 301.30624Q251.7834 302.3375 252.29903 302.88437Q252.81465 303.41562 253.5959 303.41562Q254.17403 303.41562 254.58028 303.11874Q255.00215 302.80624 255.23653 302.15ZM251.7834 300.44687L255.25215 300.44687Q255.18965 299.65 254.86153 299.25937Q254.3459 298.65 253.54903 298.65Q252.81465 298.65 252.31465 299.13437Q251.83028 299.61874 251.7834 300.44687ZM260.2365 304.15L263.56464 299.66562L260.64276 295.55624L261.9865 295.55624L263.549 297.75937Q264.0334 298.44687 264.2365 298.82187Q264.5334 298.35312 264.924 297.8375L266.64276 295.55624L267.87714 295.55624L264.8615 299.60312L268.1115 304.15L266.70526 304.15L264.549 301.0875Q264.3615 300.82187 264.174 300.50937Q263.89276 300.97812 263.76776 301.15L261.6115 304.15L260.2365 304.15ZM268.7365 301.38437L269.799 301.29062Q269.87714 301.94687 270.1584 302.35312Q270.43964 302.75937 271.01776 303.025Q271.6115 303.275 272.3459 303.275Q272.9865 303.275 273.4865 303.0875Q273.9865 302.88437 274.2209 302.55624Q274.4709 302.2125 274.4709 301.82187Q274.4709 301.41562 274.2365 301.11874Q274.00214 300.80624 273.4709 300.60312Q273.1115 300.4625 271.924 300.18124Q270.75214 299.9 270.2834 299.65Q269.6584 299.32187 269.3615 298.85312Q269.06464 298.36874 269.06464 297.775Q269.06464 297.13437 269.424 296.57187Q269.799 295.99374 270.50214 295.7125Q271.2209 295.41562 272.08026 295.41562Q273.0334 295.41562 273.76776 295.72812Q274.50214 296.025 274.89276 296.63437Q275.2834 297.22812 275.31464 297.97812L274.2209 298.05624Q274.12714 297.24374 273.6115 296.8375Q273.1115 296.41562 272.12714 296.41562Q271.0959 296.41562 270.62714 296.79062Q270.1584 297.16562 270.1584 297.69687Q270.1584 298.16562 270.4865 298.4625Q270.81464 298.75937 272.18964 299.07187Q273.58026 299.38437 274.0959 299.61874Q274.8459 299.97812 275.20526 300.50937Q275.56464 301.025 275.56464 301.72812Q275.56464 302.41562 275.174 303.025Q274.7834 303.61874 274.049 303.9625Q273.31464 304.29062 272.39276 304.29062Q271.2209 304.29062 270.424 303.9625Q269.64276 303.61874 269.18964 302.93124Q268.75214 302.24374 268.7365 301.38437Z" fill-rule="nonzero"/><path fill="#000000" d="M325.7322 304.15L325.7322 295.55624L328.70096 295.55624Q329.70096 295.55624 330.2322 295.68124Q330.96658 295.85312 331.4822 296.29062Q332.1697 296.86874 332.49783 297.775Q332.84158 298.66562 332.84158 299.80624Q332.84158 300.79062 332.6072 301.54062Q332.38846 302.29062 332.02908 302.79062Q331.6697 303.29062 331.2322 303.57187Q330.81033 303.85312 330.21658 304.00937Q329.62283 304.15 328.84158 304.15L325.7322 304.15ZM326.87283 303.13437L328.70096 303.13437Q329.56033 303.13437 330.0447 302.97812Q330.52908 302.82187 330.81033 302.525Q331.21658 302.13437 331.43533 301.44687Q331.6697 300.75937 331.6697 299.79062Q331.6697 298.44687 331.21658 297.72812Q330.77908 296.99374 330.15408 296.74374Q329.68533 296.57187 328.68533 296.57187L326.87283 296.57187L326.87283 303.13437ZM338.8572 302.15L339.95096 302.275Q339.70096 303.22812 338.99783 303.75937Q338.2947 304.29062 337.21658 304.29062Q335.8572 304.29062 335.0447 303.44687Q334.24783 302.60312 334.24783 301.0875Q334.24783 299.525 335.06033 298.66562Q335.87283 297.79062 337.15408 297.79062Q338.40408 297.79062 339.18533 298.63437Q339.9822 299.47812 339.9822 301.025Q339.9822 301.11874 339.9822 301.30624L335.34158 301.30624Q335.40408 302.3375 335.9197 302.88437Q336.43533 303.41562 337.21658 303.41562Q337.7947 303.41562 338.20096 303.11874Q338.62283 302.80624 338.8572 302.15ZM335.40408 300.44687L338.87283 300.44687Q338.81033 299.65 338.4822 299.25937Q337.96658 298.65 337.1697 298.65Q336.43533 298.65 335.93533 299.13437Q335.45096 299.61874 335.40408 300.44687ZM341.18533 302.29062L342.21658 302.13437Q342.31033 302.75937 342.70096 303.0875Q343.1072 303.41562 343.84158 303.41562Q344.56033 303.41562 344.90408 303.13437Q345.26346 302.8375 345.26346 302.43124Q345.26346 302.07187 344.95096 301.86874Q344.7322 301.72812 343.87283 301.50937Q342.71658 301.2125 342.26346 301.00937Q341.82596 300.79062 341.59158 300.41562Q341.3572 300.04062 341.3572 299.57187Q341.3572 299.16562 341.5447 298.80624Q341.7322 298.44687 342.06033 298.2125Q342.31033 298.04062 342.7322 297.91562Q343.15408 297.79062 343.65408 297.79062Q344.37283 297.79062 344.9197 298.00937Q345.4822 298.2125 345.74783 298.57187Q346.01346 298.93124 346.1072 299.525L345.07596 299.66562Q345.01346 299.19687 344.6697 298.93124Q344.34158 298.65 343.71658 298.65Q342.99783 298.65 342.68533 298.9Q342.37283 299.13437 342.37283 299.4625Q342.37283 299.66562 342.49783 299.82187Q342.63846 299.99374 342.90408 300.10312Q343.06033 300.16562 343.84158 300.36874Q344.96658 300.68124 345.40408 300.86874Q345.84158 301.05624 346.09158 301.41562Q346.34158 301.775 346.34158 302.32187Q346.34158 302.85312 346.02908 303.32187Q345.7322 303.775 345.15408 304.04062Q344.57596 304.29062 343.84158 304.29062Q342.62283 304.29062 341.9822 303.79062Q341.3572 303.275 341.18533 302.29062ZM347.6072 304.15L347.6072 295.55624L348.6697 295.55624L348.6697 300.4625L351.15408 297.93124L352.52908 297.93124L350.13846 300.22812L352.76346 304.15L351.46658 304.15L349.40408 300.9625L348.6697 301.68124L348.6697 304.15L347.6072 304.15ZM355.90408 303.2125L356.06033 304.13437Q355.6072 304.22812 355.26346 304.22812Q354.68533 304.22812 354.37283 304.05624Q354.06033 303.86874 353.9197 303.57187Q353.7947 303.275 353.7947 302.32187L353.7947 298.74374L353.02908 298.74374L353.02908 297.93124L353.7947 297.93124L353.7947 296.38437L354.84158 295.75937L354.84158 297.93124L355.90408 297.93124L355.90408 298.74374L354.84158 298.74374L354.84158 302.38437Q354.84158 302.8375 354.88846 302.9625Q354.95096 303.0875 355.07596 303.16562Q355.20096 303.24374 355.43533 303.24374Q355.62283 303.24374 355.90408 303.2125ZM356.21658 301.04062Q356.21658 299.30624 357.1697 298.47812Q357.96658 297.79062 359.12283 297.79062Q360.40408 297.79062 361.21658 298.63437Q362.0447 299.4625 362.0447 300.94687Q362.0447 302.15 361.68533 302.8375Q361.32596 303.525 360.62283 303.91562Q359.93533 304.29062 359.12283 304.29062Q357.82596 304.29062 357.01346 303.4625Q356.21658 302.61874 356.21658 301.04062ZM357.2947 301.04062Q357.2947 302.22812 357.81033 302.82187Q358.34158 303.41562 359.12283 303.41562Q359.9197 303.41562 360.43533 302.82187Q360.95096 302.22812 360.95096 301.00937Q360.95096 299.85312 360.4197 299.25937Q359.90408 298.66562 359.12283 298.66562Q358.34158 298.66562 357.81033 299.25937Q357.2947 299.8375 357.2947 301.04062ZM363.6072 306.54062L363.6072 297.93124L364.56033 297.93124L364.56033 298.72812Q364.90408 298.25937 365.32596 298.025Q365.76346 297.79062 366.37283 297.79062Q367.1697 297.79062 367.77908 298.19687Q368.38846 298.60312 368.68533 299.35312Q368.99783 300.10312 368.99783 300.99374Q368.99783 301.94687 368.65408 302.7125Q368.32596 303.47812 367.6697 303.88437Q367.01346 304.29062 366.2947 304.29062Q365.76346 304.29062 365.34158 304.07187Q364.9197 303.8375 364.65408 303.50937L364.65408 306.54062L363.6072 306.54062ZM364.56033 301.07187Q364.56033 302.275 365.0447 302.85312Q365.52908 303.41562 366.21658 303.41562Q366.9197 303.41562 367.4197 302.82187Q367.9197 302.22812 367.9197 300.97812Q367.9197 299.79062 367.43533 299.2125Q366.95096 298.61874 366.26346 298.61874Q365.59158 298.61874 365.07596 299.24374Q364.56033 299.86874 364.56033 301.07187ZM373.68533 304.15L373.68533 295.55624L374.82596 295.55624L374.82596 303.13437L379.06033 303.13437L379.06033 304.15L373.68533 304.15ZM380.6072 296.775L380.6072 295.55624L381.6697 295.55624L381.6697 296.775L380.6072 296.775ZM380.6072 304.15L380.6072 297.93124L381.6697 297.93124L381.6697 304.15L380.6072 304.15ZM383.6072 304.15L383.6072 297.93124L384.5447 297.93124L384.5447 298.80624Q385.2322 297.79062 386.52908 297.79062Q387.09158 297.79062 387.56033 297.99374Q388.0447 298.19687 388.27908 298.525Q388.51346 298.85312 388.6072 299.29062Q388.65408 299.5875 388.65408 300.32187L388.65408 304.15L387.6072 304.15L387.6072 300.36874Q387.6072 299.7125 387.4822 299.4Q387.3572 299.0875 387.0447 298.9Q386.7322 298.69687 386.31033 298.69687Q385.63846 298.69687 385.13846 299.13437Q384.65408 299.55624 384.65408 300.74374L384.65408 304.15L383.6072 304.15ZM394.68533 304.15L394.68533 303.22812Q393.95096 304.29062 392.70096 304.29062Q392.15408 304.29062 391.6697 304.0875Q391.20096 303.86874 390.96658 303.55624Q390.7322 303.22812 390.63846 302.75937Q390.57596 302.4625 390.57596 301.775L390.57596 297.93124L391.63846 297.93124L391.63846 301.38437Q391.63846 302.19687 391.70096 302.49374Q391.7947 302.9 392.1072 303.15Q392.43533 303.38437 392.9197 303.38437Q393.38846 303.38437 393.7947 303.15Q394.21658 302.9 394.38846 302.47812Q394.57596 302.05624 394.57596 301.25937L394.57596 297.93124L395.62283 297.93124L395.62283 304.15L394.68533 304.15ZM396.90408 304.15L399.1697 300.91562L397.07596 297.93124L398.38846 297.93124L399.34158 299.38437Q399.6072 299.80624 399.77908 300.0875Q400.02908 299.69687 400.24783 299.4L401.2947 297.93124L402.56033 297.93124L400.40408 300.85312L402.71658 304.15L401.43533 304.15L400.15408 302.2125L399.81033 301.69687L398.1697 304.15L396.90408 304.15Z" fill-rule="nonzero"/><path fill="#000000" d="M445.32166 304.15L445.32166 295.55624L447.0404 295.55624L449.07166 301.63437Q449.3529 302.49374 449.4779 302.91562Q449.61853 302.44687 449.93103 301.54062L451.99353 295.55624L453.52478 295.55624L453.52478 304.15L452.43103 304.15L452.43103 296.9625L449.93103 304.15L448.89978 304.15L446.4154 296.8375L446.4154 304.15L445.32166 304.15ZM459.2904 303.38437Q458.69666 303.88437 458.14978 304.0875Q457.61853 304.29062 456.99353 304.29062Q455.96228 304.29062 455.4154 303.79062Q454.86853 303.29062 454.86853 302.50937Q454.86853 302.05624 455.07166 301.68124Q455.27478 301.29062 455.61853 301.07187Q455.96228 300.8375 456.38416 300.72812Q456.68103 300.63437 457.32166 300.55624Q458.58728 300.41562 459.19666 300.19687Q459.19666 299.97812 459.19666 299.93124Q459.19666 299.275 458.89978 299.00937Q458.49353 298.66562 457.69666 298.66562Q456.96228 298.66562 456.6029 298.93124Q456.24353 299.18124 456.07166 299.8375L455.0404 299.69687Q455.18103 299.04062 455.50916 298.63437Q455.83728 298.22812 456.44666 298.00937Q457.05603 297.79062 457.8529 297.79062Q458.64978 297.79062 459.14978 297.97812Q459.64978 298.16562 459.88416 298.44687Q460.11853 298.72812 460.21228 299.16562Q460.25916 299.43124 460.25916 300.13437L460.25916 301.54062Q460.25916 303.00937 460.32166 303.4Q460.39978 303.79062 460.6029 304.15L459.49353 304.15Q459.33728 303.82187 459.2904 303.38437ZM459.19666 301.025Q458.61853 301.25937 457.4779 301.43124Q456.82166 301.525 456.55603 301.65Q456.2904 301.75937 456.13416 301.97812Q455.99353 302.19687 455.99353 302.47812Q455.99353 302.9 456.30603 303.18124Q456.63416 303.4625 457.24353 303.4625Q457.8529 303.4625 458.32166 303.19687Q458.80603 302.93124 459.02478 302.4625Q459.19666 302.10312 459.19666 301.41562L459.19666 301.025ZM466.2904 301.86874L467.32166 302.00937Q467.14978 303.07187 466.44666 303.68124Q465.74353 304.29062 464.7279 304.29062Q463.44666 304.29062 462.6654 303.4625Q461.89978 302.61874 461.89978 301.05624Q461.89978 300.05624 462.2279 299.30624Q462.57166 298.54062 463.24353 298.16562Q463.93103 297.79062 464.74353 297.79062Q465.74353 297.79062 466.38416 298.30624Q467.0404 298.80624 467.2279 299.75937L466.19666 299.91562Q466.05603 299.29062 465.68103 298.97812Q465.30603 298.65 464.77478 298.65Q463.9779 298.65 463.4779 299.22812Q462.9779 299.79062 462.9779 301.025Q462.9779 302.29062 463.46228 302.85312Q463.94666 303.41562 464.71228 303.41562Q465.33728 303.41562 465.74353 303.04062Q466.1654 302.66562 466.2904 301.86874ZM469.19666 304.15L468.21228 304.15L468.21228 295.55624L469.27478 295.55624L469.27478 298.61874Q469.94666 297.79062 470.9779 297.79062Q471.55603 297.79062 472.05603 298.025Q472.57166 298.24374 472.89978 298.66562Q473.24353 299.0875 473.43103 299.68124Q473.61853 300.275 473.61853 300.94687Q473.61853 302.54062 472.82166 303.41562Q472.02478 304.29062 470.93103 304.29062Q469.82166 304.29062 469.19666 303.36874L469.19666 304.15ZM469.18103 300.99374Q469.18103 302.10312 469.49353 302.60312Q469.99353 303.41562 470.83728 303.41562Q471.52478 303.41562 472.02478 302.82187Q472.5404 302.22812 472.5404 301.025Q472.5404 299.80624 472.05603 299.22812Q471.57166 298.65 470.88416 298.65Q470.19666 298.65 469.68103 299.25937Q469.18103 299.85312 469.18103 300.99374ZM474.83728 301.04062Q474.83728 299.30624 475.7904 298.47812Q476.58728 297.79062 477.74353 297.79062Q479.02478 297.79062 479.83728 298.63437Q480.6654 299.4625 480.6654 300.94687Q480.6654 302.15 480.30603 302.8375Q479.94666 303.525 479.24353 303.91562Q478.55603 304.29062 477.74353 304.29062Q476.44666 304.29062 475.63416 303.4625Q474.83728 302.61874 474.83728 301.04062ZM475.9154 301.04062Q475.9154 302.22812 476.43103 302.82187Q476.96228 303.41562 477.74353 303.41562Q478.5404 303.41562 479.05603 302.82187Q479.57166 302.22812 479.57166 301.00937Q479.57166 299.85312 479.0404 299.25937Q478.52478 298.66562 477.74353 298.66562Q476.96228 298.66562 476.43103 299.25937Q475.9154 299.8375 475.9154 301.04062ZM481.83728 301.04062Q481.83728 299.30624 482.7904 298.47812Q483.58728 297.79062 484.74353 297.79062Q486.02478 297.79062 486.83728 298.63437Q487.6654 299.4625 487.6654 300.94687Q487.6654 302.15 487.30603 302.8375Q486.94666 303.525 486.24353 303.91562Q485.55603 304.29062 484.74353 304.29062Q483.44666 304.29062 482.63416 303.4625Q481.83728 302.61874 481.83728 301.04062ZM482.9154 301.04062Q482.9154 302.22812 483.43103 302.82187Q483.96228 303.41562 484.74353 303.41562Q485.5404 303.41562 486.05603 302.82187Q486.57166 302.22812 486.57166 301.00937Q486.57166 299.85312 486.0404 299.25937Q485.52478 298.66562 484.74353 298.66562Q483.96228 298.66562 483.43103 299.25937Q482.9154 299.8375 482.9154 301.04062ZM489.2279 304.15L489.2279 295.55624L490.2904 295.55624L490.2904 300.4625L492.77478 297.93124L494.14978 297.93124L491.75916 300.22812L494.38416 304.15L493.08728 304.15L491.02478 300.9625L490.2904 301.68124L490.2904 304.15L489.2279 304.15ZM498.3529 304.15L498.3529 295.55624L501.6029 295.55624Q502.44666 295.55624 502.89978 295.63437Q503.5404 295.74374 503.96228 296.04062Q504.39978 296.3375 504.64978 296.86874Q504.9154 297.4 504.9154 298.04062Q504.9154 299.13437 504.21228 299.9Q503.52478 300.65 501.69666 300.65L499.49353 300.65L499.49353 304.15L498.3529 304.15ZM499.49353 299.65L501.71228 299.65Q502.82166 299.65 503.27478 299.24374Q503.74353 298.82187 503.74353 298.07187Q503.74353 297.54062 503.46228 297.16562Q503.19666 296.775 502.75916 296.65Q502.46228 296.57187 501.69666 296.57187L499.49353 296.57187L499.49353 299.65ZM506.21228 304.15L506.21228 297.93124L507.1654 297.93124L507.1654 298.86874Q507.52478 298.2125 507.82166 298.00937Q508.13416 297.79062 508.50916 297.79062Q509.0404 297.79062 509.58728 298.11874L509.2279 299.10312Q508.83728 298.86874 508.46228 298.86874Q508.1029 298.86874 507.82166 299.0875Q507.55603 299.29062 507.44666 299.66562Q507.25916 300.22812 507.25916 300.88437L507.25916 304.15L506.21228 304.15ZM509.83728 301.04062Q509.83728 299.30624 510.7904 298.47812Q511.58728 297.79062 512.7435 297.79062Q514.0248 297.79062 514.8373 298.63437Q515.6654 299.4625 515.6654 300.94687Q515.6654 302.15 515.306 302.8375Q514.94666 303.525 514.2435 303.91562Q513.556 304.29062 512.7435 304.29062Q511.44666 304.29062 510.63416 303.4625Q509.83728 302.61874 509.83728 301.04062ZM510.9154 301.04062Q510.9154 302.22812 511.43103 302.82187Q511.96228 303.41562 512.7435 303.41562Q513.5404 303.41562 514.056 302.82187Q514.57166 302.22812 514.57166 301.00937Q514.57166 299.85312 514.0404 299.25937Q513.5248 298.66562 512.7435 298.66562Q511.96228 298.66562 511.43103 299.25937Q510.9154 299.8375 510.9154 301.04062Z" fill-rule="nonzero"/><path fill="#4285f4" d="M190.5 19.85C190.5 19.297716 190.94771 18.85 191.5 18.85L201.5 18.85C202.05229 18.85 202.5 19.297716 202.5 19.85L202.5 29.85C202.5 30.402285 202.05229 30.85 201.5 30.85L191.5 30.85C190.94771 30.85 190.5 30.402285 190.5 29.85Z" fill-rule="nonzero"/><path fill="#1a1a1a" d="M212.92188 28.85L210.64062 20.25625L211.8125 20.25625L213.125 25.896875Q213.32812 26.771875 213.48438 27.646875Q213.8125 26.271875 213.875 26.053125L215.5 20.25625L216.875 20.25625L218.10938 24.6Q218.5625 26.225 218.78125 27.646875Q218.9375 26.834375 219.20312 25.771875L220.54688 20.25625L221.6875 20.25625L219.34375 28.85L218.23438 28.85L216.4375 22.303125Q216.20312 21.490625 216.15625 21.303125Q216.03125 21.88125 215.90625 22.303125L214.09375 28.85L212.92188 28.85ZM221.48438 28.85L224.78125 20.25625L226.0 20.25625L229.51562 28.85L228.23438 28.85L227.21875 26.240625L223.64062 26.240625L222.6875 28.85L221.48438 28.85ZM223.96875 25.31875L226.875 25.31875L225.98438 22.94375Q225.5625 21.865625 225.375 21.1625Q225.20312 21.990625 224.90625 22.803125L223.96875 25.31875ZM230.04688 26.084375L231.10938 25.990625Q231.1875 26.646875 231.46875 27.053125Q231.75 27.459375 232.32812 27.725Q232.92188 27.975 233.65625 27.975Q234.29688 27.975 234.79688 27.7875Q235.29688 27.584375 235.53125 27.25625Q235.78125 26.9125 235.78125 26.521875Q235.78125 26.115625 235.54688 25.81875Q235.3125 25.50625 234.78125 25.303125Q234.42188 25.1625 233.23438 24.88125Q232.0625 24.6 231.59375 24.35Q230.96875 24.021875 230.67188 23.553125Q230.375 23.06875 230.375 22.475Q230.375 21.834375 230.73438 21.271875Q231.10938 20.69375 231.8125 20.4125Q232.53125 20.115625 233.39062 20.115625Q234.34375 20.115625 235.07812 20.428125Q235.8125 20.725 236.20312 21.334375Q236.59375 21.928125 236.625 22.678125L235.53125 22.75625Q235.4375 21.94375 234.92188 21.5375Q234.42188 21.115625 233.4375 21.115625Q232.40625 21.115625 231.9375 21.490625Q231.46875 21.865625 231.46875 22.396875Q231.46875 22.865625 231.79688 23.1625Q232.125 23.459375 233.5 23.771875Q234.89062 24.084375 235.40625 24.31875Q236.15625 24.678125 236.51562 25.209375Q236.875 25.725 236.875 26.428125Q236.875 27.115625 236.48438 27.725Q236.09375 28.31875 235.35938 28.6625Q234.625 28.990625 233.70312 28.990625Q232.53125 28.990625 231.73438 28.6625Q230.95312 28.31875 230.5 27.63125Q230.0625 26.94375 230.04688 26.084375ZM238.39062 28.85L238.39062 20.25625L240.10938 20.25625L242.14062 26.334375Q242.42188 27.19375 242.54688 27.615625Q242.6875 27.146875 243.0 26.240625L245.0625 20.25625L246.59375 20.25625L246.59375 28.85L245.5 28.85L245.5 21.6625L243.0 28.85L241.96875 28.85L239.48438 21.5375L239.48438 28.85L238.39062 28.85Z" fill-rule="nonzero"/><path fill="#ea4335" d="M263.5 19.85C263.5 19.297716 263.94772 18.85 264.5 18.85L274.5 18.85C275.05228 18.85 275.5 19.297716 275.5 19.85L275.5 29.85C275.5 30.402285 275.05228 30.85 274.5 30.85L264.5 30.85C263.94772 30.85 263.5 30.402285 263.5 29.85Z" fill-rule="nonzero"/><path fill="#1a1a1a" d="M285.92188 28.85L283.64062 20.25625L284.8125 20.25625L286.125 25.896875Q286.32812 26.771875 286.48438 27.646875Q286.8125 26.271875 286.875 26.053125L288.5 20.25625L289.875 20.25625L291.10938 24.6Q291.5625 26.225 291.78125 27.646875Q291.9375 26.834375 292.20312 25.771875L293.54688 20.25625L294.6875 20.25625L292.34375 28.85L291.23438 28.85L289.4375 22.303125Q289.20312 21.490625 289.15625 21.303125Q289.03125 21.88125 288.90625 22.303125L287.09375 28.85L285.92188 28.85ZM299.54688 26.85L300.64062 26.975Q300.39062 27.928125 299.6875 28.459375Q298.98438 28.990625 297.90625 28.990625Q296.54688 28.990625 295.73438 28.146875Q294.9375 27.303125 294.9375 25.7875Q294.9375 24.225 295.75 23.365625Q296.5625 22.490625 297.84375 22.490625Q299.09375 22.490625 299.875 23.334375Q300.67188 24.178125 300.67188 25.725Q300.67188 25.81875 300.67188 26.00625L296.03125 26.00625Q296.09375 27.0375 296.60938 27.584375Q297.125 28.115625 297.90625 28.115625Q298.48438 28.115625 298.89062 27.81875Q299.3125 27.50625 299.54688 26.85ZM296.09375 25.146875L299.5625 25.146875Q299.5 24.35 299.17188 23.959375Q298.65625 23.35 297.85938 23.35Q297.125 23.35 296.625 23.834375Q296.14062 24.31875 296.09375 25.146875ZM303.26562 28.85L302.28125 28.85L302.28125 20.25625L303.34375 20.25625L303.34375 23.31875Q304.01562 22.490625 305.04688 22.490625Q305.625 22.490625 306.125 22.725Q306.64062 22.94375 306.96875 23.365625Q307.3125 23.7875 307.5 24.38125Q307.6875 24.975 307.6875 25.646875Q307.6875 27.240625 306.89062 28.115625Q306.09375 28.990625 305.0 28.990625Q303.89062 28.990625 303.26562 28.06875L303.26562 28.85ZM303.25 25.69375Q303.25 26.803125 303.5625 27.303125Q304.0625 28.115625 304.90625 28.115625Q305.59375 28.115625 306.09375 27.521875Q306.60938 26.928125 306.60938 25.725Q306.60938 24.50625 306.125 23.928125Q305.64062 23.35 304.95312 23.35Q304.26562 23.35 303.75 23.959375Q303.25 24.553125 303.25 25.69375ZM313.45312 25.475L313.45312 24.475L317.07812 24.459375L317.07812 27.646875Q316.25 28.31875 315.35938 28.6625Q314.46875 28.990625 313.53125 28.990625Q312.26562 28.990625 311.21875 28.459375Q310.1875 27.9125 309.65625 26.896875Q309.14062 25.865625 309.14062 24.6Q309.14062 23.334375 309.65625 22.25625Q310.1875 21.1625 311.17188 20.646875Q312.15625 20.115625 313.4375 20.115625Q314.375 20.115625 315.125 20.4125Q315.875 20.709375 316.29688 21.25625Q316.73438 21.7875 316.95312 22.6625L315.9375 22.94375Q315.73438 22.2875 315.4375 21.9125Q315.15625 21.5375 314.625 21.31875Q314.09375 21.084375 313.45312 21.084375Q312.67188 21.084375 312.09375 21.31875Q311.53125 21.553125 311.17188 21.94375Q310.82812 22.334375 310.64062 22.803125Q310.3125 23.6 310.3125 24.521875Q310.3125 25.678125 310.70312 26.459375Q311.10938 27.225 311.85938 27.6Q312.60938 27.975 313.46875 27.975Q314.20312 27.975 314.90625 27.69375Q315.60938 27.396875 315.96875 27.084375L315.96875 25.475L313.45312 25.475ZM318.375 28.85L318.375 20.25625L319.51562 20.25625L319.51562 27.834375L323.75 27.834375L323.75 28.85L318.375 28.85Z" fill-rule="nonzero"/><path fill="#fbbc04" d="M340.5 19.85C340.5 19.297716 340.94772 18.85 341.5 18.85L351.5 18.85C352.05228 18.85 352.5 19.297716 352.5 19.85L352.5 29.85C352.5 30.402285 352.05228 30.85 351.5 30.85L341.5 30.85C340.94772 30.85 340.5 30.402285 340.5 29.85Z" fill-rule="nonzero"/><path fill="#1a1a1a" d="M367.5625 25.834375L368.6875 26.13125Q368.32812 27.521875 367.40625 28.25625Q366.48438 28.990625 365.14062 28.990625Q363.75 28.990625 362.875 28.428125Q362.0 27.865625 361.54688 26.803125Q361.09375 25.725 361.09375 24.490625Q361.09375 23.146875 361.60938 22.146875Q362.125 21.146875 363.0625 20.63125Q364.01562 20.115625 365.15625 20.115625Q366.4375 20.115625 367.3125 20.771875Q368.20312 21.428125 368.54688 22.615625L367.42188 22.88125Q367.125 21.94375 366.54688 21.521875Q365.98438 21.084375 365.125 21.084375Q364.14062 21.084375 363.46875 21.56875Q362.8125 22.0375 362.53125 22.834375Q362.26562 23.63125 362.26562 24.490625Q362.26562 25.584375 362.57812 26.396875Q362.90625 27.209375 363.57812 27.615625Q364.25 28.021875 365.04688 28.021875Q366.0 28.021875 366.65625 27.475Q367.32812 26.928125 367.5625 25.834375ZM370.42188 28.85L370.42188 20.25625L373.67188 20.25625Q374.51562 20.25625 374.96875 20.334375Q375.60938 20.44375 376.03125 20.740625Q376.46875 21.0375 376.71875 21.56875Q376.98438 22.1 376.98438 22.740625Q376.98438 23.834375 376.28125 24.6Q375.59375 25.35 373.76562 25.35L371.5625 25.35L371.5625 28.85L370.42188 28.85ZM371.5625 24.35L373.78125 24.35Q374.89062 24.35 375.34375 23.94375Q375.8125 23.521875 375.8125 22.771875Q375.8125 22.240625 375.53125 21.865625Q375.26562 21.475 374.82812 21.35Q374.53125 21.271875 373.76562 21.271875L371.5625 21.271875L371.5625 24.35ZM384.0625 20.25625L385.20312 20.25625L385.20312 25.225Q385.20312 26.521875 384.90625 27.2875Q384.60938 28.0375 383.84375 28.521875Q383.07812 28.990625 381.84375 28.990625Q380.64062 28.990625 379.85938 28.584375Q379.09375 28.1625 378.76562 27.38125Q378.4375 26.584375 378.4375 25.225L378.4375 20.25625L379.57812 20.25625L379.57812 25.209375Q379.57812 26.334375 379.78125 26.865625Q380.0 27.396875 380.5 27.69375Q381.01562 27.975 381.75 27.975Q383.0 27.975 383.53125 27.4125Q384.0625 26.834375 384.0625 25.209375L384.0625 20.25625Z" fill-rule="nonzero"/></svg>