<svg width="252" height="252" viewBox="0 0 252 252" fill="none" xmlns="http://www.w3.org/2000/svg">
<path d="M101.279 161.464C94.1558 169.2 84.8885 174.65 74.6536 177.123C64.4186 179.596 53.6777 178.981 43.7941 175.355C33.9106 171.729 25.3302 165.256 19.142 156.757C12.9539 148.259 9.43716 138.118 9.03817 127.623C8.63917 117.127 11.3759 106.751 16.9011 97.8092C22.4262 88.8678 30.4905 81.7654 40.0704 77.4033C49.6502 73.0413 60.3136 71.6164 70.7069 73.3095C81.1003 75.0027 90.7548 79.7375 98.4451 86.9129L144.677 56.8804C140.948 47.8468 140.686 37.7601 143.939 28.5458C147.193 19.3314 153.735 11.6346 162.317 6.92476C170.898 2.2149 180.919 0.821776 190.465 3.01133C200.011 5.20089 208.414 10.8198 214.07 18.7954C219.727 26.771 222.24 36.5448 221.131 46.251C220.021 55.9572 215.367 64.916 208.056 71.4174C200.745 77.9187 191.289 81.5072 181.494 81.4978C171.698 81.4885 162.25 77.8819 154.951 71.3666L109.25 101.046C113.215 108.627 115.281 117.052 115.273 125.602C115.307 132.825 113.86 139.979 111.022 146.625L177.447 183.9C183.698 176.372 192.511 171.404 202.202 169.947C211.893 168.489 221.783 170.644 229.982 176C238.181 181.355 244.113 189.536 246.646 198.979C249.179 208.421 248.134 218.464 243.712 227.187C239.29 235.91 231.8 242.702 222.673 246.265C213.547 249.828 203.424 249.913 194.239 246.502C185.054 243.092 177.451 236.426 172.883 227.778C168.315 219.13 167.102 209.107 169.476 199.623L101.279 161.464Z" fill="#DFA717"/>
<circle cx="65" cy="128" r="61" fill="#D24141"/>
</svg>
