<svg id="Layer_1" data-name="Layer 1" xmlns="http://www.w3.org/2000/svg" viewBox="0 0 1366 768"><defs><style>.cls-1{opacity:0.5;}.cls-2{fill:#4e4d55;}.cls-3{fill:#949299;}.cls-4{fill:#fff;}.cls-5{fill:#706f77;}.cls-6{fill:#5c5964;}.cls-7{fill:#c1bbbb;}.cls-8{fill:#ddd8d5;}.cls-9{fill:#b94b4c;}.cls-10{fill:none;stroke:#c1bbbb;stroke-linecap:round;stroke-linejoin:round;stroke-width:2px;}.cls-11{fill:#525157;}.cls-12{fill:gray;}.cls-13{opacity:0.75;}</style></defs><title>Webcam_Error</title><g class="cls-1"><rect class="cls-2" x="506.91" y="194.13" width="13" height="71"/><rect class="cls-2" x="573.91" y="216.63" width="11" height="27"/><rect class="cls-2" x="600.91" y="299.63" width="146" height="16"/><rect class="cls-2" x="623.91" y="316.63" width="73" height="16"/><rect class="cls-3" x="519.91" y="194.13" width="2" height="71" transform="translate(1041.81 459.26) rotate(180)"/><path class="cls-3" d="M524.91,265.13h26.7a21.3,21.3,0,0,0,21.3-21.29V215.43a21.3,21.3,0,0,0-21.3-21.3h-26.7Z"/><rect class="cls-4" x="504.91" y="199.63" width="10" height="4"/><rect class="cls-4" x="504.91" y="206.63" width="10" height="4"/><rect class="cls-4" x="504.91" y="213.63" width="10" height="4"/><rect class="cls-4" x="504.91" y="220.63" width="10" height="4"/><rect class="cls-4" x="504.91" y="227.63" width="10" height="4"/><rect class="cls-4" x="504.91" y="234.63" width="10" height="4"/><rect class="cls-4" x="504.91" y="241.63" width="10" height="4"/><rect class="cls-4" x="504.91" y="248.63" width="10" height="4"/><rect class="cls-2" x="796.91" y="187.63" width="35" height="30"/><rect class="cls-5" x="817.91" y="191.63" width="17" height="6"/><rect class="cls-5" x="812.91" y="199.63" width="22" height="6"/><rect class="cls-5" x="805.91" y="207.63" width="29" height="6"/><rect class="cls-4" x="504.91" y="255.63" width="10" height="4"/><path class="cls-6" d="M474.41,165.13h0a34,34,0,0,1,34,34v61a34,34,0,0,1-34,34h0a0,0,0,0,1,0,0v-129A0,0,0,0,1,474.41,165.13Z"/><path class="cls-3" d="M584.91,146.63h169a41,41,0,0,1,41,41v71a41,41,0,0,1-41,41h-169a0,0,0,0,1,0,0v-153A0,0,0,0,1,584.91,146.63Z"/><rect class="cls-5" x="831.91" y="177.63" width="7" height="50" transform="translate(1670.81 405.26) rotate(180)"/><circle class="cls-7" cx="642.41" cy="193.13" r="26"/><circle class="cls-8" cx="642.41" cy="193.13" r="15"/><circle class="cls-7" cx="665.91" cy="224.63" r="12"/><circle class="cls-8" cx="665.91" cy="224.63" r="6"/><circle class="cls-7" cx="674.91" cy="206.63" r="5"/><circle class="cls-8" cx="674.91" cy="206.63" r="2.5"/><rect class="cls-9" x="736.91" y="170.63" width="12" height="12"/><rect class="cls-9" x="579.91" y="159.63" width="5" height="12"/><rect class="cls-5" x="754.91" y="257.63" width="16" height="16" rx="3.39" ry="3.39"/><rect class="cls-5" x="734.91" y="257.63" width="16" height="16" rx="3.39" ry="3.39"/><path class="cls-10" d="M641.7,431.43c0,14.7-6.29,36.62-6.29,48.7,0,38,98.5,51.5,79,2-1.81-4.58-17.69-23.26-17-42,2.5-68.5,133.82-86.07,137.5-12.5,1,20-26,38-47,29a14.41,14.41,0,0,1-9-11,11.86,11.86,0,0,1,.89-6.41,15.76,15.76,0,0,1,12.91-9.4c7.67-.85,15.53.64,20.2,8.81,8,14,6,46,30,43"/><path class="cls-7" d="M865.91,480.37v-2.3H856v-3.44H844.15a4.24,4.24,0,0,0-4.24,4.25v7.57a4.24,4.24,0,0,0,4.24,4.24H856v-3.44h9.95V485H856v-4.59Z"/><path class="cls-7" d="M877.76,459.67A93.2,93.2,0,0,0,868.2,469c-1.28,1.44.84,3.57,2.12,2.13a93.27,93.27,0,0,1,9.56-9.3C881.36,460.55,879.23,458.43,877.76,459.67Z"/><path class="cls-7" d="M890.15,475l-15.14.82c-1.92.11-1.93,3.11,0,3l15.14-.82C892.07,477.86,892.08,474.86,890.15,475Z"/><path class="cls-7" d="M887.33,488.53A49.87,49.87,0,0,0,876,485.47c-1.89-.28-2.71,2.61-.8,2.89a49.87,49.87,0,0,1,11.38,3.06C888.33,492.14,889.1,489.24,887.33,488.53Z"/><path class="cls-7" d="M878.1,502.16a47.27,47.27,0,0,0-7-8c-1.43-1.3-3.56.82-2.12,2.12a43.84,43.84,0,0,1,6.53,7.41C876.61,505.25,879.21,503.75,878.1,502.16Z"/><path class="cls-7" d="M859.63,494.36a25.23,25.23,0,0,0-3.59,9.92,1.5,1.5,0,0,0,3,.44,21.82,21.82,0,0,1,3-8.53C863,494.57,860.63,492.71,859.63,494.36Z"/><path class="cls-7" d="M856.24,459.09a25.52,25.52,0,0,0,2.13,10.33,1.5,1.5,0,0,0,2.76-1.18,22,22,0,0,1-1.91-8.83C859.22,457.5,856.24,457.15,856.24,459.09Z"/><rect class="cls-5" x="714.91" y="257.63" width="16" height="16" rx="3.39" ry="3.39"/><rect class="cls-11" x="623.91" y="333.63" width="36" height="106"/><rect class="cls-7" x="646.91" y="360.63" width="10" height="4"/><rect class="cls-7" x="646.91" y="367.63" width="10" height="4"/><rect class="cls-7" x="646.91" y="374.63" width="10" height="4"/><rect class="cls-7" x="646.91" y="381.63" width="10" height="4"/><rect class="cls-7" x="646.91" y="388.63" width="10" height="4"/><rect class="cls-7" x="646.91" y="395.63" width="10" height="4"/><rect class="cls-7" x="646.91" y="402.63" width="10" height="4"/><rect class="cls-7" x="646.91" y="409.63" width="10" height="4"/></g><g class="cls-1"><rect class="cls-4" x="432.63" y="253.13" width="500.75" height="81.75" rx="10.82" ry="10.82"/><path class="cls-12" d="M922.56,253.25a10.71,10.71,0,0,1,10.69,10.69v60.12a10.71,10.71,0,0,1-10.69,10.69H443.44a10.71,10.71,0,0,1-10.69-10.69V263.94a10.71,10.71,0,0,1,10.69-10.69H922.56m0-.25H443.44a10.94,10.94,0,0,0-10.94,10.94v60.12A10.94,10.94,0,0,0,443.44,335H922.56a10.94,10.94,0,0,0,10.94-10.94V263.94A10.94,10.94,0,0,0,922.56,253Z"/></g><g class="cls-13"><path d="M521.51,277a10.39,10.39,0,0,1-.84,4.33,6.28,6.28,0,0,1-2.36,2.82,6.52,6.52,0,0,1-9.49-2.8,9.9,9.9,0,0,1-.87-4.2V275.9a10.38,10.38,0,0,1,.84-4.3,6.65,6.65,0,0,1,9.5-2.86,6.24,6.24,0,0,1,2.38,2.83,10.42,10.42,0,0,1,.84,4.33Zm-2.22-1.09a7.59,7.59,0,0,0-1.2-4.6,4,4,0,0,0-3.37-1.6,3.93,3.93,0,0,0-3.32,1.6,7.42,7.42,0,0,0-1.24,4.45V277a7.54,7.54,0,0,0,1.22,4.57,4.28,4.28,0,0,0,6.7.09,7.54,7.54,0,0,0,1.21-4.5Z"/><path d="M524.41,278.47a7.42,7.42,0,0,1,.72-3.31,5.34,5.34,0,0,1,5-3.07,5.3,5.3,0,0,1,4.14,1.77,6.83,6.83,0,0,1,1.58,4.71v.15a7.6,7.6,0,0,1-.7,3.29,5.38,5.38,0,0,1-2,2.26,5.54,5.54,0,0,1-3,.81,5.28,5.28,0,0,1-4.13-1.77,6.81,6.81,0,0,1-1.58-4.69Zm2.15.25a5.4,5.4,0,0,0,1,3.35,3.11,3.11,0,0,0,2.59,1.26,3.07,3.07,0,0,0,2.59-1.28,5.86,5.86,0,0,0,1-3.58,5.34,5.34,0,0,0-1-3.34,3.26,3.26,0,0,0-5.16,0A5.81,5.81,0,0,0,526.56,278.72Z"/><path d="M549.56,278.72a7.5,7.5,0,0,1-1.31,4.61,4.18,4.18,0,0,1-3.54,1.75,4.58,4.58,0,0,1-3.59-1.45v6H539V272.32h1.95l.11,1.39a4.4,4.4,0,0,1,3.63-1.62,4.3,4.3,0,0,1,3.58,1.7,7.61,7.61,0,0,1,1.31,4.74Zm-2.14-.24a5.57,5.57,0,0,0-.9-3.35,2.94,2.94,0,0,0-2.48-1.22,3.15,3.15,0,0,0-2.92,1.72v6a3.15,3.15,0,0,0,2.94,1.71,2.91,2.91,0,0,0,2.45-1.22A6,6,0,0,0,547.42,278.48Z"/><path d="M560.05,281.52a1.58,1.58,0,0,0-.65-1.34,6.33,6.33,0,0,0-2.28-.83,10.48,10.48,0,0,1-2.59-.84,3.77,3.77,0,0,1-1.41-1.15,2.81,2.81,0,0,1-.46-1.6,3.26,3.26,0,0,1,1.31-2.61,5,5,0,0,1,3.32-1.06,5.19,5.19,0,0,1,3.46,1.1,3.47,3.47,0,0,1,1.33,2.81h-2.16a2,2,0,0,0-.74-1.52,2.84,2.84,0,0,0-1.89-.63,2.92,2.92,0,0,0-1.82.51,1.6,1.6,0,0,0-.66,1.33,1.29,1.29,0,0,0,.61,1.17,7.69,7.69,0,0,0,2.22.75,11.77,11.77,0,0,1,2.6.86,3.75,3.75,0,0,1,1.47,1.2,2.91,2.91,0,0,1,.48,1.7,3.21,3.21,0,0,1-1.34,2.7,5.69,5.69,0,0,1-3.49,1,6.38,6.38,0,0,1-2.66-.53,4.38,4.38,0,0,1-1.81-1.49,3.57,3.57,0,0,1-.65-2.07h2.14a2.21,2.21,0,0,0,.86,1.71,3.34,3.34,0,0,0,2.12.63,3.45,3.45,0,0,0,2-.49A1.52,1.52,0,0,0,560.05,281.52Z"/><path d="M565.69,283.76a1.29,1.29,0,0,1,.32-.88,1.18,1.18,0,0,1,.94-.36,1.21,1.21,0,0,1,.95.36,1.25,1.25,0,0,1,.33.88,1.21,1.21,0,0,1-.33.87,1.25,1.25,0,0,1-.95.35,1.21,1.21,0,0,1-.94-.35A1.24,1.24,0,0,1,565.69,283.76Zm2.16-3.69h-1.93L565.77,268H568Z"/><path d="M582.35,279.53l.33,2.23.47-2L586.48,268h1.88l3.25,11.76.47,2,.36-2.27L595.05,268h2.24l-4.09,16.86h-2l-3.47-12.29-.27-1.28-.26,1.28-3.6,12.29h-2L577.46,268h2.23Z"/><path d="M604.73,285.08a5.48,5.48,0,0,1-4.14-1.67,6.21,6.21,0,0,1-1.6-4.48v-.39a7.58,7.58,0,0,1,.71-3.33,5.57,5.57,0,0,1,2-2.29,5,5,0,0,1,2.78-.83,4.68,4.68,0,0,1,3.8,1.61,7,7,0,0,1,1.35,4.61v.89h-8.49a4.41,4.41,0,0,0,1.09,3,3.39,3.39,0,0,0,2.63,1.14,3.69,3.69,0,0,0,1.92-.46,4.74,4.74,0,0,0,1.38-1.23l1.31,1A5.28,5.28,0,0,1,604.73,285.08Zm-.26-11.23a2.85,2.85,0,0,0-2.18.94,4.57,4.57,0,0,0-1.09,2.65h6.28v-.16a4.08,4.08,0,0,0-.88-2.53A2.7,2.7,0,0,0,604.47,273.85Z"/><path d="M623.94,283.33a3.12,3.12,0,0,0,2-.69,2.51,2.51,0,0,0,.95-1.74h2a3.86,3.86,0,0,1-.74,2.05,4.76,4.76,0,0,1-1.82,1.55,5.23,5.23,0,0,1-2.42.58,5.17,5.17,0,0,1-4.07-1.71,6.83,6.83,0,0,1-1.51-4.67v-.36a7.49,7.49,0,0,1,.67-3.25,5.08,5.08,0,0,1,1.93-2.21,5.45,5.45,0,0,1,3-.79,5,5,0,0,1,3.5,1.26,4.5,4.5,0,0,1,1.49,3.28h-2a3,3,0,0,0-.93-2,2.86,2.86,0,0,0-2-.78A3,3,0,0,0,621.4,275a5.53,5.53,0,0,0-.9,3.4v.41a5.36,5.36,0,0,0,.9,3.33A3,3,0,0,0,623.94,283.33Z"/><path d="M639.54,284.85a4.78,4.78,0,0,1-.3-1.32,4.81,4.81,0,0,1-3.57,1.55,4.43,4.43,0,0,1-3-1.05,3.39,3.39,0,0,1-1.18-2.66,3.56,3.56,0,0,1,1.48-3,7.06,7.06,0,0,1,4.19-1.08h2.08v-1a2.39,2.39,0,0,0-.67-1.79,2.72,2.72,0,0,0-2-.67,3.17,3.17,0,0,0-1.92.58,1.72,1.72,0,0,0-.78,1.4H631.7a2.92,2.92,0,0,1,.67-1.81,4.52,4.52,0,0,1,1.8-1.38,6.09,6.09,0,0,1,2.51-.51,5,5,0,0,1,3.39,1.08,3.9,3.9,0,0,1,1.28,3v5.77a6.91,6.91,0,0,0,.44,2.74v.19ZM636,283.22a3.78,3.78,0,0,0,1.92-.53,3.12,3.12,0,0,0,1.3-1.35v-2.57h-1.68q-3.93,0-3.93,2.3a1.94,1.94,0,0,0,.67,1.58A2.57,2.57,0,0,0,636,283.22Z"/><path d="M647.2,272.32l.07,1.57a4.58,4.58,0,0,1,3.76-1.8c2.64,0,4,1.49,4,4.48v8.28h-2.14v-8.29a2.89,2.89,0,0,0-.62-2,2.5,2.5,0,0,0-1.89-.64,3.07,3.07,0,0,0-1.83.55,3.72,3.72,0,0,0-1.23,1.46v8.93h-2.14V272.32Z"/><path d="M657.54,272.74l-1.21-.84a5.52,5.52,0,0,0,1.11-3.17v-1.67h2.12v1.51a5.46,5.46,0,0,1-.57,2.31A5.36,5.36,0,0,1,657.54,272.74Z"/><path d="M665.51,269.29v3h2.34V274h-2.34v7.77a1.82,1.82,0,0,0,.31,1.14,1.33,1.33,0,0,0,1.07.37,4.66,4.66,0,0,0,1-.14v1.73a6.43,6.43,0,0,1-1.65.23,2.66,2.66,0,0,1-2.16-.87,3.7,3.7,0,0,1-.73-2.46V274h-2.28v-1.66h2.28v-3Z"/><path d="M676.65,278.48a7.36,7.36,0,0,1,1.36-4.64,4.67,4.67,0,0,1,7.07-.25v-6.53h2.14v17.79h-2l-.1-1.34a4.39,4.39,0,0,1-3.58,1.57A4.28,4.28,0,0,1,678,283.3a7.46,7.46,0,0,1-1.37-4.66Zm2.14.24a5.57,5.57,0,0,0,.88,3.34,2.85,2.85,0,0,0,2.43,1.2,3.13,3.13,0,0,0,3-1.83v-5.75a3.15,3.15,0,0,0-3-1.77,2.87,2.87,0,0,0-2.46,1.21A6.09,6.09,0,0,0,678.79,278.72Z"/><path d="M696.22,285.08a5.51,5.51,0,0,1-4.15-1.67,6.25,6.25,0,0,1-1.6-4.48v-.39a7.44,7.44,0,0,1,.72-3.33,5.43,5.43,0,0,1,2-2.29,4.94,4.94,0,0,1,2.77-.83,4.67,4.67,0,0,1,3.8,1.61,7,7,0,0,1,1.35,4.61v.89h-8.48a4.45,4.45,0,0,0,1.08,3,3.4,3.4,0,0,0,2.63,1.14,3.75,3.75,0,0,0,1.93-.46,4.84,4.84,0,0,0,1.37-1.23l1.31,1A5.26,5.26,0,0,1,696.22,285.08ZM696,273.85a2.87,2.87,0,0,0-2.18.94,4.57,4.57,0,0,0-1.08,2.65H699v-.16a4,4,0,0,0-.88-2.53A2.67,2.67,0,0,0,696,273.85Z"/><path d="M707,269.29v3h2.34V274H707v7.77a1.76,1.76,0,0,0,.32,1.14,1.3,1.3,0,0,0,1.06.37,4.66,4.66,0,0,0,1-.14v1.73a6.36,6.36,0,0,1-1.64.23,2.68,2.68,0,0,1-2.17-.87,3.7,3.7,0,0,1-.73-2.46V274h-2.28v-1.66h2.28v-3Z"/><path d="M717.48,285.08a5.51,5.51,0,0,1-4.15-1.67,6.21,6.21,0,0,1-1.6-4.48v-.39a7.58,7.58,0,0,1,.71-3.33,5.52,5.52,0,0,1,2-2.29,4.92,4.92,0,0,1,2.77-.83,4.68,4.68,0,0,1,3.8,1.61,7,7,0,0,1,1.35,4.61v.89h-8.49a4.46,4.46,0,0,0,1.09,3,3.4,3.4,0,0,0,2.63,1.14,3.69,3.69,0,0,0,1.92-.46,4.74,4.74,0,0,0,1.38-1.23l1.31,1A5.26,5.26,0,0,1,717.48,285.08Zm-.27-11.23a2.85,2.85,0,0,0-2.18.94,4.64,4.64,0,0,0-1.09,2.65h6.28v-.16a4,4,0,0,0-.88-2.53A2.69,2.69,0,0,0,717.21,273.85Z"/><path d="M730.34,283.33a3.1,3.1,0,0,0,2-.69,2.47,2.47,0,0,0,.95-1.74h2a3.94,3.94,0,0,1-.74,2.05,4.87,4.87,0,0,1-1.83,1.55,5.55,5.55,0,0,1-6.48-1.13,6.78,6.78,0,0,1-1.51-4.67v-.36a7.49,7.49,0,0,1,.67-3.25,5.08,5.08,0,0,1,1.93-2.21,5.45,5.45,0,0,1,3-.79,5,5,0,0,1,3.5,1.26,4.5,4.5,0,0,1,1.49,3.28h-2a3,3,0,0,0-.92-2,2.86,2.86,0,0,0-2-.78A3,3,0,0,0,727.8,275a5.53,5.53,0,0,0-.9,3.4v.41a5.43,5.43,0,0,0,.89,3.33A3,3,0,0,0,730.34,283.33Z"/><path d="M741.11,269.29v3h2.34V274h-2.34v7.77a1.76,1.76,0,0,0,.31,1.14,1.32,1.32,0,0,0,1.07.37,4.81,4.81,0,0,0,1-.14v1.73a6.49,6.49,0,0,1-1.65.23,2.64,2.64,0,0,1-2.16-.87,3.7,3.7,0,0,1-.73-2.46V274h-2.28v-1.66H739v-3Z"/><path d="M760.5,284.85a4.78,4.78,0,0,1-.3-1.32,4.78,4.78,0,0,1-3.57,1.55,4.4,4.4,0,0,1-3-1.05,3.36,3.36,0,0,1-1.19-2.66,3.54,3.54,0,0,1,1.49-3,7,7,0,0,1,4.18-1.08h2.09v-1a2.43,2.43,0,0,0-.67-1.79,2.72,2.72,0,0,0-2-.67,3.18,3.18,0,0,0-1.93.58,1.73,1.73,0,0,0-.77,1.4h-2.16a3,3,0,0,1,.67-1.81,4.48,4.48,0,0,1,1.81-1.38,6,6,0,0,1,2.5-.51,4.93,4.93,0,0,1,3.39,1.08,3.9,3.9,0,0,1,1.28,3v5.77a6.91,6.91,0,0,0,.44,2.74v.19ZM757,283.22a3.75,3.75,0,0,0,1.91-.53,3.15,3.15,0,0,0,1.31-1.35v-2.57h-1.68q-3.94,0-3.94,2.3a1.94,1.94,0,0,0,.67,1.58A2.58,2.58,0,0,0,757,283.22Z"/><path d="M777.51,283.33a3.08,3.08,0,0,0,2-.69,2.44,2.44,0,0,0,1-1.74h2a3.94,3.94,0,0,1-.74,2.05,4.84,4.84,0,0,1-1.82,1.55,5.23,5.23,0,0,1-2.42.58,5.17,5.17,0,0,1-4.07-1.71,6.78,6.78,0,0,1-1.51-4.67v-.36a7.49,7.49,0,0,1,.67-3.25,5.08,5.08,0,0,1,1.93-2.21,5.45,5.45,0,0,1,3-.79,5,5,0,0,1,3.5,1.26,4.5,4.5,0,0,1,1.49,3.28h-2a2.91,2.91,0,0,0-.92-2,2.86,2.86,0,0,0-2-.78A3,3,0,0,0,775,275a5.53,5.53,0,0,0-.9,3.4v.41a5.43,5.43,0,0,0,.89,3.33A3,3,0,0,0,777.51,283.33Z"/><path d="M793.11,284.85a4.44,4.44,0,0,1-.3-1.32,4.81,4.81,0,0,1-3.57,1.55,4.43,4.43,0,0,1-3-1.05,3.39,3.39,0,0,1-1.19-2.66,3.56,3.56,0,0,1,1.49-3,7,7,0,0,1,4.19-1.08h2.08v-1a2.39,2.39,0,0,0-.67-1.79,2.72,2.72,0,0,0-2-.67,3.17,3.17,0,0,0-1.92.58,1.72,1.72,0,0,0-.78,1.4h-2.15a2.92,2.92,0,0,1,.67-1.81,4.52,4.52,0,0,1,1.8-1.38,6.09,6.09,0,0,1,2.51-.51,5,5,0,0,1,3.39,1.08,3.94,3.94,0,0,1,1.28,3v5.77a6.91,6.91,0,0,0,.44,2.74v.19Zm-3.56-1.63a3.72,3.72,0,0,0,1.91-.53,3.09,3.09,0,0,0,1.31-1.35v-2.57h-1.68q-3.93,0-3.93,2.3a1.94,1.94,0,0,0,.67,1.58A2.57,2.57,0,0,0,789.55,283.22Z"/><path d="M800.76,272.32l.06,1.39a4.64,4.64,0,0,1,3.72-1.62,3.57,3.57,0,0,1,3.57,2,4.65,4.65,0,0,1,4-2q4.13,0,4.19,4.36v8.4h-2.14v-8.27a2.94,2.94,0,0,0-.61-2,2.73,2.73,0,0,0-2.07-.66,2.83,2.83,0,0,0-2,.71,2.86,2.86,0,0,0-.91,1.91v8.32h-2.15v-8.21a2.39,2.39,0,0,0-2.68-2.73,2.86,2.86,0,0,0-2.88,1.79v9.15h-2.14V272.32Z"/><path d="M825.2,285.08a5.48,5.48,0,0,1-4.14-1.67,6.21,6.21,0,0,1-1.6-4.48v-.39a7.58,7.58,0,0,1,.71-3.33,5.52,5.52,0,0,1,2-2.29,4.92,4.92,0,0,1,2.77-.83,4.68,4.68,0,0,1,3.8,1.61,7,7,0,0,1,1.35,4.61v.89H821.6a4.46,4.46,0,0,0,1.09,3,3.4,3.4,0,0,0,2.63,1.14,3.69,3.69,0,0,0,1.92-.46,4.74,4.74,0,0,0,1.38-1.23l1.31,1A5.28,5.28,0,0,1,825.2,285.08Zm-.26-11.23a2.85,2.85,0,0,0-2.18.94,4.57,4.57,0,0,0-1.09,2.65H828v-.16a4.08,4.08,0,0,0-.88-2.53A2.7,2.7,0,0,0,824.94,273.85Z"/><path d="M839.1,274.24a6.89,6.89,0,0,0-1.05-.08,2.82,2.82,0,0,0-2.86,1.8v8.89H833V272.32h2.09l0,1.45a3.35,3.35,0,0,1,3-1.68,2.17,2.17,0,0,1,1,.16Z"/><path d="M848.92,284.85a4.44,4.44,0,0,1-.3-1.32,4.81,4.81,0,0,1-3.57,1.55,4.43,4.43,0,0,1-3-1.05,3.39,3.39,0,0,1-1.19-2.66,3.56,3.56,0,0,1,1.49-3,7.06,7.06,0,0,1,4.19-1.08h2.08v-1a2.39,2.39,0,0,0-.67-1.79,2.72,2.72,0,0,0-2-.67,3.17,3.17,0,0,0-1.92.58,1.72,1.72,0,0,0-.78,1.4h-2.15a2.92,2.92,0,0,1,.67-1.81,4.52,4.52,0,0,1,1.8-1.38,6.09,6.09,0,0,1,2.51-.51,5,5,0,0,1,3.39,1.08,3.94,3.94,0,0,1,1.28,3v5.77a6.91,6.91,0,0,0,.44,2.74v.19Zm-3.56-1.63a3.72,3.72,0,0,0,1.91-.53,3.09,3.09,0,0,0,1.31-1.35v-2.57H846.9q-3.93,0-3.93,2.3a1.94,1.94,0,0,0,.67,1.58A2.57,2.57,0,0,0,845.36,283.22Z"/><path d="M854.6,283.72a1.33,1.33,0,0,1,.33-.92,1.25,1.25,0,0,1,1-.37,1.31,1.31,0,0,1,1,.37,1.34,1.34,0,0,1,.34.92,1.29,1.29,0,0,1-.34.9,1.34,1.34,0,0,1-1,.36,1.19,1.19,0,0,1-1.32-1.26Z"/><path d="M471.41,309.34v6.6h-2.22V299.08h6.21a6.26,6.26,0,0,1,4.34,1.41,4.78,4.78,0,0,1,1.57,3.74,4.7,4.7,0,0,1-1.54,3.78,6.47,6.47,0,0,1-4.39,1.33Zm0-1.82h4a4,4,0,0,0,2.74-.84,3.08,3.08,0,0,0,.95-2.43,3.19,3.19,0,0,0-.95-2.41,3.71,3.71,0,0,0-2.61-.94h-4.12Z"/><path d="M486.61,315.94h-2.14V298.15h2.14Z"/><path d="M495.71,316.17a5.47,5.47,0,0,1-4.14-1.67A6.21,6.21,0,0,1,490,310v-.39a7.61,7.61,0,0,1,.71-3.33,5.57,5.57,0,0,1,2-2.29,5.05,5.05,0,0,1,2.78-.83,4.68,4.68,0,0,1,3.79,1.61,6.93,6.93,0,0,1,1.36,4.61v.89h-8.49a4.45,4.45,0,0,0,1.08,3,3.42,3.42,0,0,0,2.64,1.14,3.69,3.69,0,0,0,1.92-.46,4.87,4.87,0,0,0,1.38-1.23l1.31,1A5.26,5.26,0,0,1,495.71,316.17Zm-.26-11.23a2.85,2.85,0,0,0-2.18.94,4.57,4.57,0,0,0-1.09,2.65h6.28v-.16a4.08,4.08,0,0,0-.88-2.53A2.7,2.7,0,0,0,495.45,304.94Z"/><path d="M511.29,315.94a4.14,4.14,0,0,1-.3-1.32,4.81,4.81,0,0,1-3.57,1.55,4.41,4.41,0,0,1-3-1.05,3.37,3.37,0,0,1-1.19-2.65,3.54,3.54,0,0,1,1.49-3,7,7,0,0,1,4.19-1.09H511v-1a2.39,2.39,0,0,0-.67-1.79,2.72,2.72,0,0,0-2-.67,3.15,3.15,0,0,0-1.92.58,1.72,1.72,0,0,0-.78,1.4h-2.15a3,3,0,0,1,.66-1.81,4.62,4.62,0,0,1,1.81-1.38,6.09,6.09,0,0,1,2.51-.51,5,5,0,0,1,3.39,1.08,3.9,3.9,0,0,1,1.27,3V313a7.09,7.09,0,0,0,.44,2.74v.19Zm-3.56-1.63a3.83,3.83,0,0,0,1.91-.52,3.17,3.17,0,0,0,1.31-1.36v-2.57h-1.68q-3.93,0-3.93,2.31a1.94,1.94,0,0,0,.67,1.57A2.55,2.55,0,0,0,507.73,314.31Z"/><path d="M524.22,312.62a1.59,1.59,0,0,0-.65-1.35,6.32,6.32,0,0,0-2.29-.83,11,11,0,0,1-2.58-.83,3.71,3.71,0,0,1-1.41-1.16,2.81,2.81,0,0,1-.46-1.6,3.26,3.26,0,0,1,1.31-2.61,5,5,0,0,1,3.32-1.06,5.26,5.26,0,0,1,3.46,1.1,3.5,3.5,0,0,1,1.33,2.81h-2.16a1.94,1.94,0,0,0-.74-1.51,2.79,2.79,0,0,0-1.89-.64,2.93,2.93,0,0,0-1.83.51,1.6,1.6,0,0,0-.66,1.33,1.3,1.3,0,0,0,.62,1.17,7.69,7.69,0,0,0,2.22.75,11.77,11.77,0,0,1,2.6.86,3.75,3.75,0,0,1,1.47,1.2,2.92,2.92,0,0,1,.48,1.71,3.22,3.22,0,0,1-1.34,2.69,5.69,5.69,0,0,1-3.49,1,6.38,6.38,0,0,1-2.66-.53,4.32,4.32,0,0,1-1.81-1.49,3.58,3.58,0,0,1-.66-2.07h2.15a2.18,2.18,0,0,0,.86,1.71,3.34,3.34,0,0,0,2.12.63,3.44,3.44,0,0,0,2-.49A1.52,1.52,0,0,0,524.22,312.62Z"/><path d="M534.83,316.17a5.51,5.51,0,0,1-4.15-1.67,6.25,6.25,0,0,1-1.6-4.48v-.39a7.47,7.47,0,0,1,.72-3.33,5.43,5.43,0,0,1,2-2.29,5,5,0,0,1,2.77-.83,4.71,4.71,0,0,1,3.8,1.61,7,7,0,0,1,1.35,4.61v.89h-8.48a4.45,4.45,0,0,0,1.08,3,3.4,3.4,0,0,0,2.63,1.14,3.69,3.69,0,0,0,1.92-.46,4.74,4.74,0,0,0,1.38-1.23l1.31,1A5.24,5.24,0,0,1,534.83,316.17Zm-.27-11.23a2.87,2.87,0,0,0-2.18.94,4.64,4.64,0,0,0-1.09,2.65h6.28v-.16a4,4,0,0,0-.88-2.53A2.67,2.67,0,0,0,534.56,304.94Z"/><path d="M554,314.42a3.1,3.1,0,0,0,2-.69,2.43,2.43,0,0,0,1-1.74h2a3.78,3.78,0,0,1-.74,2.05,4.76,4.76,0,0,1-1.82,1.55,5.22,5.22,0,0,1-2.41.58,5.14,5.14,0,0,1-4.07-1.71,6.78,6.78,0,0,1-1.52-4.67v-.36a7.49,7.49,0,0,1,.68-3.25,5.06,5.06,0,0,1,1.92-2.21,5.45,5.45,0,0,1,3-.79,5,5,0,0,1,3.51,1.26,4.51,4.51,0,0,1,1.48,3.28h-2a3,3,0,0,0-.92-2,2.88,2.88,0,0,0-2.05-.78,3,3,0,0,0-2.53,1.17,5.6,5.6,0,0,0-.89,3.4v.41a5.37,5.37,0,0,0,.89,3.33A3,3,0,0,0,554,314.42Z"/><path d="M561.33,309.56a7.42,7.42,0,0,1,.72-3.31,5.34,5.34,0,0,1,5-3.07,5.27,5.27,0,0,1,4.13,1.77,6.78,6.78,0,0,1,1.59,4.71v.15a7.46,7.46,0,0,1-.71,3.29,5.24,5.24,0,0,1-2,2.26,5.54,5.54,0,0,1-3,.81,5.27,5.27,0,0,1-4.13-1.77,6.79,6.79,0,0,1-1.58-4.69Zm2.15.25a5.4,5.4,0,0,0,1,3.35,3.11,3.11,0,0,0,2.59,1.26,3,3,0,0,0,2.59-1.28,5.84,5.84,0,0,0,1-3.58,5.3,5.3,0,0,0-1-3.34,3.1,3.1,0,0,0-2.59-1.28,3.07,3.07,0,0,0-2.56,1.26A5.81,5.81,0,0,0,563.48,309.81Z"/><path d="M577.92,303.41,578,305a4.56,4.56,0,0,1,3.75-1.81q4,0,4,4.48v8.28h-2.14v-8.29a2.91,2.91,0,0,0-.62-2,2.46,2.46,0,0,0-1.89-.65,3.07,3.07,0,0,0-1.83.55A3.72,3.72,0,0,0,578,307v8.93H575.9V303.41Z"/><path d="M591.48,303.41l.07,1.58a4.56,4.56,0,0,1,3.75-1.81q4,0,4,4.48v8.28h-2.14v-8.29a2.91,2.91,0,0,0-.62-2,2.47,2.47,0,0,0-1.9-.65,3.11,3.11,0,0,0-1.83.55A3.78,3.78,0,0,0,591.6,307v8.93h-2.14V303.41Z"/><path d="M608.21,316.17a5.48,5.48,0,0,1-4.14-1.67,6.21,6.21,0,0,1-1.6-4.48v-.39a7.61,7.61,0,0,1,.71-3.33,5.57,5.57,0,0,1,2-2.29,5.05,5.05,0,0,1,2.78-.83,4.68,4.68,0,0,1,3.79,1.61,6.93,6.93,0,0,1,1.36,4.61v.89h-8.49a4.45,4.45,0,0,0,1.08,3,3.42,3.42,0,0,0,2.64,1.14,3.69,3.69,0,0,0,1.92-.46,4.74,4.74,0,0,0,1.38-1.23l1.31,1A5.26,5.26,0,0,1,608.21,316.17ZM608,304.94a2.85,2.85,0,0,0-2.18.94,4.57,4.57,0,0,0-1.09,2.65H611v-.16a4.08,4.08,0,0,0-.88-2.53A2.7,2.7,0,0,0,608,304.94Z"/><path d="M621.08,314.42a3.1,3.1,0,0,0,2-.69A2.43,2.43,0,0,0,624,312h2a3.94,3.94,0,0,1-.74,2.05,4.87,4.87,0,0,1-1.83,1.55,5.55,5.55,0,0,1-6.48-1.13,6.78,6.78,0,0,1-1.51-4.67v-.36a7.49,7.49,0,0,1,.67-3.25A5.08,5.08,0,0,1,618.1,304a5.4,5.4,0,0,1,3-.79,5,5,0,0,1,3.5,1.26,4.55,4.55,0,0,1,1.49,3.28h-2a3,3,0,0,0-.92-2,2.86,2.86,0,0,0-2-.78,3,3,0,0,0-2.53,1.17,5.53,5.53,0,0,0-.9,3.4v.41a5.43,5.43,0,0,0,.89,3.33A3,3,0,0,0,621.08,314.42Z"/><path d="M631.85,300.38v3h2.33v1.66h-2.33v7.78a1.73,1.73,0,0,0,.31,1.13,1.31,1.31,0,0,0,1.06.37,4.66,4.66,0,0,0,1-.14v1.73a6.36,6.36,0,0,1-1.64.23,2.68,2.68,0,0,1-2.17-.87,3.76,3.76,0,0,1-.73-2.46v-7.77h-2.28v-1.66h2.28v-3Z"/><path d="M651.24,315.94a4.78,4.78,0,0,1-.3-1.32,4.81,4.81,0,0,1-3.57,1.55,4.43,4.43,0,0,1-3-1.05,3.37,3.37,0,0,1-1.18-2.65,3.53,3.53,0,0,1,1.48-3,7.05,7.05,0,0,1,4.19-1.09h2.08v-1a2.39,2.39,0,0,0-.67-1.79,2.72,2.72,0,0,0-2-.67,3.17,3.17,0,0,0-1.92.58,1.72,1.72,0,0,0-.78,1.4H643.4a3,3,0,0,1,.67-1.81,4.52,4.52,0,0,1,1.8-1.38,6.09,6.09,0,0,1,2.51-.51,5,5,0,0,1,3.39,1.08,3.9,3.9,0,0,1,1.28,3V313a6.91,6.91,0,0,0,.44,2.74v.19Zm-3.55-1.63a3.86,3.86,0,0,0,1.91-.52,3.14,3.14,0,0,0,1.3-1.36v-2.57h-1.67q-3.94,0-3.94,2.31a1.94,1.94,0,0,0,.67,1.57A2.58,2.58,0,0,0,647.69,314.31Z"/><path d="M668.25,314.42a3.1,3.1,0,0,0,2-.69,2.43,2.43,0,0,0,1-1.74h2a3.94,3.94,0,0,1-.74,2.05,4.87,4.87,0,0,1-1.83,1.55,5.55,5.55,0,0,1-6.48-1.13,6.78,6.78,0,0,1-1.51-4.67v-.36a7.49,7.49,0,0,1,.67-3.25,5.08,5.08,0,0,1,1.93-2.21,5.4,5.4,0,0,1,3-.79,5,5,0,0,1,3.5,1.26,4.52,4.52,0,0,1,1.49,3.28h-2a3,3,0,0,0-.92-2,2.86,2.86,0,0,0-2-.78,3,3,0,0,0-2.53,1.17,5.53,5.53,0,0,0-.9,3.4v.41a5.43,5.43,0,0,0,.89,3.33A3,3,0,0,0,668.25,314.42Z"/><path d="M683.85,315.94a4.37,4.37,0,0,1-.31-1.32,4.77,4.77,0,0,1-3.56,1.55,4.41,4.41,0,0,1-3-1.05,3.37,3.37,0,0,1-1.19-2.65,3.54,3.54,0,0,1,1.49-3,7,7,0,0,1,4.19-1.09h2.08v-1a2.39,2.39,0,0,0-.67-1.79,2.72,2.72,0,0,0-2-.67,3.13,3.13,0,0,0-1.92.58,1.72,1.72,0,0,0-.78,1.4H676a3,3,0,0,1,.66-1.81,4.62,4.62,0,0,1,1.81-1.38,6.05,6.05,0,0,1,2.51-.51,5,5,0,0,1,3.39,1.08,3.9,3.9,0,0,1,1.27,3V313a7.09,7.09,0,0,0,.44,2.74v.19Zm-3.56-1.63a3.83,3.83,0,0,0,1.91-.52,3.17,3.17,0,0,0,1.31-1.36v-2.57h-1.68c-2.62,0-3.94.77-3.94,2.31a1.94,1.94,0,0,0,.68,1.57A2.55,2.55,0,0,0,680.29,314.31Z"/><path d="M691.5,303.41l.06,1.39a4.62,4.62,0,0,1,3.71-1.62,3.58,3.58,0,0,1,3.58,2,4.71,4.71,0,0,1,4-2c2.74,0,4.14,1.45,4.19,4.37v8.39H704.9v-8.27a2.9,2.9,0,0,0-.62-2,2.71,2.71,0,0,0-2.06-.66,2.83,2.83,0,0,0-2,.71,2.87,2.87,0,0,0-.91,1.92v8.31h-2.16v-8.21q0-2.73-2.67-2.73a2.88,2.88,0,0,0-2.89,1.79v9.15h-2.14V303.41Z"/><path d="M715.94,316.17a5.47,5.47,0,0,1-4.14-1.67,6.21,6.21,0,0,1-1.6-4.48v-.39a7.61,7.61,0,0,1,.71-3.33,5.57,5.57,0,0,1,2-2.29,5.05,5.05,0,0,1,2.78-.83,4.68,4.68,0,0,1,3.79,1.61,6.93,6.93,0,0,1,1.36,4.61v.89h-8.49a4.45,4.45,0,0,0,1.08,3,3.41,3.41,0,0,0,2.64,1.14A3.71,3.71,0,0,0,718,314a4.74,4.74,0,0,0,1.38-1.23l1.31,1A5.26,5.26,0,0,1,715.94,316.17Zm-.26-11.23a2.85,2.85,0,0,0-2.18.94,4.57,4.57,0,0,0-1.09,2.65h6.28v-.16a4.08,4.08,0,0,0-.88-2.53A2.7,2.7,0,0,0,715.68,304.94Z"/><path d="M729.84,305.33a7,7,0,0,0-1.06-.08,2.83,2.83,0,0,0-2.86,1.8v8.89h-2.14V303.41h2.09l0,1.45a3.34,3.34,0,0,1,3-1.68,2.2,2.2,0,0,1,1,.16Z"/><path d="M739.66,315.94a4.37,4.37,0,0,1-.31-1.32,4.77,4.77,0,0,1-3.56,1.55,4.41,4.41,0,0,1-3-1.05,3.37,3.37,0,0,1-1.19-2.65,3.54,3.54,0,0,1,1.49-3,7,7,0,0,1,4.19-1.09h2.08v-1a2.39,2.39,0,0,0-.67-1.79,2.72,2.72,0,0,0-2-.67,3.13,3.13,0,0,0-1.92.58,1.72,1.72,0,0,0-.78,1.4h-2.15a3,3,0,0,1,.66-1.81,4.62,4.62,0,0,1,1.81-1.38,6.05,6.05,0,0,1,2.51-.51,5,5,0,0,1,3.39,1.08,3.9,3.9,0,0,1,1.27,3V313a7.09,7.09,0,0,0,.44,2.74v.19Zm-3.56-1.63a3.83,3.83,0,0,0,1.91-.52,3.17,3.17,0,0,0,1.31-1.36v-2.57h-1.68c-2.62,0-3.94.77-3.94,2.31a1.94,1.94,0,0,0,.68,1.57A2.55,2.55,0,0,0,736.1,314.31Z"/><path d="M759.37,315.94a4.78,4.78,0,0,1-.3-1.32,4.77,4.77,0,0,1-3.56,1.55,4.41,4.41,0,0,1-3-1.05,3.37,3.37,0,0,1-1.19-2.65,3.54,3.54,0,0,1,1.49-3,7,7,0,0,1,4.18-1.09H759v-1a2.43,2.43,0,0,0-.67-1.79,2.72,2.72,0,0,0-2-.67,3.13,3.13,0,0,0-1.92.58,1.72,1.72,0,0,0-.78,1.4h-2.16a3,3,0,0,1,.67-1.81,4.62,4.62,0,0,1,1.81-1.38,6,6,0,0,1,2.5-.51,5,5,0,0,1,3.4,1.08,3.9,3.9,0,0,1,1.27,3V313a7.09,7.09,0,0,0,.44,2.74v.19Zm-3.55-1.63a3.83,3.83,0,0,0,1.91-.52,3.17,3.17,0,0,0,1.31-1.36v-2.57h-1.68q-3.95,0-3.94,2.31a2,2,0,0,0,.67,1.57A2.6,2.6,0,0,0,755.82,314.31Z"/><path d="M767,303.41l.07,1.58a4.56,4.56,0,0,1,3.75-1.81c2.65,0,4,1.49,4,4.48v8.28h-2.15v-8.29a2.86,2.86,0,0,0-.61-2,2.47,2.47,0,0,0-1.9-.65,3.11,3.11,0,0,0-1.83.55,3.78,3.78,0,0,0-1.22,1.46v8.93H765V303.41Z"/><path d="M778.05,309.57a7.36,7.36,0,0,1,1.37-4.64,4.31,4.31,0,0,1,3.58-1.75,4.35,4.35,0,0,1,3.48,1.5v-6.53h2.14v17.79h-2l-.1-1.34a4.36,4.36,0,0,1-3.58,1.57,4.28,4.28,0,0,1-3.55-1.78,7.46,7.46,0,0,1-1.37-4.66Zm2.14.24a5.6,5.6,0,0,0,.88,3.34,2.86,2.86,0,0,0,2.44,1.2,3.12,3.12,0,0,0,3-1.83v-5.75a3.14,3.14,0,0,0-3-1.77,2.87,2.87,0,0,0-2.46,1.21A6.16,6.16,0,0,0,780.19,309.81Z"/><path d="M801.67,300.38v3H804v1.66h-2.34v7.78A1.79,1.79,0,0,0,802,314a1.33,1.33,0,0,0,1.07.37,4.66,4.66,0,0,0,1-.14v1.73a6.43,6.43,0,0,1-1.65.23,2.66,2.66,0,0,1-2.16-.87,3.7,3.7,0,0,1-.73-2.46v-7.77h-2.28v-1.66h2.28v-3Z"/><path d="M813,305.33a6.79,6.79,0,0,0-1-.08,2.82,2.82,0,0,0-2.86,1.8v8.89H807V303.41h2.08l0,1.45a3.32,3.32,0,0,1,3-1.68,2.14,2.14,0,0,1,.95.16Z"/><path d="M819.79,312.8l2.92-9.39H825l-5,14.46Q818.8,321,816.25,321l-.41,0-.8-.16v-1.73l.58,0a2.82,2.82,0,0,0,1.7-.44,3.12,3.12,0,0,0,1-1.61l.48-1.27-4.47-12.39h2.34Z"/><path d="M841.47,315.94a4.14,4.14,0,0,1-.3-1.32,4.81,4.81,0,0,1-3.57,1.55,4.43,4.43,0,0,1-3-1.05,3.37,3.37,0,0,1-1.19-2.65,3.54,3.54,0,0,1,1.49-3,7,7,0,0,1,4.19-1.09h2.08v-1a2.39,2.39,0,0,0-.67-1.79,2.72,2.72,0,0,0-2-.67,3.17,3.17,0,0,0-1.92.58,1.72,1.72,0,0,0-.78,1.4h-2.15a3,3,0,0,1,.66-1.81,4.62,4.62,0,0,1,1.81-1.38,6.09,6.09,0,0,1,2.51-.51,5,5,0,0,1,3.39,1.08,3.9,3.9,0,0,1,1.27,3V313a7.09,7.09,0,0,0,.44,2.74v.19Zm-3.56-1.63a3.83,3.83,0,0,0,1.91-.52,3.11,3.11,0,0,0,1.31-1.36v-2.57h-1.68q-3.93,0-3.93,2.31a1.94,1.94,0,0,0,.67,1.57A2.57,2.57,0,0,0,837.91,314.31Z"/><path d="M846.6,309.57a7.38,7.38,0,0,1,1.35-4.66,4.68,4.68,0,0,1,7.17-.11l.1-1.39h2v12.23a5.09,5.09,0,0,1-1.44,3.83,5.29,5.29,0,0,1-3.87,1.4,6.41,6.41,0,0,1-2.66-.58,4.57,4.57,0,0,1-2-1.58l1.11-1.29a4.19,4.19,0,0,0,3.37,1.7,3.26,3.26,0,0,0,2.44-.88,3.32,3.32,0,0,0,.88-2.47v-1.08a4.41,4.41,0,0,1-3.51,1.48A4.27,4.27,0,0,1,848,314.4,7.72,7.72,0,0,1,846.6,309.57Zm2.15.24a5.58,5.58,0,0,0,.87,3.33,2.81,2.81,0,0,0,2.43,1.21,3.15,3.15,0,0,0,3-1.84v-5.72a3.19,3.19,0,0,0-3-1.79,2.84,2.84,0,0,0-2.44,1.21A6.09,6.09,0,0,0,848.75,309.81Z"/><path d="M868.62,315.94a2,2,0,1,0-3.87.23,4.43,4.43,0,0,1-3-1.05,3.37,3.37,0,0,1-1.18-2.65,3.53,3.53,0,0,1,1.48-3,7.05,7.05,0,0,1,4.19-1.09h2.08v-1a2.39,2.39,0,0,0-.67-1.79,2.69,2.69,0,0,0-2-.67,3.17,3.17,0,0,0-1.92.58,1.72,1.72,0,0,0-.78,1.4h-2.15a3,3,0,0,1,.67-1.81,4.52,4.52,0,0,1,1.8-1.38,6.09,6.09,0,0,1,2.51-.51,5,5,0,0,1,3.39,1.08,3.9,3.9,0,0,1,1.28,3V313a6.91,6.91,0,0,0,.44,2.74v.19Zm-3.55-1.63a3.86,3.86,0,0,0,1.91-.52,3.14,3.14,0,0,0,1.3-1.36v-2.57H866.6q-3.93,0-3.93,2.31a1.94,1.94,0,0,0,.67,1.57A2.58,2.58,0,0,0,865.07,314.31Z"/><path d="M874.27,300.09a1.29,1.29,0,0,1,.32-.88,1.42,1.42,0,0,1,1.89,0,1.25,1.25,0,0,1,.33.88,1.21,1.21,0,0,1-.33.87,1.48,1.48,0,0,1-1.89,0A1.24,1.24,0,0,1,874.27,300.09Zm2.32,15.85h-2.15V303.41h2.15Z"/><path d="M882.51,303.41l.07,1.58a4.56,4.56,0,0,1,3.76-1.81c2.64,0,4,1.49,4,4.48v8.28H888.2v-8.29a2.91,2.91,0,0,0-.62-2,2.45,2.45,0,0,0-1.89-.65,3.07,3.07,0,0,0-1.83.55,3.72,3.72,0,0,0-1.23,1.46v8.93h-2.14V303.41Z"/><path d="M894.28,314.85a1.24,1.24,0,0,1,.32-.88,1.18,1.18,0,0,1,.94-.36,1.21,1.21,0,0,1,1,.36,1.24,1.24,0,0,1,.32.88,1.2,1.2,0,0,1-.32.87,1.25,1.25,0,0,1-1,.35,1.16,1.16,0,0,1-1.26-1.22Zm2.16-3.69h-1.93l-.15-12.08h2.25Z"/></g></svg>