<svg id="Layer_1" data-name="Layer 1" xmlns="http://www.w3.org/2000/svg" viewBox="0 0 1366 768"><defs><style>.cls-1{opacity:0.5;}.cls-2{fill:#4e4d55;}.cls-3{fill:#949299;}.cls-4{fill:#fff;}.cls-5{fill:#706f77;}.cls-6{fill:#5c5964;}.cls-7{fill:#c1bbbb;}.cls-8{fill:#ddd8d5;}.cls-9{fill:#b94b4c;}.cls-10{fill:none;stroke:#c1bbbb;stroke-linecap:round;stroke-linejoin:round;stroke-width:6px;}.cls-11{fill:#525157;}</style></defs><title>Webcam_Error</title><g class="cls-1"><rect class="cls-2" x="395.13" y="161.21" width="21.25" height="116.07"/><rect class="cls-2" x="504.66" y="197.99" width="17.98" height="44.14"/><rect class="cls-2" x="548.8" y="333.68" width="238.67" height="26.16"/><rect class="cls-2" x="586.4" y="361.47" width="119.34" height="26.16"/><rect class="cls-3" x="416.38" y="161.21" width="3.27" height="116.07" transform="translate(836.03 438.49) rotate(180)"/><path class="cls-3" d="M424.56,277.28h43.65A34.81,34.81,0,0,0,503,242.46V196a34.81,34.81,0,0,0-34.81-34.82H424.56Z"/><rect class="cls-4" x="391.86" y="170.2" width="16.35" height="6.54"/><rect class="cls-4" x="391.86" y="181.64" width="16.35" height="6.54"/><rect class="cls-4" x="391.86" y="193.09" width="16.35" height="6.54"/><rect class="cls-4" x="391.86" y="204.53" width="16.35" height="6.54"/><rect class="cls-4" x="391.86" y="215.97" width="16.35" height="6.54"/><rect class="cls-4" x="391.86" y="227.42" width="16.35" height="6.54"/><rect class="cls-4" x="391.86" y="238.86" width="16.35" height="6.54"/><rect class="cls-4" x="391.86" y="250.3" width="16.35" height="6.54"/><rect class="cls-2" x="869.21" y="150.58" width="57.22" height="49.04"/><rect class="cls-5" x="903.54" y="157.12" width="27.79" height="9.81"/><rect class="cls-5" x="895.36" y="170.2" width="35.96" height="9.81"/><rect class="cls-5" x="883.92" y="183.28" width="47.41" height="9.81"/><rect class="cls-4" x="391.86" y="261.75" width="16.35" height="6.54"/><path class="cls-6" d="M342,113.8h0a55.58,55.58,0,0,1,55.58,55.58V269.1A55.58,55.58,0,0,1,342,324.69h0a0,0,0,0,1,0,0V113.8A0,0,0,0,1,342,113.8Z"/><path class="cls-3" d="M522.64,83.56H798.93a67,67,0,0,1,67,67V266.66a67,67,0,0,1-67,67H522.64a0,0,0,0,1,0,0V83.56A0,0,0,0,1,522.64,83.56Z"/><rect class="cls-5" x="926.43" y="134.24" width="11.44" height="81.74" transform="translate(1864.29 350.21) rotate(180)"/><circle class="cls-7" cx="616.64" cy="159.58" r="42.5"/><circle class="cls-8" cx="616.64" cy="159.58" r="24.52"/><circle class="cls-7" cx="655.06" cy="211.07" r="19.62"/><circle class="cls-8" cx="655.06" cy="211.07" r="9.81"/><circle class="cls-7" cx="669.77" cy="181.64" r="8.17"/><circle class="cls-8" cx="669.77" cy="181.64" r="4.09"/><rect class="cls-9" x="771.12" y="122.79" width="19.62" height="19.62"/><rect class="cls-9" x="514.47" y="104.81" width="8.17" height="19.62"/><rect class="cls-5" x="800.55" y="265.02" width="26.16" height="26.16" rx="5.54" ry="5.54"/><rect class="cls-5" x="767.85" y="265.02" width="26.16" height="26.16" rx="5.54" ry="5.54"/><path class="cls-10" d="M615.48,549.13c0,24-10.28,59.87-10.28,79.62,0,62.12,161,84.19,129.14,3.27-3-7.49-28.91-38-27.79-68.66,4.09-112,218.77-140.7,224.78-20.43,1.63,32.69-42.5,62.12-76.83,47.4-8.18-3.27-13.08-9.81-14.72-18a19.37,19.37,0,0,1,1.47-10.48,25.75,25.75,0,0,1,21.11-15.37c12.52-1.39,25.37,1,33,14.41,13.08,22.88,9.81,75.2,49,70.29"/><path class="cls-7" d="M982,629.13v-3.75H965.76v-5.62H946.44a6.94,6.94,0,0,0-6.94,6.94v12.37a6.94,6.94,0,0,0,6.94,6.94h19.32v-5.62H982v-3.75H965.76v-7.51Z"/><path class="cls-7" d="M1001.38,595.3a151.39,151.39,0,0,0-15.62,15.19c-2.09,2.35,1.36,5.83,3.47,3.47a151.39,151.39,0,0,1,15.62-15.19C1007.26,596.73,1003.78,593.28,1001.38,595.3Z"/><path class="cls-7" d="M1021.64,620.3l-24.75,1.34c-3.14.17-3.16,5.08,0,4.9l24.75-1.34C1024.78,625,1024.8,620.12,1021.64,620.3Z"/><path class="cls-7" d="M1017,642.48a81.69,81.69,0,0,0-18.61-5c-3.09-.45-4.42,4.28-1.3,4.73a81.69,81.69,0,0,1,18.61,5C1018.66,648.38,1019.93,643.64,1017,642.48Z"/><path class="cls-7" d="M1002,664.76a77.63,77.63,0,0,0-11.46-13.09c-2.33-2.12-5.81,1.34-3.47,3.47a71.94,71.94,0,0,1,10.69,12.1C999.51,669.81,1003.76,667.36,1002,664.76Z"/><path class="cls-7" d="M971.74,652a41.65,41.65,0,0,0-5.87,16.22c-.43,3.13,4.43,3.84,4.86.71A35.73,35.73,0,0,1,975.62,655C977.25,652.35,973.39,649.31,971.74,652Z"/><path class="cls-7" d="M966.21,594.35a41.41,41.41,0,0,0,3.48,16.89c1.27,2.9,5.78,1,4.5-1.93a36.06,36.06,0,0,1-3.11-14.43C971.08,591.76,966.21,591.19,966.21,594.35Z"/><rect class="cls-5" x="735.16" y="265.02" width="26.16" height="26.16" rx="5.54" ry="5.54"/><rect class="cls-11" x="586.4" y="389.26" width="58.85" height="173.28"/><rect class="cls-7" x="624" y="433.4" width="16.35" height="6.54"/><rect class="cls-7" x="624" y="444.84" width="16.35" height="6.54"/><rect class="cls-7" x="624" y="456.28" width="16.35" height="6.54"/><rect class="cls-7" x="624" y="467.73" width="16.35" height="6.54"/><rect class="cls-7" x="624" y="479.17" width="16.35" height="6.54"/><rect class="cls-7" x="624" y="490.61" width="16.35" height="6.54"/><rect class="cls-7" x="624" y="502.06" width="16.35" height="6.54"/><rect class="cls-7" x="624" y="513.5" width="16.35" height="6.54"/></g></svg>