<svg id="Capa_1" enable-background="new 0 0 510.769 510.769" height="512" viewBox="0 0 510.769 510.769" width="512" xmlns="http://www.w3.org/2000/svg"><g><path d="m289.991 247.503-249.364 249.364c-7.83 7.83-20.239 8.116-27.716.639s-7.191-19.886.639-27.716l249.364-249.364 46.526-44.309 28.767 28.433z" fill="#c9bfc8"/><path d="m433.069 230.045-38.274-61.065c-.768-1.226-.942-2.732-.473-4.1l22.83-66.551c1.297-3.779-2.332-7.393-6.127-6.102l-66.817 22.739c-1.373.467-2.885.294-4.116-.471l-51.678-32.134-8.104 3.158 5.345 68.321-13.213 16.35-45.31 29.972 65.746 18.99 16.108 50.096 10.519 8.185.309 3.802 30.749-47.407c.962-1.483 2.662-2.322 4.43-2.183l73.607 5.736c3.948.308 6.567-3.991 4.469-7.336z" fill="#fee45a"/><path d="m304.102 214.992c-.459-1.52-1.649-2.711-3.17-3.17l-57.063-17.228 50.613-32.698c1.463-.945 2.291-2.617 2.154-4.354l-5.659-72.34c-.033-.422-.003-.824.064-1.21l-10.461-6.531c-3.301-2.062-7.543.512-7.239 4.393l5.659 72.34c.136 1.737-.691 3.408-2.154 4.354l-57.411 37.09c-.889.574-1.484 1.355-1.823 2.212l-.008.001c-.004.01-.005.021-.009.031-.064.164-.098.335-.143.505-.037.141-.089.277-.113.421 0 .003-.002.005-.002.008h.002c-.367 2.201.814 4.596 3.298 5.346l62.76 18.948c1.52.459 2.711 1.649 3.17 3.17l18.948 62.76c1.168 3.869 6.331 4.598 8.524 1.203l8.712-13.485z" fill="#fed402"/><g fill="#fee97d"><path d="m171.253 109.818c-10.416 8.657-13.392 21.236-8.928 37.737.667 2.465 3.272 3.871 5.694 3.06l29.553-9.89c3.074-1.029 4.039-4.902 1.807-7.253l-22.1-23.272c-1.598-1.684-4.241-1.866-6.026-.382z"/><path d="m354.47 13.021c-11.234-7.566-24.142-6.89-38.725 2.029-2.179 1.333-2.796 4.227-1.338 6.324l17.792 25.587c1.851 2.662 5.84 2.5 7.469-.303l16.129-27.746c1.166-2.006.598-4.595-1.327-5.891z"/><path d="m401.308 339.873c-8.657 10.416-21.236 13.392-37.737 8.928-2.465-.667-3.871-3.272-3.06-5.694l9.89-29.553c1.029-3.074 4.902-4.039 7.253-1.807l23.272 22.1c1.684 1.597 1.865 4.241.382 6.026z"/><path d="m498.105 156.656c7.566 11.234 6.89 24.142-2.029 38.725-1.333 2.179-4.227 2.796-6.324 1.338l-25.587-17.792c-2.662-1.851-2.5-5.84.303-7.469l27.746-16.129c2.006-1.167 4.594-.598 5.891 1.327z"/></g><path d="m402.83 166.432 22.419-65.613c1.532-4.484.403-9.352-2.947-12.702s-8.219-4.478-12.701-2.948l-18.471 6.311c-3.92 1.34-6.012 5.603-4.673 9.522 1.341 3.921 5.603 6.012 9.522 4.673l13.313-4.549-21.067 61.656c-1.205 3.524-.765 7.357 1.207 10.515l35.469 56.813-68.319-5.344c-4.535-.367-8.86 1.791-11.316 5.599l-34.603 53.561-17.608-58.321c-1.194-3.962-4.272-7.042-8.237-8.24l-57.686-17.203 52.925-35.009c3.807-2.461 5.952-6.797 5.598-11.313l-5.345-68.321 56.817 35.471c3.155 1.967 6.987 2.407 10.508 1.204l18.034-6.162c3.92-1.339 6.012-5.603 4.672-9.521-1.339-3.92-5.606-6.016-9.521-4.672l-16.832 5.751-60.229-37.601c-3.971-2.478-8.92-2.511-12.921-.084-4.001 2.428-6.26 6.834-5.896 11.5l5.634 72.016-57.076 36.873c-4.081 2.637-6.194 7.264-5.516 12.075s3.99 8.673 8.642 10.077l33.54 10.126-177.971 177.967c-2.929 2.93-2.929 7.678 0 10.607 1.465 1.464 3.385 2.196 5.304 2.196s3.839-.732 5.304-2.196l183.657-183.656 12.649 3.819 3.819 12.65-56.077 56.077c-2.929 2.93-2.929 7.678 0 10.607 1.465 1.464 3.385 2.196 5.304 2.196s3.839-.732 5.304-2.196l50.389-50.39 10.126 33.54c1.404 4.651 5.266 7.963 10.077 8.642.596.084 1.188.126 1.775.125 4.151 0 7.989-2.065 10.3-5.641l36.874-57.075 72.016 5.634c4.665.359 9.071-1.894 11.498-5.896 2.428-4.001 2.396-8.952-.082-12.921z"/><path d="m204.211 322.675-168.888 168.889c-4.892 4.892-12.566 5.182-17.108.639-4.541-4.54-4.254-12.215.64-17.107l41.309-41.309c2.929-2.93 2.929-7.678 0-10.607-2.93-2.928-7.678-2.928-10.607 0l-41.31 41.308c-10.741 10.742-11.028 27.932-.638 38.322 5.081 5.081 11.788 7.608 18.573 7.607 7.088 0 14.261-2.759 19.749-8.246l168.888-168.889c2.929-2.93 2.929-7.678 0-10.607-2.93-2.928-7.678-2.928-10.608 0z"/><path d="m160.979 156.928c1.746.936 3.693 1.411 5.646 1.411 1.273 0 2.551-.202 3.774-.612l29.553-9.891c3.888-1.3 6.801-4.451 7.792-8.43.991-3.978-.103-8.128-2.926-11.1l-22.1-23.272c-4.313-4.545-11.457-4.978-16.26-.984l.001-.001c-15.975 13.276-15.003 32.051-11.375 45.463.857 3.165 3.005 5.867 5.895 7.416zm12.948-39.368 16.695 17.581-21.833 7.307c-1.675-7.654-2.119-17.287 5.138-24.888z"/><path d="m326.04 51.242c2.246 3.23 5.876 5.12 9.786 5.12.164 0 .328-.003.493-.01 4.097-.166 7.772-2.381 9.832-5.925l16.13-27.747c3.147-5.416 1.557-12.391-3.621-15.879 0 0 0-.001-.001-.001-17.229-11.602-34.974-5.397-46.825 1.851-2.797 1.709-4.789 4.53-5.464 7.738-.673 3.204.012 6.582 1.88 9.267zm21.75-33.48-12.186 20.96-13.143-18.901c6.876-3.757 15.997-6.888 25.329-2.059z"/><path d="m244.929 48.048c1.481 1.834 3.649 2.785 5.837 2.785 1.655 0 3.322-.546 4.71-1.668 3.222-2.604 3.722-7.326 1.117-10.547l-13.664-16.901c-2.603-3.221-7.325-3.722-10.547-1.117-3.222 2.604-3.722 7.326-1.117 10.547z"/><path d="m382.819 306.308c-2.973-2.821-7.122-3.915-11.101-2.926-3.979.991-7.13 3.904-8.43 7.791l-9.891 29.554c-1.038 3.1-.747 6.532.798 9.417 1.548 2.891 4.25 5.039 7.416 5.897 5.79 1.566 10.983 2.24 15.64 2.24 14.88 0 24.24-6.898 29.823-13.614 3.992-4.803 3.561-11.945-.984-16.26zm-14.141 36.028 7.307-21.833 17.581 16.695c-7.603 7.259-17.236 6.815-24.888 5.138z"/><path d="m504.325 152.466c0-.001-.001-.001 0 0-3.489-5.18-10.463-6.769-15.882-3.622l-27.746 16.131c-3.544 2.06-5.759 5.735-5.924 9.832-.166 4.096 1.745 7.938 5.11 10.277l25.583 17.79c2.01 1.398 4.405 2.134 6.827 2.134.815 0 1.634-.084 2.44-.253 3.209-.675 6.03-2.666 7.739-5.462 13.136-21.473 8.258-37.317 1.853-46.827zm-13.02 36.197-18.902-13.144 20.961-12.186c4.83 9.335 1.699 18.454-2.059 25.33z"/><path d="m489.408 268.197-16.901-13.664c-3.223-2.606-7.944-2.105-10.547 1.117-2.604 3.221-2.104 7.943 1.117 10.547l16.901 13.664c1.388 1.122 3.055 1.668 4.71 1.668 2.188 0 4.355-.951 5.837-2.785 2.605-3.221 2.105-7.944-1.117-10.547z"/><path d="m471.57 42.739c-2.829-3.024-7.576-3.185-10.601-.353l-18.749 17.541c-3.024 2.83-3.183 7.576-.353 10.601 1.477 1.578 3.475 2.376 5.479 2.376 1.835 0 3.676-.67 5.122-2.023l18.749-17.541c3.025-2.831 3.184-7.577.353-10.601z"/></g></svg>
